<svg xmlns="http://www.w3.org/2000/svg" width="17" height="21" viewBox="0 0 17 21"><defs><style>.a{fill:#f7b731;}</style></defs><g transform="translate(-21 -15)"><path class="a" d="M2442.565-584a4.565,4.565,0,0,1-4.565-4.565v-7.609a1.826,1.826,0,0,1,1.826-1.826H2441v-.063c0-3.825,2.467-6.937,5.5-6.937s5.5,3.112,5.5,6.937V-598h1.174a1.826,1.826,0,0,1,1.826,1.826v7.609a4.565,4.565,0,0,1-4.566,4.565ZM2440-588.565a2.568,2.568,0,0,0,2.565,2.565h7.87a2.568,2.568,0,0,0,2.565-2.565V-596h-13Zm3-9.606h7c-.042-2.629-1.627-4.829-3.5-4.829S2443.044-600.8,2443-598.171Zm1.672,7A1.826,1.826,0,0,1,2446.5-593a1.826,1.826,0,0,1,1.826,1.826,1.826,1.826,0,0,1-1.826,1.826A1.827,1.827,0,0,1,2444.674-591.174Z" transform="translate(-2417 620)"/></g></svg>