<svg xmlns="http://www.w3.org/2000/svg" width="19.857" height="21.748" viewBox="0 0 19.857 21.748"><defs><style>.a{fill:#252525;}</style></defs><g transform="translate(13)"><path class="a" d="M212.357,935.065H192.5l.133-.936c.466-3.261,3.568-6.629,6.862-6.629h6.1c3.294,0,6.163,3.367,6.629,6.629Z" transform="translate(-205.5 -913.316)"/><path class="a" d="M202.26,922.9h0a3.875,3.875,0,0,1-3.85-3.446l-.294-2.654a3.874,3.874,0,0,1,3.85-4.3h.59a3.874,3.874,0,0,1,3.849,4.3l-.294,2.654A3.875,3.875,0,0,1,202.26,922.9Z" transform="translate(-205.804 -912.5)"/></g></svg>