<svg xmlns="http://www.w3.org/2000/svg" width="31.75" height="23.75" viewBox="0 0 31.75 23.75"><defs><style>.a{fill:#ffeda3;}.b,.d{fill:#ffc93c;}.c{fill:#ffda79;}.d{stroke:#ffeda3;stroke-linecap:round;stroke-linejoin:round;stroke-width:1.5px;}</style></defs><g transform="translate(-42 -277.575)"><rect class="a" width="27.449" height="15.093" transform="translate(43.776 284.457)"/><path class="b" d="M29.45,4.5H1.55A1.561,1.561,0,0,0,0,6.071V21.779a1.561,1.561,0,0,0,1.55,1.571h27.9A1.561,1.561,0,0,0,31,21.779V6.071A1.561,1.561,0,0,0,29.45,4.5ZM2.325,20.993V17.852a3.121,3.121,0,0,1,3.1,3.142Zm0-11V6.856h3.1A3.121,3.121,0,0,1,2.325,10ZM15.5,18.637c-2.14,0-3.875-2.11-3.875-4.712S13.36,9.212,15.5,9.212s3.875,2.11,3.875,4.712S17.639,18.637,15.5,18.637Zm13.175,2.356h-3.1a3.121,3.121,0,0,1,3.1-3.142Zm0-11a3.121,3.121,0,0,1-3.1-3.142h3.1Z" transform="translate(42 277.975)"/><path class="c" d="M5.463,12.465a18.692,18.692,0,0,1-4.425-2.59A5.647,5.647,0,0,1,0,8.8V2.3A5.469,5.469,0,0,1,3.267.137L3.29.131A4.909,4.909,0,0,1,7.833,1.364a9.582,9.582,0,0,0,3.813,2.262C11.846,5.973,13.5,7.8,15.5,7.8s3.64-1.816,3.852-4.151a9.6,9.6,0,0,0,3.9-2.289A4.91,4.91,0,0,1,27.792.131l.022.006A5.354,5.354,0,0,1,31,2.227v6.52a5.755,5.755,0,0,1-1.082,1.128,18.71,18.71,0,0,1-4.358,2.59Zm20.111-2.331h3.1V7.027A3.1,3.1,0,0,0,25.575,10.134Zm-23.249,0h3.1a3.1,3.1,0,0,0-3.1-3.107Z" transform="translate(42 288.86)"/><g transform="translate(63.234 278.325)"><path class="d" d="M12.766,7.883A4.883,4.883,0,1,1,7.883,3a4.883,4.883,0,0,1,4.883,4.883Z" transform="translate(-3 -3)"/><path class="d" d="M18,9v2.956l1.971.985" transform="translate(-13.128 -7.059)"/></g></g></svg>