<svg xmlns="http://www.w3.org/2000/svg" width="26.447" height="19.835" viewBox="0 0 26.447 19.835"><defs><style>.a,.b{fill:#252525;}.a{fill-rule:evenodd;}</style></defs><g transform="translate(0 -4.5)"><path class="a" d="M24.794,21.029V11.112a1.653,1.653,0,0,0-1.653-1.653H21.2a4.959,4.959,0,0,1-3.5-1.453L16.328,6.637a1.653,1.653,0,0,0-1.166-.484H11.286a1.653,1.653,0,0,0-1.169.484L8.749,8.006A4.959,4.959,0,0,1,5.243,9.459H3.306a1.653,1.653,0,0,0-1.653,1.653v9.918a1.653,1.653,0,0,0,1.653,1.653H23.141A1.653,1.653,0,0,0,24.794,21.029ZM3.306,7.806A3.306,3.306,0,0,0,0,11.112v9.918a3.306,3.306,0,0,0,3.306,3.306H23.141a3.306,3.306,0,0,0,3.306-3.306V11.112a3.306,3.306,0,0,0-3.306-3.306H21.2a3.306,3.306,0,0,1-2.337-.969L17.5,5.468A3.306,3.306,0,0,0,15.161,4.5H11.286a3.306,3.306,0,0,0-2.337.969L7.581,6.838a3.306,3.306,0,0,1-2.338.968Z" transform="translate(0 0)"/><path class="a" d="M14.985,19.581a3.471,3.471,0,1,0-3.471-3.471A3.471,3.471,0,0,0,14.985,19.581Zm0,1.389a4.86,4.86,0,1,0-4.86-4.86A4.86,4.86,0,0,0,14.985,20.97Z" transform="translate(-1.761 -0.866)"/><path class="b" d="M6.153,14.326a.826.826,0,1,1-.826-.826A.826.826,0,0,1,6.153,14.326Z" transform="translate(-1.194 -2.388)"/></g></svg>