<svg xmlns="http://www.w3.org/2000/svg" width="24.337" height="23.326" viewBox="0 0 24.337 23.326"><defs><style>.a{fill:#707070;}.a,.b{stroke:#707070;stroke-linecap:round;stroke-linejoin:round;stroke-width:2px;}.b{fill:none;}</style></defs><g transform="translate(1 1.003)"><path class="a" d="M14.031,31.015A1.015,1.015,0,1,1,13.015,30,1.015,1.015,0,0,1,14.031,31.015Z" transform="translate(-4.893 -10.709)"/><path class="a" d="M30.531,31.015A1.015,1.015,0,1,1,29.515,30,1.015,1.015,0,0,1,30.531,31.015Z" transform="translate(-10.224 -10.709)"/><path class="b" d="M1.5,1.5H5.561L8.282,15.1a2.031,2.031,0,0,0,2.031,1.635h9.869A2.031,2.031,0,0,0,22.213,15.1l1.625-8.519H6.577" transform="translate(-1.5 -1.503)"/></g></svg>