<svg xmlns="http://www.w3.org/2000/svg" width="27" height="19.5" viewBox="0 0 27 19.5"><defs><style>.a,.c,.e{fill:none;}.a,.b,.c{stroke:#252525;}.b{fill:#fff;}.b,.c{stroke-linecap:round;stroke-linejoin:round;}.d{stroke:none;}</style></defs><g transform="translate(-25.5 -579)"><g transform="translate(-18 297.726)"><g class="a" transform="translate(44.561 281.274)"><rect class="d" width="22.879" height="3.093" rx="0.5"/><rect class="e" x="0.5" y="0.5" width="21.879" height="2.093"/></g><path class="a" d="M22.8,4.5H1.2A1.226,1.226,0,0,0,0,5.75v12.5A1.226,1.226,0,0,0,1.2,19.5H22.8A1.226,1.226,0,0,0,24,18.25V5.75A1.226,1.226,0,0,0,22.8,4.5ZM1.8,17.625v-2.5a2.451,2.451,0,0,1,2.4,2.5Zm0-8.75v-2.5H4.2A2.451,2.451,0,0,1,1.8,8.875ZM12,15.75c-1.657,0-3-1.679-3-3.75s1.343-3.75,3-3.75S15,9.929,15,12,13.656,15.75,12,15.75Zm10.2,1.875H19.8a2.451,2.451,0,0,1,2.4-2.5Zm0-8.75a2.451,2.451,0,0,1-2.4-2.5h2.4Z" transform="translate(44 279.774)"/><g transform="translate(61 291.274)"><path class="b" d="M12,7.5A4.5,4.5,0,1,1,7.5,3,4.5,4.5,0,0,1,12,7.5Z" transform="translate(-3 -3)"/></g></g><g transform="translate(46 596) rotate(-90)"><path class="c" d="M12.3,18H7.5" transform="translate(-7.298 -16.5)"/><path class="c" d="M19.674,7.5,18,9l1.674,1.5" transform="translate(-18 -7.5)"/></g></g></svg>