<svg xmlns="http://www.w3.org/2000/svg" width="22" height="22.5" viewBox="0 0 22 22.5"><defs><style>.a,.b{fill:#252525;}.b{stroke:#fff;}</style></defs><g transform="translate(-2.5 -2.5)"><path class="a" d="M22,13.25A1.25,1.25,0,1,1,20.75,12,1.25,1.25,0,0,1,22,13.25Z" transform="translate(-3.074 -1.85)"/><path class="a" d="M22,13.25A1.25,1.25,0,1,1,20.75,12,1.25,1.25,0,0,1,22,13.25Z" transform="translate(-7.18 -1.85)"/><path class="a" d="M22,13.25A1.25,1.25,0,1,1,20.75,12,1.25,1.25,0,0,1,22,13.25Z" transform="translate(-11.287 -1.85)"/><path class="b" d="M13.5,3C7.71,3,3,6.769,3,11.4c0,3.053,1.992,5.79,5.25,7.281V24l5.607-4.2C19.481,19.645,24,15.936,24,11.4,24,6.769,19.29,3,13.5,3Zm0,14.7h-.35l-2.8,2.1V17.262L9.677,17C6.855,15.916,5.1,13.769,5.1,11.4c0-3.474,3.768-6.3,8.4-6.3s8.4,2.826,8.4,6.3S18.132,17.7,13.5,17.7Z" transform="translate(0 0)"/></g></svg>