<svg xmlns="http://www.w3.org/2000/svg" width="20.016" height="22.202" viewBox="0 0 20.016 22.202"><defs><style>.a,.c{fill:#ffc93c;}.b{fill:#ffda79;}.c{stroke:#ffeda3;stroke-linecap:round;stroke-linejoin:round;}.d{fill:#ffeda3;}</style></defs><g transform="translate(-4.488 -3)"><path class="a" d="M7.83,3,4.5,7.44V22.982A2.22,2.22,0,0,0,6.72,25.2H22.262a2.22,2.22,0,0,0,2.22-2.22V7.44L21.152,3Z"/><path class="b" d="M-1891.788-1708.8a2.223,2.223,0,0,1-2.224-2.22v-4.652a4.357,4.357,0,0,1,.495-.145l.018,0a3.67,3.67,0,0,1,3.39.919,7.931,7.931,0,0,0,5.754,2.112,7.93,7.93,0,0,0,5.754-2.112,3.67,3.67,0,0,1,3.39-.919l.017,0a4.161,4.161,0,0,1,1.2.477v4.32a2.223,2.223,0,0,1-2.224,2.22Z" transform="translate(1898.5 1734)"/><path class="c" d="M4.5,9H18.507" transform="translate(2.987 -1.56)"/><path class="d" d="M97.931,196.9l-3.461-3.948a.361.361,0,0,0-.535-.01l-1.914,2.034a.355.355,0,0,0,.041.524c3.179,2.48,5.1,4.22,5.831,4.9a.362.362,0,0,0,.56-.086,24.957,24.957,0,0,1,8.163-8.715.352.352,0,0,0,.131-.459l0-.008a.36.36,0,0,0-.463-.157,20.938,20.938,0,0,0-7.794,5.914.361.361,0,0,1-.555.013" transform="translate(-84.679 -179.533)"/></g></svg>