<svg xmlns="http://www.w3.org/2000/svg" width="28.5" height="21.5" viewBox="0 0 28.5 21.5"><defs><style>.a{fill:#fff;stroke:#252525;}.b{stroke:none;}.c{fill:none;}</style></defs><g transform="translate(-25.5 -579.5)"><g transform="translate(23.75 573.25)"><path class="a" d="M28.25,8.655A1.887,1.887,0,0,0,26.393,6.75H4.107A1.887,1.887,0,0,0,2.25,8.655v2.858h26Z" transform="translate(0 0)"/><path class="a" d="M2.25,25.276a1.887,1.887,0,0,0,1.857,1.905H26.393a1.887,1.887,0,0,0,1.857-1.905V15.75h-26Zm8.241-2.858h9.518a.826.826,0,0,1,.813.834h0a.826.826,0,0,1-.812.834H10.491a.826.826,0,0,1-.812-.834h0A.826.826,0,0,1,10.491,22.418Zm-4.179,0h.7a.826.826,0,0,1,.813.834h0a.826.826,0,0,1-.812.834h-.7a.826.826,0,0,1-.812-.834h0A.826.826,0,0,1,6.313,22.418Z" transform="translate(0 -1.431)"/></g><g class="a" transform="translate(39 586)"><circle class="b" cx="7" cy="7" r="7"/><circle class="c" cx="7" cy="7" r="7.5"/></g><path class="a" d="M10.413,7.775a2.5,2.5,0,0,0,.02-.4c0-.14-.02-.26-.02-.4l.859-.66a.184.184,0,0,0,.041-.26l-.818-1.38a.2.2,0,0,0-.246-.08l-1.023.4a2.977,2.977,0,0,0-.7-.4l-.143-1.06a.219.219,0,0,0-.2-.16H6.546a.219.219,0,0,0-.2.16l-.164,1.06a3.464,3.464,0,0,0-.7.4l-1.023-.4a.192.192,0,0,0-.246.08L3.4,6.055a.242.242,0,0,0,.041.26l.88.66c0,.14-.02.26-.02.4s.02.26.02.4l-.859.66a.184.184,0,0,0-.041.26l.818,1.38a.2.2,0,0,0,.246.08l1.023-.4a2.977,2.977,0,0,0,.7.4l.164,1.06a.2.2,0,0,0,.2.16H8.2a.219.219,0,0,0,.2-.16l.164-1.06a3.462,3.462,0,0,0,.7-.4l1.023.4a.192.192,0,0,0,.246-.08l.818-1.38a.241.241,0,0,0-.041-.26Zm-3.048,1A1.4,1.4,0,1,1,8.8,7.375,1.407,1.407,0,0,1,7.365,8.775Z" transform="translate(38.625 585.625)"/></g></svg>