<svg xmlns="http://www.w3.org/2000/svg" width="23.034" height="23.096" viewBox="0 0 23.034 23.096"><defs><style>.a{fill:none;stroke:#707070;stroke-linecap:round;stroke-width:2px;}</style></defs><path class="a" d="M13.518-13785.291a2.506,2.506,0,0,1-.288-1.4v-4.885a1.231,1.231,0,0,0-.292-.97,1.908,1.908,0,0,0-1.037-.3H9.29a2.222,2.222,0,0,0-1.2.3,1.212,1.212,0,0,0-.292.97v4.885a2.547,2.547,0,0,1-.288,1.4,1.42,1.42,0,0,1-1.12.358H1.422a1.475,1.475,0,0,1-1.133-.358,2.373,2.373,0,0,1-.283-1.363v-7.395a4.183,4.183,0,0,1,.447-1.845c.452-.737.97-1.4.97-1.4l7.306-7.961a3.1,3.1,0,0,1,1.691-.758l.093,0,.093,0a3.084,3.084,0,0,1,1.687.758l7.306,7.961a16.128,16.128,0,0,1,.97,1.4,4.183,4.183,0,0,1,.447,1.845v7.395a2.357,2.357,0,0,1-.279,1.363,1.487,1.487,0,0,1-1.138.358H14.638a1.3,1.3,0,0,1-.144.007A1.273,1.273,0,0,1,13.518-13785.291Z" transform="translate(1.007 13807.015)"/></svg>