<svg xmlns="http://www.w3.org/2000/svg" width="23.117" height="21.672" viewBox="0 0 23.117 21.672"><g transform="translate(-2 -2)"><path d="M23.759,10H3.358A1.358,1.358,0,0,0,2,11.358V24.535a1.358,1.358,0,0,0,1.358,1.358h20.4a1.358,1.358,0,0,0,1.358-1.358V11.358A1.358,1.358,0,0,0,23.759,10Zm-.087,14.448H3.445v-13H23.672Z" transform="translate(0 -2.221)"/><path d="M7.727,17.784A2.167,2.167,0,1,0,5.56,15.617,2.167,2.167,0,0,0,7.727,17.784Zm0-3.323A1.156,1.156,0,1,1,6.6,15.617,1.156,1.156,0,0,1,7.727,14.461Z" transform="translate(-0.988 -3.179)"/><path d="M7.35,25.444l4.334-4.334,2.3,2.3-2.037,2.037H13.39l5.389-5.389,4.537,4.5V23.111l-4.19-4.168a.513.513,0,0,0-.722,0L14.675,22.67l-2.651-2.644a.513.513,0,0,0-.722,0L5.92,25.444Z" transform="translate(-1.088 -4.662)"/><path d="M23.478,2.722A.722.722,0,0,0,22.755,2H6.862a.722.722,0,0,0-.722.722v.722H23.478Z" transform="translate(-1.149)"/><path d="M24.347,6.722A.722.722,0,0,0,23.625,6H4.842a.722.722,0,0,0-.722.722v.722H24.347Z" transform="translate(-0.589 -1.11)"/></g></svg>