<svg xmlns="http://www.w3.org/2000/svg" xmlns:xlink="http://www.w3.org/1999/xlink" width="29" height="29" viewBox="0 0 29 29"><defs><style>.a{fill:url(#a);}.b{fill:#fff;}</style><linearGradient id="a" x1="0.5" x2="0.5" y2="1" gradientUnits="objectBoundingBox"><stop offset="0" stop-color="#45aaf2"/><stop offset="1" stop-color="#4b7bec"/></linearGradient></defs><g transform="translate(-141 -218)"><circle class="a" cx="14.5" cy="14.5" r="14.5" transform="translate(141 218)"/><path class="b" d="M5.91.374a.2.2,0,0,1,.36,0L8.039,4.048a.2.2,0,0,0,.093.093L11.806,5.91a.2.2,0,0,1,0,.36L8.133,8.039a.2.2,0,0,0-.093.093L6.27,11.806a.2.2,0,0,1-.36,0L4.141,8.133a.2.2,0,0,0-.093-.093L.374,6.27a.2.2,0,0,1,0-.36L4.048,4.141a.2.2,0,0,0,.093-.093Z" transform="translate(149.41 226.41)"/><path class="b" d="M2.82.374a.2.2,0,0,1,.36,0l.764,1.588a.2.2,0,0,0,.093.093l1.588.764a.2.2,0,0,1,0,.36l-1.588.764a.2.2,0,0,0-.093.093L3.18,5.626a.2.2,0,0,1-.36,0L2.055,4.038a.2.2,0,0,0-.093-.093L.374,3.18a.2.2,0,0,1,0-.36l1.588-.764a.2.2,0,0,0,.093-.093Z" transform="translate(159.09 223.91)"/></g></svg>