<svg xmlns="http://www.w3.org/2000/svg" xmlns:xlink="http://www.w3.org/1999/xlink" width="44" height="44" viewBox="0 0 44 44"><defs><style>.a{fill:url(#a);}.b{fill:#fff;}</style><linearGradient id="a" x1="0.5" x2="0.5" y2="1" gradientUnits="objectBoundingBox"><stop offset="0" stop-color="#4489db"/><stop offset="1" stop-color="#0a4ea0"/></linearGradient></defs><g transform="translate(-138 -342)"><circle class="a" cx="22" cy="22" r="22" transform="translate(138 342)"/><g transform="translate(144.989 359.975)"><g transform="translate(10.291 1.888)"><path class="b" d="M359.613,197.669a.407.407,0,0,1,.411-.408h.086a.431.431,0,0,1,.378.217l1.407,2.183,1.414-2.19a.411.411,0,0,1,.372-.21h.086a.408.408,0,0,1,.412.408v3.853a.4.4,0,0,1-.412.4.409.409,0,0,1-.4-.4V198.76l-1.135,1.69a.383.383,0,0,1-.684,0l-1.129-1.677v2.755a.4.4,0,0,1-.4.394.389.389,0,0,1-.4-.394Z" transform="translate(-359.613 -197.222)"/><path class="b" d="M390.514,201.192l1.726-3.813a.518.518,0,0,1,.491-.329h.04a.509.509,0,0,1,.485.329l1.726,3.813a.351.351,0,0,1,.047.171.381.381,0,0,1-.385.388.42.42,0,0,1-.4-.283l-.379-.861h-2.257l-.392.887a.393.393,0,0,1-.378.257.372.372,0,0,1-.378-.375A.412.412,0,0,1,390.514,201.192Zm3.04-1.3-.816-1.861-.817,1.861Z" transform="translate(-384.685 -197.05)"/><path class="b" d="M421.344,197.628a.408.408,0,0,1,.817,0v3.5h2.1a.368.368,0,1,1,0,.736h-2.509a.4.4,0,0,1-.412-.408Z" transform="translate(-409.786 -197.194)"/><path class="b" d="M445.065,197.628a.408.408,0,0,1,.817,0v3.5h2.1a.368.368,0,1,1,0,.736h-2.509a.4.4,0,0,1-.411-.408Z" transform="translate(-429.066 -197.194)"/></g><path class="b" d="M309.61,187.493a1.815,1.815,0,0,1,2.554,0,1.767,1.767,0,0,1,0,2.541l-.9.915,1.015,1.005a1.767,1.767,0,0,1,0,2.541,1.815,1.815,0,0,1-2.554,0l-1.015-1-.832.858a1.853,1.853,0,0,1-1.436.655,1.777,1.777,0,0,1-1.79-1.773V192.4Zm-4.959,4.494v-3.229a1.828,1.828,0,0,1,3.6-.35Z" transform="translate(-304.651 -186.968)"/><path class="b" d="M309.61,187.493a1.815,1.815,0,0,1,2.554,0,1.767,1.767,0,0,1,0,2.541l-.9.915,1.015,1.005a1.767,1.767,0,0,1,0,2.541,1.815,1.815,0,0,1-2.554,0l-1.015-1-.832.858a1.853,1.853,0,0,1-1.436.655,1.777,1.777,0,0,1-1.79-1.773V192.4Z" transform="translate(-304.651 -186.968)"/></g></g></svg>