<svg xmlns="http://www.w3.org/2000/svg" width="26" height="20" viewBox="0 0 26 20"><defs><style>.a,.b{fill:#fff;}.a{stroke:#000;}.c,.d{stroke:none;}.d{fill:#252525;}</style></defs><g transform="translate(-25.5 -578.5)"><path class="a" d="M22.917,2.25H2.083A2.06,2.06,0,0,0,0,4.286V19.214A2.06,2.06,0,0,0,2.083,21.25H22.917A2.06,2.06,0,0,0,25,19.214V4.286A2.06,2.06,0,0,0,22.917,2.25ZM7.639,6.321A2.715,2.715,0,1,1,4.861,9.036,2.749,2.749,0,0,1,7.639,6.321ZM12.5,16.364a.9.9,0,0,1-.972.814H3.75a.9.9,0,0,1-.972-.814V15.55a2.712,2.712,0,0,1,2.917-2.443h.217a4.567,4.567,0,0,0,3.455,0h.217A2.712,2.712,0,0,1,12.5,15.55Z" transform="translate(26 576.75)"/><g class="b" transform="translate(39.25 584.25)"><path class="c" d="M 2.702615976333618 8.570358276367188 L 3.135260105133057 6.418737888336182 C 3.20497989654541 6.072177886962891 3.084439992904663 5.71068811416626 2.82066011428833 5.475337982177734 L 1.160186052322388 3.993765354156494 L 3.465389966964722 3.717818021774292 C 3.802249908447266 3.677527904510498 4.093039989471436 3.471878051757812 4.243259906768799 3.167697906494141 L 5.249832153320312 1.129518032073975 L 5.249929428100586 1.129518032073975 L 6.256740093231201 3.167697906494141 C 6.406960010528564 3.471878051757812 6.697750091552734 3.677527904510498 7.034599781036377 3.717818021774292 L 9.339729309082031 3.993485927581787 L 7.67933988571167 5.475337982177734 C 7.415559768676758 5.71068811416626 7.29502010345459 6.072177886962891 7.364739894866943 6.418737888336182 L 7.79758882522583 8.570202827453613 L 5.71396017074585 7.4791579246521 C 5.571390151977539 7.404488086700439 5.410950183868408 7.365017890930176 5.25 7.365017890930176 C 5.089049816131592 7.365017890930176 4.928609848022461 7.404488086700439 4.786029815673828 7.479167938232422 L 2.702615976333618 8.570358276367188 Z"/><path class="d" d="M 5.249999523162842 2.258353710174561 L 4.691569805145264 3.389108180999756 C 4.466239929199219 3.845367908477783 4.030049800872803 4.153848171234131 3.524759769439697 4.214278221130371 L 2.319841384887695 4.358378410339355 L 3.153540134429932 5.102258205413818 C 3.549210071563721 5.455287933349609 3.730020046234131 5.997518062591553 3.625440120697021 6.51735782623291 L 3.39937162399292 7.64100456237793 L 4.554009914398193 7.036257743835449 C 4.767889976501465 6.924227714538574 5.008560180664062 6.865007877349854 5.25 6.865007877349854 C 5.491409778594971 6.865007877349854 5.732069969177246 6.92421817779541 5.945950031280518 7.036237716674805 L 7.100628852844238 7.641005516052246 L 6.874569892883301 6.51735782623291 C 6.769979953765869 5.997518062591553 6.950789928436279 5.455287933349609 7.346449851989746 5.102258205413818 L 8.180157661437988 4.35837459564209 L 6.9752197265625 4.214278221130371 C 6.469950199127197 4.153848171234131 6.033760070800781 3.845367908477783 5.808430194854736 3.389098167419434 L 5.249999523162842 2.258353710174561 M 5.25 0.6291751861572266 C 5.428292274475098 0.6291751861572266 5.606585025787354 0.7220430374145508 5.698309898376465 0.9077777862548828 L 6.705049991607666 2.946298122406006 C 6.779880046844482 3.097817897796631 6.926179885864258 3.201288223266602 7.093979835510254 3.221357822418213 L 9.399450302124023 3.497067928314209 C 9.827030181884766 3.548198223114014 9.994270324707031 4.079917907714844 9.67296028137207 4.366608142852783 L 8.01222038269043 5.848418235778809 C 7.879779815673828 5.966588020324707 7.819910049438477 6.14610767364502 7.854919910430908 6.320117950439453 L 8.287830352783203 8.471887588500977 C 8.370809555053711 8.88433837890625 7.938359260559082 9.208627700805664 7.565670013427734 9.013427734375 L 5.481979846954346 7.922088146209717 C 5.336690425872803 7.845987796783447 5.163309574127197 7.845987796783447 5.018020153045654 7.922088146209717 L 2.934329986572266 9.013427734375 C 2.56164026260376 9.208627700805664 2.129189491271973 8.88432788848877 2.212169647216797 8.471887588500977 L 2.645080089569092 6.320117950439453 C 2.680089950561523 6.14610767364502 2.620220184326172 5.966588020324707 2.48777961730957 5.848418235778809 L 0.8270397186279297 4.366608142852783 C 0.5057201385498047 4.079917907714844 0.6729698181152344 3.548198223114014 1.100549697875977 3.497067928314209 L 3.406020164489746 3.221357822418213 C 3.573820114135742 3.201288223266602 3.720119953155518 3.097817897796631 3.794950008392334 2.946298122406006 L 4.801690101623535 0.9077777862548828 C 4.893414974212646 0.7220430374145508 5.071707725524902 0.6291751861572266 5.25 0.6291751861572266 Z"/></g></g></svg>