<svg xmlns="http://www.w3.org/2000/svg" width="49.524" height="29.224" viewBox="0 0 49.524 29.224"><defs><style>.a{fill:#707070;}.b{fill:none;}.c,.d{stroke:none;}.d{fill:#707070;}</style></defs><g transform="translate(-163.476 -126)"><path class="a" d="M3.556-5,6.23-.91,8.918-5l.588,5H12L10.416-10.29,6.23-4.312,2.058-10.29.476,0H2.968ZM13.51-9.8V0H15.9l.014-9.8Zm9.856,0L21.8-6.958,20.286-9.8H17.36l3.01,4.774L17.01,0h2.926l1.848-3.262L23.576,0H26.5l-3.29-5.026L26.292-9.8ZM3.556,9,6.23,13.09,8.918,9l.588,5H12L10.416,3.71,6.23,9.688,2.058,3.71.476,14H2.968ZM15.05,12.11h5.18L20.076,10.3H15.218ZM17.612,7.8,19,10.976l-.084.6L20.09,14h2.688L17.612,3.584,12.46,14h2.674l1.218-2.52-.112-.518ZM21.84,6.314h2.688V14h2.366V6.314h2.7L29.582,4.2H21.84ZM32.424,9.1a2.855,2.855,0,0,1,.406-1.554,2.671,2.671,0,0,1,1.071-.98,3.2,3.2,0,0,1,1.463-.336A3.944,3.944,0,0,1,36.6,6.4a3.5,3.5,0,0,1,.952.476,5.3,5.3,0,0,1,.742.637V4.97A4.877,4.877,0,0,0,37,4.242a5.063,5.063,0,0,0-1.778-.266,6.266,6.266,0,0,0-2.17.364A4.742,4.742,0,0,0,30.24,7.014,5.36,5.36,0,0,0,29.848,9.1a5.36,5.36,0,0,0,.392,2.086,4.742,4.742,0,0,0,2.814,2.674,6.266,6.266,0,0,0,2.17.364A5.063,5.063,0,0,0,37,13.958a4.876,4.876,0,0,0,1.288-.728V10.682a4.972,4.972,0,0,1-.742.63,3.659,3.659,0,0,1-2.184.658,3.2,3.2,0,0,1-1.463-.336,2.656,2.656,0,0,1-1.071-.987A2.864,2.864,0,0,1,32.424,9.1Zm8.456.784L48.3,9.9l-.014-2.114L40.88,7.77ZM46.8,4.2V14h2.352l.014-9.8Zm-6.58,0V14h2.352l.014-9.8Z" transform="translate(163 141)"/><g class="b" transform="translate(194 128)"><path class="c" d="M5.549.936a.5.5,0,0,1,.9,0L7.874,3.892a.5.5,0,0,0,.234.234l2.957,1.424a.5.5,0,0,1,0,.9L8.108,7.874a.5.5,0,0,0-.234.234L6.451,11.064a.5.5,0,0,1-.9,0L4.126,8.108a.5.5,0,0,0-.234-.234L.936,6.451a.5.5,0,0,1,0-.9L3.892,4.126a.5.5,0,0,0,.234-.234Z"/><path class="d" d="M 6.000003337860107 3.457691192626953 L 5.477449893951416 4.543000221252441 C 5.281620025634766 4.949759960174561 4.949759960174561 5.281620025634766 4.543039798736572 5.477419853210449 L 3.457691192626953 5.999996662139893 L 4.543000221252441 6.522550106048584 C 4.949729919433594 6.718369960784912 5.281589984893799 7.050209999084473 5.477419853210449 7.456950187683105 L 6.000000476837158 8.542306900024414 L 6.522580146789551 7.456940174102783 C 6.718400001525879 7.050230026245117 7.050230026245117 6.718400001525879 7.456950187683105 6.522580146789551 L 8.542306900024414 5.999999523162842 L 7.456940174102783 5.477419853210449 C 7.050209999084473 5.281589984893799 6.718369960784912 4.949729919433594 6.522580146789551 4.543039798736572 L 6.000003337860107 3.457691192626953 M 6 0.6525650024414062 C 6.17981481552124 0.6525650024414062 6.359630107879639 0.7469301223754883 6.450500011444092 0.9356603622436523 L 7.874080181121826 3.892319679260254 C 7.923230171203613 3.994409561157227 8.005590438842773 4.076769828796387 8.107669830322266 4.125919818878174 L 11.06435012817383 5.549499988555908 C 11.44180011749268 5.731239795684814 11.44180011749268 6.268760204315186 11.06435012817383 6.450500011444092 L 8.107669830322266 7.874080181121826 C 8.005590438842773 7.923230171203613 7.923230171203613 8.005590438842773 7.874080181121826 8.107669830322266 L 6.450500011444092 11.06435012817383 C 6.268759727478027 11.44180011749268 5.731238842010498 11.44179916381836 5.549499988555908 11.06433963775635 L 4.125919818878174 8.107669830322266 C 4.076769828796387 8.005590438842773 3.994409561157227 7.923230171203613 3.892319679260254 7.874080181121826 L 0.9356603622436523 6.450500011444092 C 0.5581998825073242 6.268760204315186 0.5581998825073242 5.731239795684814 0.9356603622436523 5.549499988555908 L 3.892319679260254 4.125919818878174 C 3.994409561157227 4.076769828796387 4.076769828796387 3.994409561157227 4.125919818878174 3.892319679260254 L 5.549499988555908 0.9356603622436523 C 5.640369892120361 0.7469301223754883 5.82018518447876 0.6525650024414062 6 0.6525650024414062 Z"/></g><g class="b" transform="translate(205 126)"><path class="c" d="M3.82.374a.2.2,0,0,1,.36,0L5.27,2.637a.2.2,0,0,0,.093.093L7.626,3.82a.2.2,0,0,1,0,.36L5.363,5.27a.2.2,0,0,0-.093.093L4.18,7.626a.2.2,0,0,1-.36,0L2.73,5.363a.2.2,0,0,0-.093-.093L.374,4.18a.2.2,0,0,1,0-.36L2.637,2.73a.2.2,0,0,0,.093-.093Z"/><path class="d" d="M 4.000000953674316 2.305126190185547 L 3.631360054016113 3.070770263671875 C 3.513870239257812 3.314780235290527 3.314780235290527 3.513870239257812 3.070740222930908 3.631370067596436 L 2.305126190185547 3.999999523162842 L 3.070770263671875 4.368639945983887 C 3.314780235290527 4.486130237579346 3.513870239257812 4.685220241546631 3.631370067596436 4.92926025390625 L 3.999999046325684 5.694875717163086 L 4.368639945983887 4.929230213165283 C 4.486130237579346 4.685220241546631 4.685220241546631 4.486130237579346 4.92926025390625 4.368630409240723 L 5.694873809814453 4.000000953674316 L 4.929230213165283 3.631360054016113 C 4.685220241546631 3.513870239257812 4.486130237579346 3.314780235290527 4.368630409240723 3.070740222930908 L 4.000000953674316 2.305126190185547 M 3.999996662139893 0.2610254287719727 C 4.071922779083252 0.2610254287719727 4.143850326538086 0.2987704277038574 4.180200576782227 0.374260425567627 L 5.269630432128906 2.636930465698242 C 5.289290428161621 2.677760124206543 5.322240352630615 2.710710048675537 5.363070487976074 2.730370044708252 L 7.625740051269531 3.81980037689209 C 7.77672004699707 3.892490386962891 7.77672004699707 4.107510566711426 7.625740051269531 4.180200576782227 L 5.363070487976074 5.269630432128906 C 5.322240352630615 5.289290428161621 5.289290428161621 5.322240352630615 5.269630432128906 5.363070487976074 L 4.180200576782227 7.625740051269531 C 4.107500076293945 7.776720523834229 3.892490386962891 7.776719570159912 3.81980037689209 7.625740051269531 L 2.730370044708252 5.363070487976074 C 2.710710048675537 5.322240352630615 2.677760124206543 5.289290428161621 2.636930465698242 5.269630432128906 L 0.374260425567627 4.180200576782227 C 0.2232804298400879 4.107500076293945 0.2232804298400879 3.892490386962891 0.374260425567627 3.81980037689209 L 2.636930465698242 2.730370044708252 C 2.677760124206543 2.710710048675537 2.710710048675537 2.677760124206543 2.730370044708252 2.636930465698242 L 3.81980037689209 0.374260425567627 C 3.85614538192749 0.2987704277038574 3.928070068359375 0.2610254287719727 3.999996662139893 0.2610254287719727 Z"/></g></g></svg>