<svg xmlns="http://www.w3.org/2000/svg" width="23" height="23" viewBox="0 0 23 23"><defs><style>.a{fill:#ffeda3;stroke:#707070;}.b{fill:#ffc93c;}.c{fill:#ffda79;}.d{stroke:none;}.e{fill:none;}</style></defs><g transform="translate(-48 -283)"><g class="a" transform="translate(51 285)"><rect class="d" width="17" height="14"/><rect class="e" x="0.5" y="0.5" width="16" height="13"/></g><path class="b" d="M23.7,3H5.3A2.3,2.3,0,0,0,3.011,5.3L3,26l4.6-4.6H23.7A2.307,2.307,0,0,0,26,19.1V5.3A2.307,2.307,0,0,0,23.7,3ZM7.6,16.8V13.959l7.912-7.912a.569.569,0,0,1,.816,0l2.036,2.035a.569.569,0,0,1,0,.817L10.44,16.8Zm13.8,0H12.775l2.3-2.3H21.4Z" transform="translate(45 280)"/><path class="c" d="M-1980.147-1713.11l.005-9.521a5.255,5.255,0,0,1,.562-.163l.021-.005a4.4,4.4,0,0,1,4.059,1.1,8.1,8.1,0,0,0,.872.738l-.922.922v2.84h2.84l2.131-2.125a12.4,12.4,0,0,0,1.965.152l.212,0-1.975,1.975h8.625v-2.3h-4.034a8.7,8.7,0,0,0,4.057-2.2,4.4,4.4,0,0,1,4.059-1.1l.02.005q.257.059.5.141v7.754a2.307,2.307,0,0,1-2.3,2.3h-16.1l-1.15,1.15A17.88,17.88,0,0,1-1980.147-1713.11Z" transform="translate(2028.149 2014)"/></g></svg>