<svg xmlns="http://www.w3.org/2000/svg" width="22.686" height="22.686" viewBox="0 0 22.686 22.686"><defs><style>.a,.b{fill:#fff;}.a{stroke:#252525;}.b{stroke-linecap:round;stroke-linejoin:round;}.c,.e{stroke:none;}.d{fill:none;}.e{fill:#252525;}</style></defs><g transform="translate(-3)"><g class="a" transform="translate(3 0)"><rect class="c" width="10.513" height="10.26" rx="5.13"/><rect class="d" x="0.5" y="0.5" width="9.513" height="9.26" rx="4.63"/></g><g class="a" transform="translate(3 12.425)"><rect class="c" width="10.513" height="10.26" rx="5.13"/><rect class="d" x="0.5" y="0.5" width="9.513" height="9.26" rx="4.63"/></g><g class="a" transform="translate(15.172 0)"><rect class="c" width="10.513" height="10.26" rx="5.13"/><rect class="d" x="0.5" y="0.5" width="9.513" height="9.26" rx="4.63"/></g><g class="b" transform="translate(-393.209 -901.161)"><path class="c" d="M 413.6039428710938 923.3466796875 C 413.59912109375 923.3466796875 413.5977783203125 923.3451538085938 413.5960388183594 923.3431396484375 L 409.4821472167969 918.54345703125 L 409.420654296875 918.46142578125 C 409.0503540039062 917.9673461914062 408.9189758300781 917.3683471679688 409.0507507324219 916.774658203125 C 409.2232360839844 915.9985961914062 409.8560180664062 915.3741455078125 410.6253051757812 915.2208862304688 C 410.8302917480469 915.1799926757812 411.0263977050781 915.1593017578125 411.2082824707031 915.1593017578125 C 412.1112060546875 915.1593017578125 412.7442016601562 915.6746826171875 413.1434020996094 916.7349853515625 L 413.5974426269531 917.9408569335938 L 414.0756225585938 916.7443237304688 C 414.5078430175781 915.662841796875 415.1195678710938 915.1591186523438 416.0007629394531 915.1591186523438 C 416.1812438964844 915.1591186523438 416.376953125 915.1798706054688 416.5824584960938 915.2208862304688 C 417.3518371582031 915.3741455078125 417.9846496582031 915.9985961914062 418.1572570800781 916.7748413085938 C 418.2888793945312 917.368408203125 418.1575012207031 917.9674072265625 417.7872009277344 918.4613647460938 L 417.7256774902344 918.54345703125 L 413.6117858886719 923.34326171875 C 413.6102600097656 923.3450317382812 413.6088256835938 923.3466796875 413.6039428710938 923.3466796875 Z"/><path class="e" d="M 416.0007629394531 915.6591186523438 C 415.5295104980469 915.6591186523438 414.9874572753906 915.8101196289062 414.5399169921875 916.9298706054688 C 414.3880004882812 917.3099975585938 414.0200500488281 917.5587768554688 413.6114196777344 917.5587768554688 C 413.6080322265625 917.5587768554688 413.6046447753906 917.5587768554688 413.6012878417969 917.5587158203125 C 413.1886291503906 917.5545654296875 412.8208923339844 917.29736328125 412.6754760742188 916.9111328125 C 412.2577209472656 915.8016357421875 411.6719055175781 915.6593017578125 411.2081298828125 915.6593017578125 C 411.0591430664062 915.6593017578125 410.8959655761719 915.6767578125 410.7229919433594 915.7112426757812 C 410.1448974609375 915.826416015625 409.6690368652344 916.2974243164062 409.5388488769531 916.8829956054688 C 409.4111328125 917.45849609375 409.6216430664062 917.8958740234375 409.8207397460938 918.1614990234375 C 409.8326416015625 918.1774291992188 409.8440551757812 918.193603515625 409.8549194335938 918.2100219726562 L 413.6039733886719 922.5840454101562 L 417.3529052734375 918.2100830078125 C 417.3638000488281 918.193603515625 417.3752136230469 918.1774291992188 417.3871459960938 918.1614990234375 C 417.5862121582031 917.8959350585938 417.7967224121094 917.45849609375 417.6691589355469 916.8833618164062 C 417.5388793945312 916.2974243164062 417.0629272460938 915.826416015625 416.4846801757812 915.7112426757812 C 416.311279296875 915.6766357421875 416.1484680175781 915.6591186523438 416.0007629394531 915.6591186523438 M 416.0007629394531 914.6591186523438 C 416.2118835449219 914.6591186523438 416.43798828125 914.6822509765625 416.6802368164062 914.7305297851562 C 417.6490478515625 914.9235229492188 418.430908203125 915.7020874023438 418.6453247070312 916.6663208007812 C 418.822021484375 917.4629516601562 418.6109619140625 918.1961059570312 418.1872863769531 918.7612915039062 L 418.197509765625 918.7612915039062 L 413.9914245605469 923.6686401367188 C 413.7876892089844 923.9061279296875 413.4201354980469 923.9060668945312 413.2165222167969 923.6686401367188 L 409.0103454589844 918.7612915039062 L 409.0205688476562 918.7612915039062 C 408.596923828125 918.1961059570312 408.3858032226562 917.4629516601562 408.5626220703125 916.6663208007812 C 408.7769470214844 915.7020874023438 409.5588073730469 914.9235229492188 410.5276184082031 914.7305297851562 C 412.1654052734375 914.4039306640625 413.1119995117188 915.2325439453125 413.611328125 916.5587768554688 C 414.0640563964844 915.426025390625 414.7842102050781 914.6591186523438 416.0007629394531 914.6591186523438 Z"/></g></g></svg>