<svg xmlns="http://www.w3.org/2000/svg" width="28.325" height="19.752" viewBox="0 0 28.325 19.752"><defs><style>.a{fill:#ffc93d;}.b{fill:#ffda79;}.c{fill:#ffeda3;stroke:#ffc93d;stroke-linecap:round;stroke-linejoin:round;stroke-width:1.5px;}</style></defs><g transform="translate(-47.814 -286.637)"><path class="a" d="M24.8,12.411h-.633V9.871A1.268,1.268,0,0,0,22.906,8.6h-1.9L16.7,3.2a2.529,2.529,0,0,0-1.977-.953H10.248A1.268,1.268,0,0,0,8.983,3.52v8.891H.755c-.35,0-3.318.284-3.318.635v1.27a.634.634,0,0,0,.633.635H2.718a4.432,4.432,0,1,0,8.733,0H14.11a4.432,4.432,0,1,0,8.733,0H24.8a.634.634,0,0,0,.633-.635v-1.27A.634.634,0,0,0,24.8,12.411ZM11.514,4.79h3.213L17.765,8.6H11.514Zm-4.43,12.7a1.905,1.905,0,1,1,1.9-1.905A1.9,1.9,0,0,1,7.084,17.492Zm11.392,0a1.905,1.905,0,1,1,1.9-1.905A1.9,1.9,0,0,1,18.476,17.492Z" transform="translate(50.702 286.358)"/><path class="b" d="M11.118,9.436ZM5.215,8.5a4.454,4.454,0,0,1-.254-1.486,4.435,4.435,0,0,1,.065-.638H2.346a4.4,4.4,0,0,1,.065.638c0,.047,0,.094,0,.14a11.7,11.7,0,0,1-1-.712A3.737,3.737,0,0,1,2.49,0h2.4A3.2,3.2,0,0,1,6,.7,7.175,7.175,0,0,0,11.2,2.616a7.808,7.808,0,0,0,3.955-.968V3.824H15.8a.637.637,0,0,1,.637.637V5.736a.637.637,0,0,1-.637.637H13.82a4.4,4.4,0,0,1,.065.638,4.44,4.44,0,0,1-.653,2.325c-.664.064-1.367.1-2.113.1v-.1h0v.1A17.9,17.9,0,0,1,5.215,8.5Zm2.3-1.486A1.912,1.912,0,1,0,9.423,5.1,1.914,1.914,0,0,0,7.51,7.012Z" transform="translate(59.706 294.916)"/><g transform="translate(48.564 287.387)"><path class="c" d="M6.3,3,4.5,5.406v8.422a1.2,1.2,0,0,0,1.2,1.2h8.422a1.2,1.2,0,0,0,1.2-1.2V5.406L13.523,3Z" transform="translate(-4.5 -3)"/><path class="c" d="M4.5,9H15.328" transform="translate(-4.5 -6.594)"/><path class="c" d="M16.812,15A2.406,2.406,0,1,1,12,15" transform="translate(-8.992 -10.188)"/></g></g></svg>