<svg xmlns="http://www.w3.org/2000/svg" width="18.381" height="11.815" viewBox="0 0 18.381 11.815"><defs><style>.a{fill:#26de81;}</style></defs><path class="a" d="M99.354,198.311l-4.28-4.883a.447.447,0,0,0-.662-.012l-2.368,2.516a.439.439,0,0,0,.051.648c3.932,3.067,6.314,5.22,7.212,6.059a.448.448,0,0,0,.692-.106,30.87,30.87,0,0,1,10.1-10.78.435.435,0,0,0,.162-.568.076.076,0,0,0,0-.01.446.446,0,0,0-.573-.195,25.9,25.9,0,0,0-9.64,7.314.447.447,0,0,1-.686.016" transform="translate(-91.924 -190.943)"/></svg>