<svg xmlns="http://www.w3.org/2000/svg" width="16" height="23" viewBox="0 0 16 23"><defs><style>.a,.b{fill:#fff;}.b{stroke:#252525;}.c{fill:#252525;}.d,.e{stroke:none;}.e{fill:#252525;}.f{fill:none;}</style></defs><g transform="translate(-195.24 -95.829)"><g class="a" transform="translate(195.24 95.829)"><path class="d" d="M 8 20.66507148742676 C 7.331493377685547 19.89758110046387 5.857930183410645 18.16078567504883 4.400100231170654 16.14145469665527 C 1.848629951477051 12.60724449157715 0.5 9.828313827514648 0.5 8.105073928833008 C 0.5 3.911624193191528 3.864490032196045 0.5000042319297791 8 0.5000042319297791 C 12.13551044464111 0.5000042319297791 15.5 3.911624193191528 15.5 8.105073928833008 C 15.5 9.828313827514648 14.15137004852295 12.60724449157715 11.5999002456665 16.14145469665527 C 10.14206981658936 18.16078567504883 8.668506622314453 19.89758110046387 8 20.66507148742676 Z"/><path class="e" d="M 8 1.000003814697266 C 4.140190124511719 1.000003814697266 1 4.187324523925781 1 8.105073928833008 C 1 9.698254585266113 2.349630355834961 12.44578456878662 4.800270080566406 15.84155464172363 C 6.016726493835449 17.52714729309082 7.245351791381836 19.01545333862305 8 19.89933776855469 C 8.754665374755859 19.01543426513672 9.983274459838867 17.52714729309082 11.19972991943359 15.84155464172363 C 13.65036964416504 12.44578456878662 15 9.698254585266113 15 8.105073928833008 C 15 4.187324523925781 11.85980987548828 1.000003814697266 8 1.000003814697266 M 8 3.814697265625e-06 C 12.41827964782715 3.814697265625e-06 16 3.628765106201172 16 8.105073928833008 C 16 12.58138465881348 8 21.42060470581055 8 21.42060470581055 C 8 21.42060470581055 0 12.58138465881348 0 8.105073928833008 C 0 3.628765106201172 3.581720352172852 3.814697265625e-06 8 3.814697265625e-06 Z"/></g><g class="b" transform="translate(199.679 100.372)"><ellipse class="d" cx="3.561" cy="3.47" rx="3.561" ry="3.47"/><ellipse class="f" cx="3.561" cy="3.47" rx="3.061" ry="2.97"/></g><g transform="translate(200.123 116.87)"><path class="c" d="M3.117,1.913a7.389,7.389,0,0,1-2.2-.3,2.249,2.249,0,0,1-.668-.324A.521.521,0,0,1,0,.894.425.425,0,0,1,.118.616,1.175,1.175,0,0,1,.45.367,4.072,4.072,0,0,1,1.625,0,2.652,2.652,0,0,0,.833.309a.534.534,0,0,0-.3.412.456.456,0,0,0,.2.344,1.829,1.829,0,0,0,.553.281A5.859,5.859,0,0,0,3.117,1.6a5.859,5.859,0,0,0,1.825-.259A1.829,1.829,0,0,0,5.5,1.065.456.456,0,0,0,5.7.721.534.534,0,0,0,5.4.309,2.652,2.652,0,0,0,4.609,0,4.072,4.072,0,0,1,5.785.367a1.175,1.175,0,0,1,.332.249.425.425,0,0,1,.118.278.521.521,0,0,1-.245.4,2.249,2.249,0,0,1-.668.324A7.388,7.388,0,0,1,3.117,1.913Z" transform="translate(0 0.047)"/><path class="c" d="M1.859,1.361A3.773,3.773,0,0,1,.544,1.15C.193,1.014,0,.834,0,.642A.488.488,0,0,1,.284.26,2.277,2.277,0,0,1,1.022,0C.683.114.489.287.489.474c0,.33.614.6,1.369.6S3.228.8,3.228.474c0-.187-.194-.36-.533-.474a2.277,2.277,0,0,1,.739.26.488.488,0,0,1,.284.382c0,.192-.193.372-.544.508A3.773,3.773,0,0,1,1.859,1.361Z" transform="translate(1.259)"/></g></g></svg>