<svg xmlns="http://www.w3.org/2000/svg" width="27" height="12" viewBox="0 0 27 12"><defs><style>.a{fill:none;}.b{fill:#fff;}.c{fill:#252525;}.d,.e{stroke:none;}.e{fill:#000;}</style></defs><g transform="translate(-26 -583)"><g class="a" transform="translate(36.5 578.5)"><path class="d" d="M10.5,10.5a3,3,0,1,0-3-3A3.009,3.009,0,0,0,10.5,10.5Zm0,1.5c-1.987,0-6,1.013-6,3v1.5h12V15C16.5,13.013,12.487,12,10.5,12Z"/><path class="e" d="M 10.5 5.5 C 9.397199630737305 5.5 8.5 6.397199630737305 8.5 7.5 C 8.5 8.602800369262695 9.397199630737305 9.5 10.5 9.5 C 11.6028003692627 9.5 12.5 8.602800369262695 12.5 7.5 C 12.5 6.397199630737305 11.6028003692627 5.5 10.5 5.5 M 10.5 13 C 9.669179916381836 13 8.303919792175293 13.2111701965332 7.126700401306152 13.68295001983643 C 6.123319625854492 14.08506011962891 5.5 14.58971977233887 5.5 15 L 5.5 15.5 L 15.5 15.5 L 15.5 15 C 15.5 14.58971977233887 14.87668037414551 14.08506011962891 13.87330055236816 13.68295001983643 C 12.69608020782471 13.2111701965332 11.33082008361816 13 10.5 13 M 10.5 4.5 C 12.15015983581543 4.5 13.5 5.850029945373535 13.5 7.5 C 13.5 9.149970054626465 12.15015983581543 10.5 10.5 10.5 C 8.84984016418457 10.5 7.5 9.149970054626465 7.5 7.5 C 7.5 5.850029945373535 8.84984016418457 4.5 10.5 4.5 Z M 10.5 12 C 12.48744010925293 12 16.5 13.01255989074707 16.5 15 L 16.5 16.5 L 4.5 16.5 L 4.5 15 C 4.5 13.01255989074707 8.51255989074707 12 10.5 12 Z"/></g><g class="b" transform="translate(21.5 578.5)"><path class="d" d="M 16 16 L 5 16 L 5 15 C 5 14.12693023681641 6.215909957885742 13.50928974151611 6.940710067749023 13.21883010864258 C 8.179780006408691 12.72227001190186 9.621170043945312 12.5 10.5 12.5 C 11.37882995605469 12.5 12.82021999359131 12.72227001190186 14.05928993225098 13.21883010864258 C 14.78409004211426 13.50928974151611 16 14.12693023681641 16 15 L 16 16 Z M 10.5 10 C 9.121500015258789 10 8 8.878499984741211 8 7.5 C 8 6.121500015258789 9.121500015258789 5 10.5 5 C 11.87849998474121 5 13 6.121500015258789 13 7.5 C 13 8.878499984741211 11.87849998474121 10 10.5 10 Z"/><path class="e" d="M 10.5 5.5 C 9.397199630737305 5.5 8.5 6.397199630737305 8.5 7.5 C 8.5 8.602800369262695 9.397199630737305 9.5 10.5 9.5 C 11.6028003692627 9.5 12.5 8.602800369262695 12.5 7.5 C 12.5 6.397199630737305 11.6028003692627 5.5 10.5 5.5 M 10.5 13 C 9.669179916381836 13 8.303919792175293 13.2111701965332 7.126700401306152 13.68295001983643 C 6.123319625854492 14.08506011962891 5.5 14.58971977233887 5.5 15 L 5.5 15.5 L 15.5 15.5 L 15.5 15 C 15.5 14.58971977233887 14.87668037414551 14.08506011962891 13.87330055236816 13.68295001983643 C 12.69608020782471 13.2111701965332 11.33082008361816 13 10.5 13 M 10.5 4.5 C 12.15015983581543 4.5 13.5 5.850029945373535 13.5 7.5 C 13.5 9.149970054626465 12.15015983581543 10.5 10.5 10.5 C 8.84984016418457 10.5 7.5 9.149970054626465 7.5 7.5 C 7.5 5.850029945373535 8.84984016418457 4.5 10.5 4.5 Z M 10.5 12 C 12.48744010925293 12 16.5 13.01255989074707 16.5 15 L 16.5 16.5 L 4.5 16.5 L 4.5 15 C 4.5 13.01255989074707 8.51255989074707 12 10.5 12 Z"/></g><path class="c" d="M3-.31a.482.482,0,0,1-.54-.55V-2.35H1a.464.464,0,0,1-.53-.52A.464.464,0,0,1,1-3.39H2.46V-4.82A.482.482,0,0,1,3-5.37a.482.482,0,0,1,.54.55v1.43H5a.464.464,0,0,1,.53.52A.464.464,0,0,1,5-2.35H3.54V-.86A.482.482,0,0,1,3-.31Z" transform="translate(36.5 591.84)"/></g></svg>