<svg xmlns="http://www.w3.org/2000/svg" width="23" height="23" viewBox="0 0 23 23"><defs><style>.a{fill:#fff;}.b,.c{stroke:none;}.c{fill:#000;}</style></defs><g class="a" transform="translate(-3.375 -3.375)"><path class="b" d="M 17.2564868927002 25.8746337890625 L 12.55161571502686 25.8746337890625 C 12.47588539123535 25.8746337890625 12.46133041381836 25.84741592407227 12.45534801483154 25.82345581054688 L 11.98728656768799 22.79118347167969 L 11.94407653808594 22.51125335693359 L 11.68175601959229 22.40440368652344 C 11.01196575164795 22.13157272338867 10.3443660736084 21.74772262573242 9.801926612854004 21.32355308532715 L 9.577336311340332 21.14792251586914 L 9.311816215515137 21.25177383422852 L 6.371236324310303 22.40181350708008 L 6.352646350860596 22.40907287597656 L 6.346445560455322 22.41208839416504 C 6.321516990661621 22.4113597869873 6.297019004821777 22.40219497680664 6.284651279449463 22.39418601989746 L 6.277575969696045 22.38224220275879 L 3.925136089324951 18.41458320617676 L 3.923266172409058 18.41142272949219 L 3.921346187591553 18.40830230712891 C 3.898125648498535 18.37041473388672 3.893590688705444 18.34747886657715 3.892717838287354 18.33928871154785 C 3.895306825637817 18.3363037109375 3.900211572647095 18.33147048950195 3.908116102218628 18.32568359375 L 3.912816286087036 18.32224273681641 L 3.917436122894287 18.31869316101074 L 6.387026309967041 16.42132377624512 L 6.582406044006348 16.27121353149414 L 6.582406044006348 16.02483367919922 C 6.582406044006348 15.80395317077637 6.566726207733154 15.60406303405762 6.551566123962402 15.41075325012207 C 6.537286281585693 15.22861289978027 6.523796081542969 15.05657291412354 6.523796081542969 14.87485313415527 C 6.523796081542969 14.69312286376953 6.537286281585693 14.52108287811279 6.551566123962402 14.33894348144531 C 6.566726207733154 14.14563274383545 6.582406044006348 13.94574356079102 6.582406044006348 13.72487354278564 L 6.582406044006348 13.4749231338501 L 6.382466316223145 13.32492351531982 L 3.89653491973877 11.45986557006836 C 3.877989768981934 11.42452716827393 3.867938280105591 11.34836769104004 3.87929630279541 11.31253147125244 L 6.218306064605713 7.367463111877441 L 6.226276397705078 7.354002952575684 L 6.231579303741455 7.343634605407715 C 6.2353835105896 7.34133243560791 6.245280742645264 7.337343215942383 6.261266231536865 7.337343215942383 C 6.276926040649414 7.337343215942383 6.294216156005859 7.34099292755127 6.312666416168213 7.348173141479492 L 9.252486228942871 8.497933387756348 L 9.504046440124512 8.596323013305664 L 9.724236488342285 8.439852714538574 C 10.45655632019043 7.919463157653809 11.04215621948242 7.581892967224121 11.62302589416504 7.345303058624268 L 11.88535594940186 7.238462924957275 L 11.92856597900391 6.958523273468018 L 12.39311599731445 3.949068546295166 C 12.4069128036499 3.921700954437256 12.44981384277344 3.875073194503784 12.49289608001709 3.875073194503784 L 17.1977653503418 3.875073194503784 C 17.23978233337402 3.875073194503784 17.28161239624023 3.919350385665894 17.29650497436523 3.946974754333496 L 17.70219612121582 6.949203014373779 L 17.740966796875 7.236093044281006 L 18.00907707214355 7.345303058624268 C 18.67876625061035 7.618093013763428 19.34637641906738 8.001953125 19.88892555236816 8.426173210144043 L 20.11351585388184 8.601773262023926 L 20.37902641296387 8.497933387756348 L 23.31955528259277 7.347893238067627 L 23.33811569213867 7.340632915496826 L 23.34432601928711 7.337616443634033 C 23.36924171447754 7.338340282440186 23.39373588562012 7.34749174118042 23.40611267089844 7.355491638183594 L 23.41320610046387 7.367463111877441 L 25.7656364440918 11.33512306213379 L 25.76752662658691 11.33831310272217 L 25.76946640014648 11.34147357940674 C 25.79266929626465 11.37931156158447 25.79720878601074 11.40221691131592 25.7980785369873 11.41039943695068 C 25.79548454284668 11.41338729858398 25.79057502746582 11.41822910308838 25.78265571594238 11.42402267456055 L 25.77795600891113 11.42746353149414 L 25.77333641052246 11.4310131072998 L 23.30379676818848 13.32838344573975 L 23.10842704772949 13.47849273681641 L 23.10842704772949 13.72487354278564 C 23.10842704772949 13.94574356079102 23.12410545349121 14.14563274383545 23.13926696777344 14.33894348144531 C 23.15354537963867 14.52108287811279 23.16703605651855 14.69312286376953 23.16703605651855 14.87485313415527 C 23.16703605651855 15.24999332427979 23.16703605651855 15.63791275024414 23.1154956817627 15.9410228729248 L 23.06373596191406 16.24545288085938 L 23.31276702880859 16.42804336547852 L 25.85355758666992 18.29112434387207 C 25.87177848815918 18.32693862915039 25.88162040710449 18.40154647827148 25.87043380737305 18.43667221069336 L 23.53113555908203 22.38224220275879 L 23.52318572998047 22.39565277099609 L 23.51786994934082 22.40604591369629 C 23.51408195495605 22.40835380554199 23.50418472290039 22.41236305236816 23.48816680908203 22.41236305236816 C 23.47250556945801 22.412353515625 23.45522689819336 22.40872383117676 23.43680572509766 22.40154266357422 L 20.49688529968262 21.25176239013672 L 20.24519538879395 21.15333366394043 L 20.02496528625488 21.30997276306152 C 19.29444694519043 21.82958221435547 18.70903587341309 22.16713333129883 18.1268367767334 22.40445327758789 L 17.86467552185059 22.51131248474121 L 17.82144546508789 22.79109382629395 L 17.35634613037109 25.80059432983398 C 17.34255027770996 25.82796859741211 17.29961585998535 25.8746337890625 17.2564868927002 25.8746337890625 Z M 14.84538650512695 10.34991359710693 C 12.25657653808594 10.34991359710693 10.22866630554199 12.33750343322754 10.22866630554199 14.87485313415527 C 10.22866630554199 17.41220283508301 12.25657653808594 19.39979362487793 14.84538650512695 19.39979362487793 C 17.43423652648926 19.39979362487793 19.46216583251953 17.41220283508301 19.46216583251953 14.87485313415527 C 19.46216583251953 12.33750343322754 17.43423652648926 10.34991359710693 14.84538650512695 10.34991359710693 Z"/><path class="c" d="M 16.91623497009277 25.3746337890625 L 17.41378593444824 22.15517234802246 L 17.93810653686523 21.94144248962402 C 18.48312568664551 21.71927261352539 19.03735542297363 21.39886283874512 19.73516654968262 20.90253257751465 L 20.17561531066895 20.58924293518066 L 23.29062461853027 21.8075008392334 L 25.26411056518555 18.47892761230469 L 22.51905632019043 16.46606254577637 L 22.6225757598877 15.85721302032471 C 22.66703605651855 15.595703125 22.66703605651855 15.22924327850342 22.66703605651855 14.87485313415527 C 22.66703605651855 14.7126932144165 22.6542854309082 14.55014324188232 22.64079666137695 14.37803268432617 C 22.6256160736084 14.18458271026611 22.60842704772949 13.96532344818115 22.60842704772949 13.72487354278564 L 22.60842704772949 13.23211288452148 L 25.15090370178223 11.27870082855225 L 23.17269706726074 7.94221305847168 L 20.03011703491211 9.171273231506348 L 19.58093643188477 8.820053100585938 C 19.07377624511719 8.423502922058105 18.44855690002441 8.064203262329102 17.82045555114746 7.80836296081543 L 17.28423690795898 7.589942932128906 L 16.84981727600098 4.375072956085205 L 12.83327102661133 4.375072956085205 L 12.3362865447998 7.594673156738281 L 11.81163597106934 7.808372974395752 C 11.26792621612549 8.029823303222656 10.71347618103027 8.350282669067383 10.01385593414307 8.847433090209961 L 9.573486328125 9.16036319732666 L 6.458816051483154 7.942206859588623 L 4.482969760894775 11.27474880218506 L 7.082406044006348 13.22497272491455 L 7.082406044006348 13.72487354278564 C 7.082406044006348 13.96532344818115 7.065216064453125 14.18458271026611 7.050035953521729 14.37803268432617 C 7.036546230316162 14.55014324188232 7.023796081542969 14.7126932144165 7.023796081542969 14.87485313415527 C 7.023796081542969 15.03700351715088 7.036546230316162 15.19956302642822 7.050035953521729 15.37166309356689 C 7.065216064453125 15.56511306762695 7.082406044006348 15.78438282012939 7.082406044006348 16.02483367919922 L 7.082406044006348 16.51760292053223 L 4.539864063262939 18.47101402282715 L 6.518078327178955 21.80749893188477 L 9.660746574401855 20.57842254638672 L 10.10992622375488 20.92967224121094 C 10.61697578430176 21.3261833190918 11.24218654632568 21.68546295166016 11.87037658691406 21.94134330749512 L 12.39501571655273 22.15505218505859 L 12.89199066162109 25.3746337890625 L 16.91623497009277 25.3746337890625 M 14.84538650512695 9.849913597106934 C 17.7146053314209 9.849913597106934 19.96216583251953 12.05713272094727 19.96216583251953 14.87485313415527 C 19.96216583251953 17.69257354736328 17.7146053314209 19.89979362487793 14.84538650512695 19.89979362487793 C 11.9761962890625 19.89979362487793 9.728666305541992 17.69257354736328 9.728666305541992 14.87485313415527 C 9.728666305541992 12.05713272094727 11.9761962890625 9.849913597106934 14.84538650512695 9.849913597106934 M 17.2564868927002 26.3746337890625 L 12.55161571502686 26.3746337890625 C 12.25753593444824 26.3746337890625 12.02262592315674 26.2022533416748 11.96351623535156 25.91475296020508 L 11.49313640594482 22.86746406555176 C 10.78732585906982 22.57996368408203 10.08202648162842 22.17730331420898 9.493926048278809 21.71742248535156 L 6.553346157073975 22.86746406555176 C 6.317875385284424 22.98196029663086 5.965246200561523 22.86746215820312 5.847486019134521 22.63724327087402 L 3.495046138763428 18.66958236694336 C 3.318796157836914 18.38202285766602 3.377286195755005 18.09458351135254 3.612816095352173 17.92220306396484 L 6.082406044006348 16.02483367919922 C 6.082406044006348 15.62223339080811 6.023796081542969 15.27745342254639 6.023796081542969 14.87485313415527 C 6.023796081542969 14.472243309021 6.082406044006348 14.12747287750244 6.082406044006348 13.72487354278564 L 3.553486108779907 11.82756328582764 C 3.377126216888428 11.65512275695801 3.318626165390015 11.30979347229004 3.435776233673096 11.0801830291748 L 5.788216114044189 7.112462997436523 C 5.905926704406738 6.882243156433105 6.199996948242188 6.767744064331055 6.494076251983643 6.882243156433105 L 9.434606552124023 8.032282829284668 C 10.08185577392578 7.572343349456787 10.72855663299561 7.169743061065674 11.43441581726074 6.882243156433105 L 11.90480613708496 3.83495306968689 C 11.96340656280518 3.605293035507202 12.19887638092041 3.375073194503784 12.49289608001709 3.375073194503784 L 17.1977653503418 3.375073194503784 C 17.49184608459473 3.375073194503784 17.72731590270996 3.605293035507202 17.78591537475586 3.83495306968689 L 18.19769668579102 6.882243156433105 C 18.90350532531738 7.169743061065674 19.60875701904297 7.572402954101562 20.19690704345703 8.032282829284668 L 23.13743591308594 6.882243156433105 C 23.37295532226562 6.767741680145264 23.72558784484863 6.882243633270264 23.84329605102539 7.112462997436523 L 26.19572639465332 11.08012294769287 C 26.37203598022461 11.36768341064453 26.31348609924316 11.65512275695801 26.07796669006348 11.8275032043457 L 23.60842704772949 13.72487354278564 C 23.60842704772949 14.12747287750244 23.66703605651855 14.472243309021 23.66703605651855 14.87485313415527 C 23.66703605651855 15.27745342254639 23.66703605651855 15.68011283874512 23.60842704772949 16.02483367919922 L 26.19589614868164 17.92214393615723 C 26.37226676940918 18.09458351135254 26.43136596679688 18.43991279602051 26.31365585327148 18.66952323913574 L 23.96122550964355 22.63724327087402 C 23.84345626831055 22.86746215820312 23.54939270019531 22.98195838928223 23.2553653717041 22.86746406555176 L 20.31477546691895 21.71742248535156 C 19.66813659667969 22.1773624420166 19.02087593078613 22.57996368408203 18.31557655334473 22.86746406555176 L 17.84463691711426 25.91475296020508 C 17.78602600097656 26.14441299438477 17.55055618286133 26.3746337890625 17.2564868927002 26.3746337890625 Z M 14.84538650512695 10.84991359710693 C 12.55155658721924 10.84991359710693 10.72866630554199 12.63210296630859 10.72866630554199 14.87485313415527 C 10.72866630554199 17.11759376525879 12.55155658721924 18.89979362487793 14.84538650512695 18.89979362487793 C 17.13921546936035 18.89979362487793 18.96216583251953 17.11759376525879 18.96216583251953 14.87485313415527 C 18.96216583251953 12.63210296630859 17.13921546936035 10.84991359710693 14.84538650512695 10.84991359710693 Z"/></g></svg>