<svg xmlns="http://www.w3.org/2000/svg" width="18" height="23" viewBox="0 0 18 23"><defs><style>.a,.b{fill:none;}.b{stroke-linecap:round;stroke-linejoin:round;}.c,.d{stroke:none;}.d{fill:#252525;}</style></defs><g transform="translate(-30 -577)"><g class="a" transform="translate(30 577)"><path class="c" d="M14.143,6.4V5.122a5.143,5.143,0,0,0-10.286,0V6.4H0V19.8A3.208,3.208,0,0,0,3.214,23H14.786A3.208,3.208,0,0,0,18,19.8V6.4ZM6.429,5.122a2.571,2.571,0,0,1,5.143,0V6.4H6.429Z"/><path class="d" d="M 9 1 C 6.715620040893555 1 4.857139587402344 2.84929084777832 4.857139587402344 5.122379302978516 L 4.857139587402344 7.402970314025879 L 1 7.402970314025879 L 1 19.79851913452148 C 1 21.01242065429688 1.993330001831055 22 3.214289665222168 22 L 14.78571033477783 22 C 16.00666999816895 22 17 21.01242065429688 17 19.79851913452148 L 17 7.402970314025879 L 13.14286041259766 7.402970314025879 L 13.14286041259766 5.122379302978516 C 13.14286041259766 2.84929084777832 11.28437995910645 1 9 1 M 12.57143020629883 7.402970314025879 L 5.428569793701172 7.402970314025879 L 5.428569793701172 5.122379302978516 C 5.428569793701172 3.158729553222656 7.030710220336914 1.561189651489258 9 1.561189651489258 C 10.96928977966309 1.561189651489258 12.57143020629883 3.158729553222656 12.57143020629883 5.122379302978516 L 12.57143020629883 7.402970314025879 M 9 0 C 11.83576011657715 0 14.14286041259766 2.297870635986328 14.14286041259766 5.122379302978516 L 14.14286041259766 6.402969360351562 L 18 6.402969360351562 L 18 19.79851913452148 C 18 21.56665992736816 16.56092071533203 23 14.78571033477783 23 L 3.214289665222168 23 C 1.439079284667969 23 0 21.56665992736816 0 19.79851913452148 L 0 6.402969360351562 L 3.857139587402344 6.402969360351562 L 3.857139587402344 5.122379302978516 C 3.857139587402344 2.297870635986328 6.164199829101562 0 9 0 Z M 11.57143020629883 6.402969360351562 L 11.57143020629883 5.122379302978516 C 11.57143020629883 3.710119247436523 10.41790008544922 2.561189651489258 9 2.561189651489258 C 7.582099914550781 2.561189651489258 6.428569793701172 3.710119247436523 6.428569793701172 5.122379302978516 L 6.428569793701172 6.402969360351562 L 11.57143020629883 6.402969360351562 Z"/></g><g class="b" transform="translate(-374.016 -326.601)"><path class="c" d="M410.294,914.722a2.259,2.259,0,0,0-1.739,1.713,2.236,2.236,0,0,0,.405,1.854h-.009l3.722,4.342a.452.452,0,0,0,.686,0l3.722-4.342h-.009a2.236,2.236,0,0,0,.405-1.854,2.259,2.259,0,0,0-1.739-1.713,2.222,2.222,0,0,0-2.716,1.618A2.224,2.224,0,0,0,410.294,914.722Z"/><path class="d" d="M 415.1370544433594 915.6591796875 C 414.7395935058594 915.6591796875 414.3208618164062 915.78662109375 413.9513549804688 916.711181640625 C 413.7994689941406 917.0912475585938 413.4314575195312 917.340087890625 413.0228271484375 917.340087890625 C 413.0194702148438 917.340087890625 413.0160827636719 917.340087890625 413.0127258300781 917.3400268554688 C 412.6000366210938 917.3358764648438 412.2322998046875 917.0786743164062 412.0869140625 916.6924438476562 C 411.744140625 915.7821044921875 411.292724609375 915.6593627929688 410.8962707519531 915.6593017578125 C 410.77197265625 915.6593017578125 410.6351623535156 915.6740112304688 410.489501953125 915.7030639648438 C 410.0220031738281 915.7962036132812 409.6370544433594 916.1776123046875 409.5316162109375 916.6519165039062 C 409.4280700683594 917.118408203125 409.5990600585938 917.4734497070312 409.7607421875 917.6891479492188 C 409.7711791992188 917.7030029296875 409.7811889648438 917.7171630859375 409.7908020019531 917.7314453125 L 413.0162353515625 921.49462890625 L 416.2416076660156 917.7314453125 C 416.251220703125 917.7171630859375 416.2612609863281 917.7030029296875 416.2716674804688 917.6890869140625 C 416.433349609375 917.4734497070312 416.6043395996094 917.118408203125 416.5009460449219 916.6522827148438 C 416.3954162597656 916.1776733398438 416.0104064941406 915.7962036132812 415.542724609375 915.7030639648438 C 415.396728515625 915.6739501953125 415.26025390625 915.6591796875 415.1370544433594 915.6591796875 M 415.1370544433594 914.6591796875 C 415.3238525390625 914.6591796875 415.5239562988281 914.6796264648438 415.73828125 914.7223510742188 C 416.5955505371094 914.8931274414062 417.2873840332031 915.58203125 417.4771118164062 916.4352416992188 C 417.6334533691406 917.14013671875 417.4466857910156 917.7888793945312 417.0718078613281 918.2889404296875 L 417.0808410644531 918.2889404296875 L 413.3591003417969 922.6312255859375 C 413.1788330078125 922.8412475585938 412.8536682128906 922.8413696289062 412.6734008789062 922.6312255859375 L 408.9515686035156 918.2889404296875 L 408.9606018066406 918.2889404296875 C 408.5857543945312 917.7888793945312 408.39892578125 917.14013671875 408.5553894042969 916.4352416992188 C 408.7450256347656 915.58203125 409.4368591308594 914.8931274414062 410.2941284179688 914.7223510742188 C 411.7434997558594 914.4332275390625 412.5809326171875 915.1665649414062 413.0227661132812 916.340087890625 C 413.42333984375 915.3377685546875 414.0605773925781 914.6591796875 415.1370544433594 914.6591796875 Z"/></g></g></svg>