<svg xmlns="http://www.w3.org/2000/svg" xmlns:xlink="http://www.w3.org/1999/xlink" width="65" height="65" viewBox="0 0 65 65"><defs><style>.a,.b{fill:#fff;}.a{stroke:#707070;}.c{clip-path:url(#c);}.d{clip-path:url(#d);}.e{fill:#012169;}.f{fill:#c8102e;}.g{filter:url(#a);}</style><filter id="a" x="0" y="0" width="65" height="65" filterUnits="userSpaceOnUse"><feOffset dy="2" input="SourceAlpha"/><feGaussianBlur stdDeviation="5" result="b"/><feFlood flood-opacity="0.161"/><feComposite operator="in" in2="b"/><feComposite in="SourceGraphic"/></filter><clipPath id="c"><circle class="a" cx="17.5" cy="17.5" r="17.5"/></clipPath><clipPath id="d"><path d="M0,0V35.225H48.643V0Z" transform="translate(0 -5.451)"/></clipPath></defs><g transform="translate(-5 -384)"><g class="g" transform="matrix(1, 0, 0, 1, 5, 384)"><circle class="b" cx="17.5" cy="17.5" r="17.5" transform="translate(15 13)"/></g><g class="c" transform="translate(20 397)"><g class="d" transform="translate(-6.821 5.339)"><path class="e" d="M0,0V35.225H48.643V0Z" transform="translate(0 -5.451)"/><path class="b" d="M-3858.247-6148.395l-22.89,11.445-2.863-5.729,18.593-9.3-18.593-9.3,2.863-5.728,22.89,11.443,22.89-11.443,2.864,5.728-18.594,9.3,18.594,9.3-2.864,5.729Z" transform="translate(3882.568 6164.135)"/><path class="f" d="M-3858.723-6150.542l-23.366,11.683-1.91-3.818,20.5-10.251-20.5-10.252,1.91-3.818,23.366,11.683,23.366-11.683,1.909,3.818-20.5,10.252,20.5,10.251-1.908,3.818Z" transform="translate(3883.045 6165.089)"/><path class="b" d="M-3865.015-6135.595V-6149.5H-3884v-10.673h18.985v-13.352h10.674v13.352h18.984v10.673h-18.984v13.907Z" transform="translate(3884 6166.999)"/><path d="M24.322,0V24.322M0,12.161H48.643"/><path class="f" d="M-3862.88-6135.348v-16.288H-3884v-6.4h21.12v-15.587h6.4v15.587h21.118v6.4h-21.118v16.288Z" transform="translate(3884 6166.999)"/></g></g></g></svg>