<svg xmlns="http://www.w3.org/2000/svg" width="22.836" height="25.621" viewBox="0 0 22.836 25.621"><defs><style>.a{fill:#dadada;}</style></defs><path class="a" d="M21.794,5.164a.585.585,0,0,1-.292-.077,14.41,14.41,0,0,0-7.068-1.806A14.409,14.409,0,0,0,7.366,5.087.643.643,0,0,1,6.5,4.831a.652.652,0,0,1,.254-.871,16.011,16.011,0,0,1,15.329-.013.63.63,0,0,1,.266.858.621.621,0,0,1-.558.359ZM3.635,11.89a.657.657,0,0,1-.368-.115.643.643,0,0,1-.152-.9A13.158,13.158,0,0,1,7.874,6.689a14.524,14.524,0,0,1,13.083-.013,13.207,13.207,0,0,1,4.759,4.163.645.645,0,0,1-.152.9.629.629,0,0,1-.888-.154,11.946,11.946,0,0,0-4.3-3.766,13.258,13.258,0,0,0-11.928.013A12.073,12.073,0,0,0,4.13,11.621a.552.552,0,0,1-.495.269Zm7.931,15.462a.593.593,0,0,1-.444-.192,12.938,12.938,0,0,1-2.551-3.382,11.459,11.459,0,0,1-1.332-5.56,7.058,7.058,0,0,1,7.182-6.9,7.058,7.058,0,0,1,7.182,6.9.634.634,0,1,1-1.269,0,5.781,5.781,0,0,0-5.913-5.624,5.781,5.781,0,0,0-5.913,5.624,10.113,10.113,0,0,0,1.18,4.932,12.113,12.113,0,0,0,2.348,3.1.662.662,0,0,1,0,.91.693.693,0,0,1-.47.192Zm9.1-2.37a6.789,6.789,0,0,1-6.954-6.764.634.634,0,1,1,1.269,0,5.495,5.495,0,0,0,5.685,5.47,8.31,8.31,0,0,0,1.32-.128.643.643,0,0,1,.216,1.268A8.586,8.586,0,0,1,20.665,24.982Zm-2.551,2.639a.736.736,0,0,1-.165-.026,9.878,9.878,0,0,1-4.72-2.69,9.392,9.392,0,0,1-2.754-6.687,3.911,3.911,0,0,1,7.817,0,2.644,2.644,0,0,0,5.279,0,8.988,8.988,0,0,0-9.2-8.75,9.254,9.254,0,0,0-8.388,5.163,8.308,8.308,0,0,0-.749,3.587,12.839,12.839,0,0,0,.85,4.625.631.631,0,1,1-1.18.448,14.393,14.393,0,0,1-.926-5.073,9.7,9.7,0,0,1,.863-4.151,10.521,10.521,0,0,1,9.53-5.893A10.266,10.266,0,0,1,24.839,18.205a3.911,3.911,0,0,1-7.817,0,2.566,2.566,0,0,0-2.639-2.485,2.566,2.566,0,0,0-2.639,2.485,8.106,8.106,0,0,0,2.373,5.778,8.609,8.609,0,0,0,4.149,2.37.637.637,0,0,1,.444.781A.62.62,0,0,1,18.114,27.621Z" transform="translate(-2.997 -2)"/></svg>