<svg xmlns="http://www.w3.org/2000/svg" xmlns:xlink="http://www.w3.org/1999/xlink" width="102" height="108.08" viewBox="0 0 102 108.08"><defs><style>.a{fill:#f0f5fb;}.b{fill:url(#a);}.c{fill:url(#b);}.d{fill:url(#c);}.e{fill:#c5223e;}.f{fill:url(#d);}.g{fill:url(#e);}.h{fill:#ee9a2b;}.i{fill:url(#f);}.j{fill:rgba(255,255,255,0.25);}</style><linearGradient id="a" x1="0.956" y1="0.953" x2="0.128" y2="0.043" gradientUnits="objectBoundingBox"><stop offset="0" stop-color="#394f6b"/><stop offset="1" stop-color="#4b6584"/></linearGradient><linearGradient id="b" x1="0.523" y1="1.003" x2="0.519" y2="0.025" gradientUnits="objectBoundingBox"><stop offset="0" stop-color="#ffae51"/><stop offset="1" stop-color="#ffd466"/></linearGradient><linearGradient id="c" x1="0.497" y1="0.97" x2="0.497" y2="0.005" xlink:href="#a"/><linearGradient id="d" x1="0.825" y1="0.872" x2="0.524" y2="-0.064" gradientUnits="objectBoundingBox"><stop offset="0" stop-color="#eb3b5a"/><stop offset="1" stop-color="#fc5c65"/></linearGradient><linearGradient id="e" x1="0.735" y1="0.932" x2="0.539" y2="0.171" gradientUnits="objectBoundingBox"><stop offset="0" stop-color="#ffd4d7"/><stop offset="1" stop-color="#fff"/></linearGradient><linearGradient id="f" x1="0.708" y1="1.055" x2="0.375" y2="0.057" gradientUnits="objectBoundingBox"><stop offset="0" stop-color="#fce6ae"/><stop offset="1" stop-color="#fff2d3"/></linearGradient></defs><g transform="translate(-115.45 -159.25)"><g transform="translate(115.45 161.839)"><path class="a" d="M217.45,224.81a56.245,56.245,0,0,0-.608-8.359,48.718,48.718,0,0,0-14.348-27.782q-1.85-1.854-3.746-3.458a51.767,51.767,0,0,0-5.185-3.834,51.394,51.394,0,0,0-59.439,3.834q-1.922,1.6-3.755,3.458a53.491,53.491,0,0,0-7.509,9.389,48.927,48.927,0,0,0-7.384,25.13q-.027.806-.027,1.622a55.458,55.458,0,0,0,.3,5.85,48.138,48.138,0,0,0,6.356,19.656,53.077,53.077,0,0,0,8.26,10.616,51.18,51.18,0,0,0,63.193,7.284,52.981,52.981,0,0,0,8.931-7.284A49.21,49.21,0,0,0,217.45,224.81Z" transform="translate(-115.45 -173.7)"/></g><g transform="translate(138.353 159.25)"><path class="b" d="M296.821,161.714a8.012,8.012,0,0,0-5.927-2.464H251.935a8.4,8.4,0,0,0-8.385,8.394v91.273a8.387,8.387,0,0,0,8.385,8.412h38.958a8.387,8.387,0,0,0,8.385-8.412V167.644A8.074,8.074,0,0,0,296.821,161.714Z" transform="translate(-243.55 -159.25)"/></g><g transform="translate(142.349 163.944)"><g transform="translate(0 0)"><path class="c" d="M312.108,187.036a5.087,5.087,0,0,0-3.755-1.586h-4.371a1.5,1.5,0,0,0-1.484,1.5,2.29,2.29,0,0,1-.7,1.693,2.195,2.195,0,0,1-1.672.717h-20.7a2.446,2.446,0,0,1-2.387-2.41,1.458,1.458,0,0,0-.429-1.057,1.417,1.417,0,0,0-1.055-.439h-4.345a5.039,5.039,0,0,0-3.746,1.586,5.175,5.175,0,0,0-1.573,3.808v87.914a5.264,5.264,0,0,0,1.573,3.834,5.053,5.053,0,0,0,3.746,1.577h37.135a5.1,5.1,0,0,0,3.755-1.577,5.3,5.3,0,0,0,1.555-3.834V190.843a5.2,5.2,0,0,0-1.555-3.808m-30.689,91.13a1.184,1.184,0,0,1,.787-.278h15.287a1.084,1.084,0,0,1,.76.278,1.108,1.108,0,0,1,.331.8.991.991,0,0,1-.331.744,1.015,1.015,0,0,1-.76.314H282.206a1.1,1.1,0,0,1-.787-.314,1.032,1.032,0,0,1-.3-.744A1.159,1.159,0,0,1,281.419,278.165Z" transform="translate(-265.9 -185.45)"/><path class="d" d="M352.091,701.35a1.184,1.184,0,0,0-.787.278,1.159,1.159,0,0,0-.3.8,1.032,1.032,0,0,0,.3.744,1.1,1.1,0,0,0,.787.314h15.287a1.015,1.015,0,0,0,.76-.314.991.991,0,0,0,.331-.744,1.108,1.108,0,0,0-.331-.8,1.084,1.084,0,0,0-.76-.278Z" transform="translate(-335.785 -608.912)"/></g></g><g transform="translate(148.446 185.132)"><g transform="translate(0 0)"><path class="e" d="M335.123,382.488q0-.26-.009-.538a6.248,6.248,0,0,1-6.2,5.671H305.033a4.848,4.848,0,0,1-3.558-1.487,4.794,4.794,0,0,1-1.439-3.019,4.207,4.207,0,0,0-.036.538,5.042,5.042,0,0,0,5.033,5.053h23.886a6.218,6.218,0,0,0,6.2-6.217Z" transform="translate(-300 -367.929)"/><path class="f" d="M315.3,304.99a7.167,7.167,0,0,0-2.619,3.279,5.713,5.713,0,0,0-7.482,5.026h-.17A5.042,5.042,0,0,0,300,318.348a3.935,3.935,0,0,0,.036.538,4.794,4.794,0,0,0,1.439,3.019,4.848,4.848,0,0,0,3.558,1.487h23.886a6.248,6.248,0,0,0,6.2-5.671q.009-.278.009-.555a6.145,6.145,0,0,0-.957-3.333,6.254,6.254,0,0,0-2.485-2.24l.018-.188a3.865,3.865,0,0,0-3.844-3.834,3.859,3.859,0,0,0-1.824.457,7.3,7.3,0,0,0-6.642-4.327,6.96,6.96,0,0,0-4.085,1.29m2.02,11.3a.342.342,0,0,0,.572-.009,18.857,18.857,0,0,1,6.758-5.214.312.312,0,0,1,.232,0,.261.261,0,0,1,.2.278.277.277,0,0,1-.08.2,23.252,23.252,0,0,0-7.232,7.749.28.28,0,0,1-.474.045q-.742-.69-1.484-1.335-1.734-1.514-3.549-2.93-.322-.251.018-.573l1.555-1.639q.3-.269.554.081Z" transform="translate(-300 -303.7)"/><path class="g" d="M373.513,349.911a.342.342,0,0,1-.572.009l-2.932-3.351q-.259-.349-.554-.081l-1.555,1.639q-.34.323-.018.573,1.815,1.415,3.549,2.93.742.645,1.484,1.335a.28.28,0,0,0,.474-.045,23.253,23.253,0,0,1,7.232-7.749.277.277,0,0,0,.08-.2.261.261,0,0,0-.2-.278.312.312,0,0,0-.232,0A18.858,18.858,0,0,0,373.513,349.911Z" transform="translate(-355.616 -337.333)"/></g></g><g transform="translate(155.853 211.866)"><path class="h" d="M395.095,478.9l-.045-.009a3.087,3.087,0,0,0,1.323.573,1.384,1.384,0,0,0,1.332-.269l8.957-10.115q.375-.4.232-.717-.116-.287-1.35-.788v.018a.781.781,0,0,1,.1.116l.063.063a.771.771,0,0,1-.241.726l-8.957,10.1a1.184,1.184,0,0,1-.921.439h-.045a.874.874,0,0,1-.447-.134m5.453-23.257a1.292,1.292,0,0,0-.4-.959,4.747,4.747,0,0,0-1.475-.833,1.408,1.408,0,0,1,.268.224,1.326,1.326,0,0,1,.393.959v9.335h.018V466.1a1.381,1.381,0,0,0,.4.985,1.311,1.311,0,0,0,.965.394h.063a1.343,1.343,0,0,1-.223-.753v-1.747h-.009Z" transform="translate(-385.463 -453.68)"/><path class="i" d="M354.637,453.07a1.436,1.436,0,0,0-.7-.17h-4.756a1.36,1.36,0,0,0-1.377,1.353v11.064a1.381,1.381,0,0,1-.4.986,1.352,1.352,0,0,1-.983.394h-4.255q-.563,0-.7.3t.232.726l8.948,10.1a1.1,1.1,0,0,0,.3.269.052.052,0,0,1,.036.018l.009.009h.018l.045.009a.873.873,0,0,0,.447.134h.045a1.184,1.184,0,0,0,.921-.439l8.957-10.1a.771.771,0,0,0,.241-.726l-.063-.063a.784.784,0,0,0-.1-.116,1.043,1.043,0,0,0-.545-.116h-4.282a1.311,1.311,0,0,1-.965-.394,1.381,1.381,0,0,1-.4-.986v-1.729H355.3v-9.335a1.326,1.326,0,0,0-.393-.959A1.411,1.411,0,0,0,354.637,453.07Z" transform="translate(-341.429 -452.9)"/></g><g transform="translate(142.349 163.918)"><g transform="translate(0)"><path class="j" d="M308.354,284.045a5.1,5.1,0,0,0,3.764-1.586,5.275,5.275,0,0,0,1.555-3.834V265.849l-13.159,18.2h7.84m3.764-97.159a5.116,5.116,0,0,0-3.764-1.586h-4.362a1.411,1.411,0,0,0-1.037.43,1.444,1.444,0,0,0-.456,1.066,2.324,2.324,0,0,1-.688,1.693,2.226,2.226,0,0,1-1.672.708h-9.413L265.9,223.357v55.267a5.58,5.58,0,0,0,3,4.909l44.769-61.924v-30.9A5.245,5.245,0,0,0,312.117,186.886Z" transform="translate(-265.9 -185.3)"/></g></g></g></svg>