<svg xmlns="http://www.w3.org/2000/svg" width="141.813" height="163.677" viewBox="0 0 141.813 163.677"><defs><style>.a{fill:#cacaca;}.b{fill:#fff;}</style></defs><g transform="translate(-116.594 -190.044)"><path class="a" d="M-6953.781,4359.552a28.467,28.467,0,0,1-22.349-11.294,35.992,35.992,0,0,1-7.233-25.125l.024-.181,8.313-72.585c1.06-11.648,9.841-20.4,20.483-20.4h5.143a67.969,67.969,0,0,1,5.523-13.48c7.429-13.482,18.3-20.607,31.458-20.607s24.014,7.138,31.359,20.644a67.752,67.752,0,0,1,5.426,13.443h5c10.628,0,19.424,8.771,20.479,20.415l8.332,72.756a35.933,35.933,0,0,1-7.224,25.125,28.489,28.489,0,0,1-22.349,11.294Zm-7.526-107.883-.01.183-8.322,72.563a22.079,22.079,0,0,0,4.356,15.341,14.771,14.771,0,0,0,11.5,6.017h82.382a14.815,14.815,0,0,0,11.5-6.017,22.034,22.034,0,0,0,4.347-15.341l-8.332-72.746c-.391-4.444-3.346-7.922-6.755-7.922h-83.905C-6957.947,4243.747-6960.922,4247.225-6961.308,4251.669Zm71.188-21.707c-3.043-8.376-9.611-20.305-22.3-20.305-12.786,0-19.414,11.917-22.5,20.305Z" transform="translate(7100.094 -4005.831)"/><path class="a" d="M65.264,6.572C57.528-.02,46.022,1.165,38.921,8.492L36.14,11.358,33.359,8.492C26.273,1.165,14.753-.02,7.017,6.572a20.271,20.271,0,0,0-1.4,29.349L32.936,64.127a4.426,4.426,0,0,0,6.395,0L66.647,35.921A20.258,20.258,0,0,0,65.264,6.572Z" transform="translate(151.361 254.63)"/><path class="b" d="M-6897.211,340.172a2.917,2.917,0,0,1,2.918-2.918,2.919,2.919,0,0,1,2.92,2.918,2.922,2.922,0,0,1-2.92,2.922A2.92,2.92,0,0,1-6897.211,340.172Zm.809-8.808a2.9,2.9,0,0,1,1.886-3.691c1.788-.594,6.909-2.969,6.909-5.985a5.861,5.861,0,0,0-4.958-5.765,5.967,5.967,0,0,0-6.636,3.815,3,3,0,0,1-3.805,1.785,2.9,2.9,0,0,1-1.822-3.721,11.935,11.935,0,0,1,13.275-7.631,11.718,11.718,0,0,1,9.915,11.521c0,2.372-1.008,5.86-5.806,8.987a24.378,24.378,0,0,1-5.185,2.53,3.065,3.065,0,0,1-.943.152A2.978,2.978,0,0,1-6896.4,331.364Z" transform="translate(7080.821 -36.202)"/></g></svg>