<svg xmlns="http://www.w3.org/2000/svg" width="144" height="144" viewBox="0 0 144 144"><defs><style>.a,.b{fill:#fff;stroke:#fa751d;}.a{stroke-width:2px;opacity:0.25;}.b{stroke-width:3px;}.c{fill:#fa751d;}.d{stroke:none;}.e{fill:none;}</style></defs><g transform="translate(-116 -74)"><g class="a" transform="translate(116 74)"><circle class="d" cx="72" cy="72" r="72"/><circle class="e" cx="72" cy="72" r="71"/></g><g class="b" transform="translate(130 88)"><circle class="d" cx="58" cy="58" r="58"/><circle class="e" cx="58" cy="58" r="56.5"/></g><path class="c" d="M56.719,11.043a1.672,1.672,0,0,1-.834-.22,41.185,41.185,0,0,0-20.2-5.162,41.181,41.181,0,0,0-20.2,5.162,1.836,1.836,0,0,1-2.466-.732,1.863,1.863,0,0,1,.725-2.49,45.76,45.76,0,0,1,43.81-.037,1.8,1.8,0,0,1,.762,2.453,1.776,1.776,0,0,1-1.6,1.025ZM4.822,30.265a1.877,1.877,0,0,1-1.052-.33,1.837,1.837,0,0,1-.435-2.563A37.6,37.6,0,0,1,16.935,15.4a41.509,41.509,0,0,1,37.391-.037,37.745,37.745,0,0,1,13.6,11.9,1.842,1.842,0,0,1-.435,2.563,1.8,1.8,0,0,1-2.539-.439A34.142,34.142,0,0,0,52.657,18.622a37.891,37.891,0,0,0-34.09.037A34.5,34.5,0,0,0,6.236,29.5a1.577,1.577,0,0,1-1.414.769ZM27.488,74.456a1.694,1.694,0,0,1-1.269-.549,36.976,36.976,0,0,1-7.29-9.666,32.75,32.75,0,0,1-3.808-15.89c0-10.874,9.212-19.734,20.527-19.734s20.527,8.86,20.527,19.734a1.813,1.813,0,1,1-3.627,0c0-8.86-7.58-16.073-16.9-16.073s-16.9,7.213-16.9,16.073a28.9,28.9,0,0,0,3.373,14.1,34.619,34.619,0,0,0,6.709,8.86,1.893,1.893,0,0,1,0,2.6,1.979,1.979,0,0,1-1.342.549Zm26-6.773A19.4,19.4,0,0,1,33.617,48.352a1.813,1.813,0,1,1,3.627,0A15.7,15.7,0,0,0,53.491,63.985a23.748,23.748,0,0,0,3.772-.366,1.838,1.838,0,0,1,.617,3.625A24.538,24.538,0,0,1,53.491,67.683ZM46.2,75.225a2.1,2.1,0,0,1-.471-.073,28.23,28.23,0,0,1-13.491-7.689,26.844,26.844,0,0,1-7.87-19.112,10.984,10.984,0,0,1,11.17-10.764,10.984,10.984,0,0,1,11.17,10.764,7.557,7.557,0,0,0,15.087,0c0-13.8-11.787-25.006-26.293-25.006A26.449,26.449,0,0,0,11.531,38.1a23.744,23.744,0,0,0-2.14,10.252,36.7,36.7,0,0,0,2.43,13.217A1.8,1.8,0,1,1,8.448,62.85,41.134,41.134,0,0,1,5.8,48.352,27.729,27.729,0,0,1,8.267,36.489,30.068,30.068,0,0,1,35.5,19.647c16.5,0,29.92,12.851,29.92,28.668a11.178,11.178,0,0,1-22.34,0,7.334,7.334,0,0,0-7.543-7.1A7.334,7.334,0,0,0,28,48.315a23.168,23.168,0,0,0,6.782,16.512A24.6,24.6,0,0,0,46.637,71.6a1.819,1.819,0,0,1,1.269,2.233A1.773,1.773,0,0,1,46.2,75.225Z" transform="translate(151.87 107.387)"/></g></svg>