<svg xmlns="http://www.w3.org/2000/svg" width="191.262" height="64.106" viewBox="0 0 191.262 64.106">
  <g id="Group_26" data-name="Group 26" transform="translate(-64 -190.943)">
    <g id="Group_2" data-name="Group 2" transform="translate(80.767 198.636)">
      <rect id="Rectangle_1" data-name="Rectangle 1" width="5.894" height="30.258" transform="translate(80.372)" fill="#55585b"/>
      <rect id="Rectangle_2" data-name="Rectangle 2" width="5.894" height="21.94" transform="translate(0 8.319)" fill="#55585b"/>
      <path id="Path_1" data-name="Path 1" d="M137.329,242.046a13.864,13.864,0,0,1-4.7-2.344l2.077-4.89a13.8,13.8,0,0,0,4.043,2.124,14.387,14.387,0,0,0,4.684.8,7.121,7.121,0,0,0,3.854-.821,2.507,2.507,0,0,0,1.247-2.184,2.142,2.142,0,0,0-.737-1.662,5.488,5.488,0,0,0-1.888-1.062q-1.153-.4-3.118-.882a41.145,41.145,0,0,1-4.949-1.523,8.058,8.058,0,0,1-3.306-2.444,6.863,6.863,0,0,1-1.38-4.489,8.154,8.154,0,0,1,1.247-4.428,8.5,8.5,0,0,1,3.759-3.147,14.571,14.571,0,0,1,6.138-1.162,19.246,19.246,0,0,1,4.949.641,14.2,14.2,0,0,1,4.231,1.844l-1.888,4.93a14.124,14.124,0,0,0-7.33-2.2,6.558,6.558,0,0,0-3.8.881,2.73,2.73,0,0,0-1.228,2.324,2.271,2.271,0,0,0,1.417,2.144,21.2,21.2,0,0,0,4.325,1.383,41.46,41.46,0,0,1,4.949,1.523,8.2,8.2,0,0,1,3.305,2.405,6.7,6.7,0,0,1,1.379,4.448,7.994,7.994,0,0,1-1.266,4.388,8.61,8.61,0,0,1-3.8,3.145,14.7,14.7,0,0,1-6.157,1.162,20.481,20.481,0,0,1-6.064-.9" transform="translate(-122.776 -212.71)" fill="#55585b"/>
      <path id="Path_2" data-name="Path 2" d="M208.348,244.052a5.805,5.805,0,0,1-2.134,1.052,9.933,9.933,0,0,1-2.664.351,7.5,7.5,0,0,1-5.61-2.022q-1.984-2.019-1.983-5.939v-9.114h-3.136v-4.949h3.136v-5.4h5.893v5.4h5.063v4.949H201.85v9.032a3.205,3.205,0,0,0,.661,2.166,2.339,2.339,0,0,0,1.87.763,3.576,3.576,0,0,0,2.38-.825Z" transform="translate(-157.593 -215.216)" fill="#55585b"/>
      <path id="Path_3" data-name="Path 3" d="M260.3,232.229l-9.18,23.285a11.475,11.475,0,0,1-3.457,5.342,8.022,8.022,0,0,1-4.968,1.55,9.638,9.638,0,0,1-3.135-.529,6.782,6.782,0,0,1-2.531-1.469l2.153-4.527a4.994,4.994,0,0,0,1.568,1.02,4.557,4.557,0,0,0,1.756.367,2.961,2.961,0,0,0,1.965-.632,5.4,5.4,0,0,0,1.36-2.1l.075-.2-8.8-22.1h6.082l5.7,14.884,5.742-14.884Z" transform="translate(-183.415 -223.91)" fill="#55585b"/>
      <path id="Path_4" data-name="Path 4" d="M332.261,240.885a4.566,4.566,0,0,1,1.662-3.119,5.08,5.08,0,0,1,3.363-1.145,4.984,4.984,0,0,1,3.324,1.169,4.543,4.543,0,0,1,1.662,3.1Zm13.883,3.392h.042a1.636,1.636,0,0,0,1.639-1.567c0-.007,0-.014,0-.018a10.975,10.975,0,0,0-1.38-5.571,9.386,9.386,0,0,0-3.8-3.683,12.046,12.046,0,0,0-10.937.056,9.925,9.925,0,0,0-3.892,3.74,10.385,10.385,0,0,0-1.416,5.384v.017a1.658,1.658,0,0,0,1.666,1.643Z" transform="translate(-235.955 -223.863)" fill="#55585b"/>
      <path id="Path_5" data-name="Path 5" d="M346.794,269.3l-.012,0a2.6,2.6,0,0,0-2.4.651,6.3,6.3,0,0,1-8.159,0,2.6,2.6,0,0,0-2.4-.651l-.012,0a2.928,2.928,0,0,0-1.18,5.143,12.046,12.046,0,0,0,7.61,2.348v-.079h0v.079a11.818,11.818,0,0,0,7.676-2.348,2.917,2.917,0,0,0-1.113-5.143" transform="translate(-239.123 -246.556)" fill="#ec1c24"/>
      <path id="Path_6" data-name="Path 6" d="M391.546,275.268a2.572,2.572,0,0,1,.736,1.9,2.622,2.622,0,0,1-.736,1.916,2.544,2.544,0,0,1-1.9.751,2.506,2.506,0,0,1-1.87-.751,2.865,2.865,0,0,1-.016-3.816,2.519,2.519,0,0,1,1.886-.735,2.57,2.57,0,0,1,1.9.735" transform="translate(-272.347 -249.806)" fill="#55585b"/>
      <g id="Group_1" data-name="Group 1" transform="translate(125.845 0.73)">
        <path id="Path_7" data-name="Path 7" d="M410.564,215.92a3.34,3.34,0,0,1,3.632-3.259c2.171,0,3.632,1.35,3.632,3.147a3.648,3.648,0,0,1-7.264.111Zm.711,6.067h5.843v20.15h-5.843Z" transform="translate(-410.564 -212.661)" fill="#55585b"/>
        <path id="Path_8" data-name="Path 8" d="M457.875,217.009V244.8h-5.581v-2.322A7.747,7.747,0,0,1,446,245.1c-5.693,0-10.072-4.044-10.072-10.373s4.379-10.374,10.072-10.374a7.748,7.748,0,0,1,6.032,2.433v-9.774Zm-5.73,17.715c0-3.484-2.248-5.58-5.129-5.58-2.922,0-5.169,2.1-5.169,5.58s2.248,5.579,5.169,5.579C449.9,240.3,452.144,238.206,452.144,234.724Z" transform="translate(-426.092 -215.323)" fill="#55585b"/>
      </g>
    </g>
    <path id="Path_9" data-name="Path 9" d="M156.14,315.84c-64.558,0-89.831-15.538-90.875-16.2a2.554,2.554,0,0,1-.748-3.738,3.088,3.088,0,0,1,4.061-.693h0c.244.153,25.115,15.255,87.563,15.255,62.747,0,94.5-15.252,94.815-15.406a3.057,3.057,0,0,1,3.958,1.1,2.58,2.58,0,0,1-1.19,3.637C252.4,300.45,220.527,315.84,156.14,315.84Z" transform="translate(0 -60.792)" fill="#55585b"/>
    <path id="Path_10" data-name="Path 10" d="M100.345,199.294l-4.852-5.535a.507.507,0,0,0-.75-.014L92.06,196.6a.5.5,0,0,0,.058.734c4.457,3.476,7.157,5.916,8.174,6.868a.508.508,0,0,0,.785-.121,34.989,34.989,0,0,1,11.444-12.218.493.493,0,0,0,.183-.644.088.088,0,0,0,0-.011.505.505,0,0,0-.65-.221,29.353,29.353,0,0,0-10.927,8.29.506.506,0,0,1-.778.018" transform="translate(-17.094)" fill="#ec1c24"/>
  </g>
</svg>
