<svg xmlns="http://www.w3.org/2000/svg" width="15.685" height="17.598" viewBox="0 0 15.685 17.598"><defs><style>.a{fill:#fa751d;}</style></defs><path class="a" d="M15.908,4.173a.4.4,0,0,1-.2-.053A9.9,9.9,0,0,0,10.852,2.88,9.9,9.9,0,0,0,6,4.121a.441.441,0,0,1-.593-.176.448.448,0,0,1,.174-.6,11,11,0,0,1,10.529-.009.433.433,0,0,1,.183.59.427.427,0,0,1-.383.246ZM3.435,8.793a.451.451,0,0,1-.253-.079.441.441,0,0,1-.1-.616A9.037,9.037,0,0,1,6.346,5.22a9.976,9.976,0,0,1,8.986-.009A9.071,9.071,0,0,1,18.6,8.071a.443.443,0,0,1-.1.616.432.432,0,0,1-.61-.106,8.205,8.205,0,0,0-2.955-2.587A9.106,9.106,0,0,0,6.739,6a8.292,8.292,0,0,0-2.963,2.6.379.379,0,0,1-.34.185Zm5.447,10.62a.407.407,0,0,1-.305-.132,8.886,8.886,0,0,1-1.752-2.323,7.871,7.871,0,0,1-.915-3.819A4.848,4.848,0,0,1,10.844,8.4a4.848,4.848,0,0,1,4.933,4.743.436.436,0,1,1-.872,0,3.971,3.971,0,0,0-4.062-3.863A3.97,3.97,0,0,0,6.782,13.14a6.946,6.946,0,0,0,.811,3.388,8.32,8.32,0,0,0,1.612,2.129.455.455,0,0,1,0,.625.476.476,0,0,1-.322.132Zm6.249-1.628a4.663,4.663,0,0,1-4.776-4.646.436.436,0,1,1,.872,0,3.774,3.774,0,0,0,3.9,3.757,5.707,5.707,0,0,0,.906-.088.442.442,0,0,1,.148.871A5.9,5.9,0,0,1,15.132,17.785ZM13.38,19.6a.506.506,0,0,1-.113-.018,6.784,6.784,0,0,1-3.242-1.848A6.451,6.451,0,0,1,8.133,13.14a2.686,2.686,0,0,1,5.369,0,1.816,1.816,0,0,0,3.626,0,6.174,6.174,0,0,0-6.319-6.01,6.356,6.356,0,0,0-5.761,3.546,5.706,5.706,0,0,0-.514,2.464,8.819,8.819,0,0,0,.584,3.176.434.434,0,1,1-.811.308,9.886,9.886,0,0,1-.636-3.484,6.664,6.664,0,0,1,.593-2.851,7.226,7.226,0,0,1,6.546-4.048A7.051,7.051,0,0,1,18,13.131a2.686,2.686,0,0,1-5.369,0,1.816,1.816,0,0,0-3.626,0,5.568,5.568,0,0,0,1.63,3.968,5.913,5.913,0,0,0,2.85,1.628.437.437,0,0,1,.305.537A.426.426,0,0,1,13.38,19.6Z" transform="translate(-2.997 -2)"/></svg>