<svg xmlns="http://www.w3.org/2000/svg" width="61.584" height="69.094" viewBox="0 0 61.584 69.094"><defs><style>.a{fill:#fa751d;}</style></defs><path class="a" d="M53.688,10.533a1.578,1.578,0,0,1-.787-.207A38.861,38.861,0,0,0,33.84,5.455a38.857,38.857,0,0,0-19.061,4.871,1.733,1.733,0,0,1-2.327-.691,1.758,1.758,0,0,1,.684-2.349,43.179,43.179,0,0,1,41.338-.035,1.7,1.7,0,0,1,.719,2.315,1.676,1.676,0,0,1-1.506.967ZM4.719,28.67a1.771,1.771,0,0,1-.992-.311,1.733,1.733,0,0,1-.411-2.418,35.483,35.483,0,0,1,12.833-11.3,39.167,39.167,0,0,1,35.281-.035A35.615,35.615,0,0,1,64.262,25.837a1.738,1.738,0,0,1-.411,2.418,1.7,1.7,0,0,1-2.4-.415,32.216,32.216,0,0,0-11.6-10.157,35.754,35.754,0,0,0-32.167.035A32.557,32.557,0,0,0,6.053,27.945a1.488,1.488,0,0,1-1.335.725Zm21.388,41.7a1.6,1.6,0,0,1-1.2-.518,34.89,34.89,0,0,1-6.878-9.12,30.9,30.9,0,0,1-3.593-14.993c0-10.26,8.692-18.621,19.369-18.621s19.369,8.36,19.369,18.621a1.711,1.711,0,1,1-3.422,0c0-8.36-7.152-15.166-15.947-15.166S17.859,37.376,17.859,45.736a27.272,27.272,0,0,0,3.182,13.3,32.666,32.666,0,0,0,6.331,8.36,1.786,1.786,0,0,1,0,2.453,1.867,1.867,0,0,1-1.266.518Zm24.536-6.391A18.308,18.308,0,0,1,31.89,45.736a1.711,1.711,0,1,1,3.422,0A14.818,14.818,0,0,0,50.642,60.488a22.408,22.408,0,0,0,3.559-.345,1.735,1.735,0,0,1,.582,3.42A23.154,23.154,0,0,1,50.642,63.977Zm-6.878,7.117a1.985,1.985,0,0,1-.445-.069,26.638,26.638,0,0,1-12.73-7.255,25.329,25.329,0,0,1-7.426-18.034A10.364,10.364,0,0,1,33.7,35.58a10.364,10.364,0,0,1,10.54,10.157,7.131,7.131,0,0,0,14.236,0c0-13.024-11.122-23.6-24.81-23.6a24.957,24.957,0,0,0-22.62,13.922A22.4,22.4,0,0,0,9.03,45.736a34.625,34.625,0,0,0,2.293,12.471,1.7,1.7,0,1,1-3.182,1.209,38.814,38.814,0,0,1-2.5-13.681A26.165,26.165,0,0,1,7.97,34.543a28.372,28.372,0,0,1,25.7-15.892c15.57,0,28.232,12.126,28.232,27.05a10.547,10.547,0,0,1-21.08,0A6.92,6.92,0,0,0,33.7,39a6.92,6.92,0,0,0-7.118,6.7,21.861,21.861,0,0,0,6.4,15.581,23.216,23.216,0,0,0,11.19,6.391,1.717,1.717,0,0,1,1.2,2.107A1.673,1.673,0,0,1,43.764,71.094Z" transform="translate(-2.997 -2)"/></svg>