<svg xmlns="http://www.w3.org/2000/svg" width="168.744" height="56.559" viewBox="0 0 168.744 56.559"><defs><style>.a{fill:#55585b;}.b{fill:#ec1c24;}</style></defs><g transform="translate(14.793 6.788)"><rect class="a" width="5.2" height="26.696" transform="translate(70.91)"/><rect class="a" width="5.2" height="19.357" transform="translate(0 7.339)"/><path class="a" d="M136.775,238.736a12.233,12.233,0,0,1-4.149-2.068l1.832-4.314a12.176,12.176,0,0,0,3.567,1.874,12.693,12.693,0,0,0,4.133.707,6.283,6.283,0,0,0,3.4-.725,2.212,2.212,0,0,0,1.1-1.927,1.889,1.889,0,0,0-.65-1.467,4.842,4.842,0,0,0-1.666-.937q-1.017-.354-2.75-.778a36.3,36.3,0,0,1-4.366-1.343,7.11,7.11,0,0,1-2.916-2.156,6.055,6.055,0,0,1-1.217-3.961,7.194,7.194,0,0,1,1.1-3.906,7.5,7.5,0,0,1,3.317-2.776,12.855,12.855,0,0,1,5.416-1.025,16.981,16.981,0,0,1,4.367.566,12.532,12.532,0,0,1,3.733,1.627l-1.666,4.349a12.462,12.462,0,0,0-6.467-1.945,5.786,5.786,0,0,0-3.35.777,2.409,2.409,0,0,0-1.083,2.051,2,2,0,0,0,1.25,1.891,18.7,18.7,0,0,0,3.816,1.22,36.571,36.571,0,0,1,4.367,1.343,7.231,7.231,0,0,1,2.916,2.122,5.914,5.914,0,0,1,1.216,3.925,7.053,7.053,0,0,1-1.117,3.872,7.6,7.6,0,0,1-3.35,2.775,12.968,12.968,0,0,1-5.433,1.025,18.07,18.07,0,0,1-5.35-.795" transform="translate(-123.936 -212.854)"/><path class="a" d="M206.52,240.988a5.122,5.122,0,0,1-1.883.928,8.763,8.763,0,0,1-2.35.31,6.617,6.617,0,0,1-4.949-1.784,7.182,7.182,0,0,1-1.75-5.24v-8.041h-2.767v-4.366h2.767v-4.767h5.2v4.767h4.467v4.366h-4.467v7.969a2.828,2.828,0,0,0,.583,1.911,2.064,2.064,0,0,0,1.65.673,3.155,3.155,0,0,0,2.1-.728Z" transform="translate(-161.74 -215.547)"/><path class="a" d="M257.56,232.229l-8.1,20.543a10.124,10.124,0,0,1-3.05,4.713,7.077,7.077,0,0,1-4.383,1.367,8.5,8.5,0,0,1-2.766-.467,5.984,5.984,0,0,1-2.233-1.3l1.9-3.994a4.406,4.406,0,0,0,1.383.9,4.021,4.021,0,0,0,1.549.324,2.612,2.612,0,0,0,1.734-.557,4.766,4.766,0,0,0,1.2-1.853l.066-.181-7.766-19.5h5.366l5.033,13.132,5.066-13.132Z" transform="translate(-189.727 -224.889)"/><path class="a" d="M331.572,239.857a4.028,4.028,0,0,1,1.466-2.752A4.482,4.482,0,0,1,336,236.1a4.4,4.4,0,0,1,2.933,1.031,4.008,4.008,0,0,1,1.466,2.731Zm12.249,2.992h.037a1.443,1.443,0,0,0,1.446-1.382c0-.006,0-.013,0-.016a9.683,9.683,0,0,0-1.217-4.916,8.281,8.281,0,0,0-3.349-3.25,10.628,10.628,0,0,0-9.65.05,8.757,8.757,0,0,0-3.433,3.3,9.163,9.163,0,0,0-1.25,4.75v.015a1.463,1.463,0,0,0,1.47,1.449Z" transform="translate(-246.604 -224.839)"/><path class="b" d="M345,269.287l-.011,0a2.3,2.3,0,0,0-2.121.574,5.563,5.563,0,0,1-7.2,0,2.3,2.3,0,0,0-2.121-.574l-.011,0a2.583,2.583,0,0,0-1.041,4.537,10.627,10.627,0,0,0,6.714,2.071v-.07h0v.07a10.427,10.427,0,0,0,6.772-2.071,2.573,2.573,0,0,0-.982-4.537" transform="translate(-250.001 -249.224)"/><path class="a" d="M391.016,275.181a2.269,2.269,0,0,1,.649,1.677,2.314,2.314,0,0,1-.649,1.69,2.244,2.244,0,0,1-1.676.663,2.211,2.211,0,0,1-1.65-.663,2.528,2.528,0,0,1-.014-3.367,2.222,2.222,0,0,1,1.664-.648,2.268,2.268,0,0,1,1.676.648" transform="translate(-285.85 -252.717)"/><g transform="translate(111.029 0.644)"><path class="a" d="M410.564,215.536a2.947,2.947,0,0,1,3.2-2.875c1.916,0,3.2,1.191,3.2,2.777a3.218,3.218,0,0,1-6.409.1Zm.627,5.352h5.155v17.778h-5.155Z" transform="translate(-410.564 -212.661)"/><path class="a" d="M455.291,217.009v24.517h-4.924v-2.049a6.835,6.835,0,0,1-5.551,2.312c-5.023,0-8.887-3.568-8.887-9.152s3.864-9.153,8.887-9.153a6.835,6.835,0,0,1,5.322,2.147v-8.623Zm-5.056,15.629c0-3.074-1.983-4.923-4.525-4.923-2.578,0-4.561,1.85-4.561,4.923s1.983,4.922,4.561,4.922C448.252,237.56,450.235,235.711,450.235,232.638Z" transform="translate(-427.25 -215.521)"/></g></g><path class="a" d="M145.292,313.356c-56.958,0-79.255-13.709-80.176-14.292a2.254,2.254,0,0,1-.66-3.3,2.725,2.725,0,0,1,3.583-.611h0c.215.135,22.158,13.459,77.254,13.459,55.36,0,83.376-13.456,83.652-13.592a2.7,2.7,0,0,1,3.492.969,2.276,2.276,0,0,1-1.05,3.209C230.217,299.777,202.1,313.356,145.292,313.356Z" transform="translate(-64 -256.797)"/><path class="b" d="M99.354,198.311l-4.28-4.883a.447.447,0,0,0-.662-.012l-2.368,2.516a.439.439,0,0,0,.051.648c3.932,3.067,6.314,5.22,7.212,6.059a.448.448,0,0,0,.692-.106,30.87,30.87,0,0,1,10.1-10.78.435.435,0,0,0,.162-.568.076.076,0,0,0,0-.01.446.446,0,0,0-.573-.195,25.9,25.9,0,0,0-9.64,7.314.447.447,0,0,1-.686.016" transform="translate(-82.369 -190.943)"/></svg>