<svg xmlns="http://www.w3.org/2000/svg" width="20.07" height="20.07" viewBox="0 0 20.07 20.07"><defs><style>.a{fill:#4285f4;}.a,.b,.c,.d,.e{fill-rule:evenodd;}.b{fill:#34a853;}.c{fill:#fbbc05;}.d{fill:#ea4335;}.e{fill:none;}</style></defs><path class="a" d="M18.634,9.416a11.537,11.537,0,0,0-.182-2.053H9v3.882h5.4a4.616,4.616,0,0,1-2,3.029v2.518h3.243a9.787,9.787,0,0,0,2.992-7.376Z" transform="translate(1.035 0.847)"/><path class="b" d="M9.925,18.838a9.581,9.581,0,0,0,6.641-2.431l-3.243-2.518A6.054,6.054,0,0,1,4.31,10.71H.957v2.6a10.031,10.031,0,0,0,8.968,5.528Z" transform="translate(0.11 1.232)"/><path class="c" d="M4.42,11.372a5.933,5.933,0,0,1,0-3.813v-2.6H1.067a10.048,10.048,0,0,0,0,9.013l3.353-2.6Z" transform="translate(0 0.57)"/><path class="d" d="M9.925,3.991a5.421,5.421,0,0,1,3.836,1.5l2.878-2.878A9.644,9.644,0,0,0,9.925,0,10.031,10.031,0,0,0,.957,5.528l3.353,2.6A5.981,5.981,0,0,1,9.925,3.991Z" transform="translate(0.11)"/><path class="e" d="M0,0H20.07V20.07H0Z"/></svg>