<svg xmlns="http://www.w3.org/2000/svg" width="24.823" height="24.848" viewBox="0 0 24.823 24.848"><defs><style>.a{fill:#252525;}</style></defs><path class="a" d="M27.486,13.535l-2.775-.828a9.649,9.649,0,0,0-.787-1.93l1.358-2.543a.505.505,0,0,0-.091-.6L23.213,5.65a.505.505,0,0,0-.6-.091L20.09,6.909a9.624,9.624,0,0,0-1.955-.828L17.307,3.34A.505.505,0,0,0,16.818,3h-2.8a.505.505,0,0,0-.48.356L12.71,6.089a9.632,9.632,0,0,0-1.971.828L8.254,5.576a.505.505,0,0,0-.6.091L5.645,7.63a.505.505,0,0,0-.091.6L6.9,10.711a9.633,9.633,0,0,0-.828,1.963L3.326,13.5a.505.505,0,0,0-.356.48v2.8a.505.505,0,0,0,.356.48l2.758.828a9.624,9.624,0,0,0,.828,1.93l-1.358,2.6a.505.505,0,0,0,.091.6l1.98,1.98a.505.505,0,0,0,.6.091l2.559-1.367a9.649,9.649,0,0,0,1.9.779l.828,2.791a.505.505,0,0,0,.48.356h2.8a.505.505,0,0,0,.48-.356l.828-2.8a9.633,9.633,0,0,0,1.888-.779l2.576,1.375a.505.505,0,0,0,.6-.091l1.98-1.98a.505.505,0,0,0,.091-.6l-1.375-2.568a9.633,9.633,0,0,0,.787-1.9l2.791-.828a.505.505,0,0,0,.356-.48V14.024a.505.505,0,0,0-.306-.489ZM15.419,19.979a4.555,4.555,0,1,1,4.555-4.555,4.555,4.555,0,0,1-4.555,4.555Z" transform="translate(-2.97 -3)"/></svg>