<svg xmlns="http://www.w3.org/2000/svg" width="54" height="54" viewBox="0 0 54 54"><defs><style>.a{fill:#fffae2;}.b{fill:#ff9047;}.c{fill:#fed000;}</style></defs><path class="a" d="M24.1,0h5.8c6.8,0,10.442.94,13.742,2.7A18.4,18.4,0,0,1,51.3,10.359C53.06,13.659,54,17.3,54,24.1v5.8c0,6.8-.94,10.442-2.7,13.742A18.4,18.4,0,0,1,43.641,51.3C40.341,53.06,36.7,54,29.9,54H24.1c-6.8,0-10.442-.94-13.742-2.7A18.4,18.4,0,0,1,2.7,43.641C.94,40.341,0,36.7,0,29.9V24.1c0-6.8.94-10.442,2.7-13.742A18.4,18.4,0,0,1,10.359,2.7C13.659.94,17.3,0,24.1,0Z" transform="translate(0 0)"/><g transform="translate(-19313.5 2002.425)"><path class="b" d="M15.5,19C6.953,19,0,15.86,0,12A4.075,4.075,0,0,1,1.366,9.122a11.257,11.257,0,0,1,3.7-2.3C6.333,9.871,10.622,12,15.5,12s9.167-2.129,10.433-5.177a11.257,11.257,0,0,1,3.7,2.3A4.075,4.075,0,0,1,31,12C31,15.86,24.047,19,15.5,19Z" transform="translate(19325 -1983)"/><path class="c" d="M.478,10.049c-.817-.909-.427-5.934,0-7.024A4.406,4.406,0,0,1,4.056.13c2.149-.4,2.524,1.115,5,1.115S11.818-.265,13.966.13a4.409,4.409,0,0,1,3.579,2.9c.426,1.09.817,6.114,0,7.024,0,0-1.2,3.593-8.488,3.593S.478,10.049.478,10.049Z" transform="translate(19331.605 -1986.914)"/></g></svg>