<svg xmlns="http://www.w3.org/2000/svg" width="54" height="54" viewBox="0 0 54 54"><defs><style>.a{fill:#fffae2;}.b{fill:#fed000;}.c{fill:#ff9047;}</style></defs><path class="a" d="M24.1,0h5.8c6.8,0,10.442.94,13.742,2.7A18.4,18.4,0,0,1,51.3,10.359C53.06,13.659,54,17.3,54,24.1v5.8c0,6.8-.94,10.442-2.7,13.742A18.4,18.4,0,0,1,43.641,51.3C40.341,53.06,36.7,54,29.9,54H24.1c-6.8,0-10.442-.94-13.742-2.7A18.4,18.4,0,0,1,2.7,43.641C.94,40.341,0,36.7,0,29.9V24.1c0-6.8.94-10.442,2.7-13.742A18.4,18.4,0,0,1,10.359,2.7C13.659.94,17.3,0,24.1,0Z" transform="translate(0 0)"/><g transform="translate(-206.334 -427)"><path class="b" d="M29,14.517a10.95,10.95,0,0,1-.41,3.268A3.73,3.73,0,0,1,27.3,19.722a5.125,5.125,0,0,1-1.938.891,12.526,12.526,0,0,1-2.7.241,12.566,12.566,0,0,1-2.7-.24,5.1,5.1,0,0,1-1.937-.892,3.746,3.746,0,0,1-1.287-1.938,10.907,10.907,0,0,1-.41-3.267A1.836,1.836,0,0,0,14.5,12.706a1.711,1.711,0,0,0-1.273.538,1.76,1.76,0,0,0-.523,1.273,10.95,10.95,0,0,1-.41,3.268,3.728,3.728,0,0,1-1.288,1.937,5.132,5.132,0,0,1-1.938.891,12.514,12.514,0,0,1-2.7.241,12.566,12.566,0,0,1-2.7-.24,5.1,5.1,0,0,1-1.938-.892A3.739,3.739,0,0,1,.444,17.783a10.942,10.942,0,0,1-.41-3.267A10.892,10.892,0,0,1,.26,12a1.492,1.492,0,0,1-.028-1.556L6.37.768A1.424,1.424,0,0,1,7.261.075a1.378,1.378,0,0,1,1.1.156,1.442,1.442,0,0,1,.679.919A1.479,1.479,0,0,1,8.888,2.3L4.475,9.227a24.124,24.124,0,0,1,2.8-.141,12.811,12.811,0,0,1,3.239.311,2.665,2.665,0,0,1,1.6,1.046,8.351,8.351,0,0,0,2.4.452,8.351,8.351,0,0,0,2.4-.452,2.665,2.665,0,0,1,1.6-1.046,12.829,12.829,0,0,1,3.239-.312,24.587,24.587,0,0,1,2.8.141L20.146,2.3a1.475,1.475,0,0,1-.156-1.146A1.442,1.442,0,0,1,20.67.231a1.378,1.378,0,0,1,1.1-.156,1.428,1.428,0,0,1,.892.693L28.8,10.443A1.492,1.492,0,0,1,28.775,12,10.892,10.892,0,0,1,29,14.517ZM3.654,10.9a1.739,1.739,0,0,0-1.329.51,1.821,1.821,0,0,0-.481,1.3,1.821,1.821,0,0,0,.481,1.3,1.739,1.739,0,0,0,1.329.51,5.736,5.736,0,0,0,2.56-.523q1.06-.523,1.062-1.288T6.215,11.419A5.777,5.777,0,0,0,3.654,10.9Zm16.295,0a1.739,1.739,0,0,0-1.329.51,1.821,1.821,0,0,0-.481,1.3,1.821,1.821,0,0,0,.481,1.3,1.739,1.739,0,0,0,1.329.51,5.736,5.736,0,0,0,2.56-.523q1.06-.523,1.061-1.288t-1.061-1.287A5.772,5.772,0,0,0,19.949,10.9Z" transform="translate(218.816 443.146)"/><path class="c" d="M-18800,2376.708a12.652,12.652,0,0,1-2.7-.241,5.132,5.132,0,0,1-1.937-.893,3.792,3.792,0,0,1-1.283-1.937,7.558,7.558,0,0,1-.248-1.043,15.766,15.766,0,0,0,11.564-7.478l.748,1.179a1.511,1.511,0,0,1-.027,1.554,11.013,11.013,0,0,1,.227,2.518,10.924,10.924,0,0,1-.412,3.269,3.748,3.748,0,0,1-1.289,1.937,5.106,5.106,0,0,1-1.937.893A12.632,12.632,0,0,1-18800,2376.708Zm-16.295,0a12.632,12.632,0,0,1-2.7-.241,5.132,5.132,0,0,1-1.937-.893,3.726,3.726,0,0,1-1.285-1.937,11.031,11.031,0,0,1-.41-3.269,10.919,10.919,0,0,1,.227-2.518,1.49,1.49,0,0,1-.029-1.554l.748-1.177a15.666,15.666,0,0,0,1.467,2.024,1.516,1.516,0,0,0-.121.117,1.8,1.8,0,0,0-.482,1.3,1.83,1.83,0,0,0,.482,1.3,1.729,1.729,0,0,0,1.326.51,6.232,6.232,0,0,0,2.07-.318,15.86,15.86,0,0,0,6.822,2.539,7.593,7.593,0,0,1-.246,1.043,3.764,3.764,0,0,1-1.289,1.937,5.151,5.151,0,0,1-1.937.893A12.652,12.652,0,0,1-18816.291,2376.708Z" transform="translate(19041.477 -1912.707)"/></g></svg>