<svg xmlns="http://www.w3.org/2000/svg" width="54" height="54" viewBox="0 0 54 54"><defs><style>.a{fill:#fffae2;}.b{fill:#fed000;}.c{fill:#ff9047;}</style></defs><path class="a" d="M24.1,0h5.8c6.8,0,10.442.94,13.742,2.7A18.4,18.4,0,0,1,51.3,10.359C53.06,13.659,54,17.3,54,24.1v5.8c0,6.8-.94,10.442-2.7,13.742A18.4,18.4,0,0,1,43.641,51.3C40.341,53.06,36.7,54,29.9,54H24.1c-6.8,0-10.442-.94-13.742-2.7A18.4,18.4,0,0,1,2.7,43.641C.94,40.341,0,36.7,0,29.9V24.1c0-6.8.94-10.442,2.7-13.742A18.4,18.4,0,0,1,10.359,2.7C13.659.94,17.3,0,24.1,0Z" transform="translate(0 0)"/><g transform="translate(-28.333 -428.75)"><path class="b" d="M23.912,0l3.416,6.832H20.5Zm-8.54,0H22.2L18.788,6.832ZM10.248,6.832,13.664,0,17.08,6.832ZM5.124,0h6.832L8.54,6.832ZM0,6.832,3.416,0,6.832,6.832Zm11.956,17.08L0,8.54H6.832ZM18.788,8.54,13.664,23.912,8.54,8.54Zm8.54,0L15.372,23.912,20.5,8.54Z" transform="translate(41.67 443.794)"/><path class="c" d="M-18808.141,2384.706v0l-3.1-9.29a15.968,15.968,0,0,0,3.1.3,15.972,15.972,0,0,0,3.1-.3l-3.1,9.29Zm1.707,0h0l3.26-9.779a15.794,15.794,0,0,0,7.746-5.588h.949Zm-3.42,0-11.955-15.367h.949a15.8,15.8,0,0,0,7.748,5.588l3.258,9.779Z" transform="translate(18863.477 -1917)"/></g></svg>