<svg xmlns="http://www.w3.org/2000/svg" width="54" height="54" viewBox="0 0 54 54"><defs><style>.a{fill:#fffae2;}.b{fill:#fed000;}.c{fill:#ff9047;}</style></defs><path class="a" d="M24.1,0h5.8c6.8,0,10.442.94,13.742,2.7A18.4,18.4,0,0,1,51.3,10.359C53.06,13.659,54,17.3,54,24.1v5.8c0,6.8-.94,10.442-2.7,13.742A18.4,18.4,0,0,1,43.641,51.3C40.341,53.06,36.7,54,29.9,54H24.1c-6.8,0-10.442-.94-13.742-2.7A18.4,18.4,0,0,1,2.7,43.641C.94,40.341,0,36.7,0,29.9V24.1c0-6.8.94-10.442,2.7-13.742A18.4,18.4,0,0,1,10.359,2.7C13.659.94,17.3,0,24.1,0Z" transform="translate(0 0)"/><g transform="translate(-293.732 -313.521)"><g transform="translate(307.709 327.5)"><path class="b" d="M25.665,11.25H7.132a3.76,3.76,0,0,0-3.757,3.757V25.526a3.76,3.76,0,0,0,3.757,3.757H25.665a3.76,3.76,0,0,0,3.757-3.757V15.007A3.76,3.76,0,0,0,25.665,11.25Z" transform="translate(-3.375 -5.238)"/><path class="b" d="M21.963,4.563,7.255,7.436C6.128,7.687,4.5,8.82,4.5,10.2a3.945,3.945,0,0,1,3.068-1.19h17.97V7.724a3.6,3.6,0,0,0-.87-2.354h0A2.961,2.961,0,0,0,21.963,4.563Z" transform="translate(-3.498 -4.499)"/></g><path class="c" d="M22.289,15.78H3.758A3.761,3.761,0,0,1,0,12.023V1.505A3.747,3.747,0,0,1,.314,0,14.034,14.034,0,0,0,13.025,7.955,14.024,14.024,0,0,0,25.73,0a3.713,3.713,0,0,1,.314,1.505V12.023A3.761,3.761,0,0,1,22.289,15.78Z" transform="translate(307.709 335.764)"/><circle class="b" cx="1.5" cy="1.5" r="1.5" transform="translate(328.398 345.521)"/></g></svg>