<svg xmlns="http://www.w3.org/2000/svg" width="32.699" height="19.472" viewBox="0 0 32.699 19.472"><defs><style>.a{fill:#ff9047;}.b{fill:#fed000;}</style></defs><g transform="translate(-63.03 -181.204)"><path class="a" d="M4861.84,1239.887c-.561.454-.052,2.369-.158,3.517s-.766,1.377-.635,2.2,1.18,1.26,1.18,1.26,13.975.367,21.533-.167,7.851-1.33,8.659-1.788a3.227,3.227,0,0,0,1.292-3.028c-.129-1.3-1.992-2.364-1.992-2.364l-8.822,2.364h-10.806S4862.4,1239.433,4861.84,1239.887Z" transform="translate(-4798 -1046.312)"/><path class="b" d="M4864.5,1204.69c-.551-.61-.46-.773-.412-1.982s.7-5.823.7-5.823a5.563,5.563,0,0,1,.99-2.372c.681-.655,1.28-.531,2.107,0s1.352,3.506,3.147,3.615,2.146-1.027,2.158-1.562-.691-1.757-.617-2.727,1.015-2.724,1.76-2.63,1.066,1.688,3.184,3.5a31.53,31.53,0,0,0,5.165,3.733,38.1,38.1,0,0,0,5.469,2.914c2.2,1.041,2.777.585,4.376,1.157s2.461,1.131,1.967,1.408-3.9.226-4.631.543-.545,1.495-1.535,1.926-8.312.324-13.62.089S4865.558,1205.616,4864.5,1204.69Z" transform="translate(-4800.364 -1010)"/><path class="a" d="M4919.27,1205.3a31.533,31.533,0,0,0,5.166,3.732,37.968,37.968,0,0,0,5.469,2.914c.506.24-1.449,2.173-3.222,2.338-1.924.179-4.11-1.235-5.857-2.338-1.6-1.011-3.3-1.85-3.479-3.4C4917.188,1207.2,4918.586,1205.71,4919.27,1205.3Z" transform="translate(-4842.125 -1020.592)"/><path class="b" d="M4936.736,1215.584a17.47,17.47,0,0,0-1.232,1.521.747.747,0,0,0,.066.81.627.627,0,0,0,.721.162,12.9,12.9,0,0,0,1.508-1.745Z" transform="translate(-4856.295 -1028.324)"/><path class="b" d="M4947.234,1221.268a13.259,13.259,0,0,0-1.045,1.246.837.837,0,0,0,0,.91c.19.286.458.208.751.087a9.719,9.719,0,0,0,1.319-1.659Z" transform="translate(-4864.633 -1032.596)"/><path class="b" d="M4957.748,1226.459a8.92,8.92,0,0,0-.984,1.226.686.686,0,0,0,.041.846c.215.228.462.206.8,0a9.168,9.168,0,0,0,1.212-1.535Z" transform="translate(-4872.929 -1036.497)"/><ellipse class="a" cx="2.009" cy="1.923" rx="2.009" ry="1.923" transform="translate(66.245 189.865)"/></g></svg>