<svg xmlns="http://www.w3.org/2000/svg" width="54" height="54" viewBox="0 0 54 54"><defs><style>.a{fill:#fffae2;}.b{fill:#ff9047;}.c{fill:#fed000;}</style></defs><path class="a" d="M24.1,0h5.8c6.8,0,10.442.94,13.742,2.7A18.4,18.4,0,0,1,51.3,10.359C53.06,13.659,54,17.3,54,24.1v5.8c0,6.8-.94,10.442-2.7,13.742A18.4,18.4,0,0,1,43.641,51.3C40.341,53.06,36.7,54,29.9,54H24.1c-6.8,0-10.442-.94-13.742-2.7A18.4,18.4,0,0,1,2.7,43.641C.94,40.341,0,36.7,0,29.9V24.1c0-6.8.94-10.442,2.7-13.742A18.4,18.4,0,0,1,10.359,2.7C13.659.94,17.3,0,24.1,0Z" transform="translate(0 0)"/><g transform="translate(11.504 14.605)"><path class="b" d="M30.56,4.672,21.133,0c-.973,1.346-2.987,4.313-5.5,4.313S10.825,1.346,9.852,0L.425,4.672A.78.78,0,0,0,.076,5.713l2.769,5.544a.78.78,0,0,0,1.041.349l2.74-1.341a.773.773,0,0,1,1.114.7V23.24A1.548,1.548,0,0,0,9.29,24.79H21.685a1.548,1.548,0,0,0,1.549-1.549V10.957a.775.775,0,0,1,1.114-.7l2.74,1.341a.772.772,0,0,0,1.041-.349L30.9,5.713A.773.773,0,0,0,30.56,4.672Z" transform="translate(0.004)"/><path class="c" d="M7.745,14.1V10.961a.773.773,0,0,0-1.114-.7l-2.74,1.341a.781.781,0,0,1-1.041-.349L.08,5.713A.781.781,0,0,1,.429,4.672L9.856,0c.973,1.346,3.268,4.312,5.781,4.312S20.164,1.346,21.137,0l9.427,4.672a.773.773,0,0,1,.344,1.041l-2.775,5.539a.772.772,0,0,1-1.041.349l-2.74-1.341a.775.775,0,0,0-1.114.7v3.118A21.693,21.693,0,0,1,15.526,15.7,22.717,22.717,0,0,1,7.745,14.1Z" transform="translate(0 0)"/></g></svg>