<svg xmlns="http://www.w3.org/2000/svg" width="54" height="54" viewBox="0 0 54 54"><defs><style>.a{fill:#fffae2;}.b{fill:#fed000;}.c{fill:#ff9047;}</style></defs><path class="a" d="M24.1,0h5.8c6.8,0,10.442.94,13.742,2.7A18.4,18.4,0,0,1,51.3,10.359C53.06,13.659,54,17.3,54,24.1v5.8c0,6.8-.94,10.442-2.7,13.742A18.4,18.4,0,0,1,43.641,51.3C40.341,53.06,36.7,54,29.9,54H24.1c-6.8,0-10.442-.94-13.742-2.7A18.4,18.4,0,0,1,2.7,43.641C.94,40.341,0,36.7,0,29.9V24.1c0-6.8.94-10.442,2.7-13.742A18.4,18.4,0,0,1,10.359,2.7C13.659.94,17.3,0,24.1,0Z" transform="translate(0 0)"/><g transform="translate(-292.859 -219.935)"><path class="b" d="M24.219,16.382c0-3.97-2.374-7.269-5.477-7.909V7.015C18.741,4.8,17.267,3,15.455,3H13.264C11.452,3,9.977,4.8,9.977,7.015V8.473c-3.1.64-5.477,3.938-5.477,7.909V27.087a2.472,2.472,0,0,0,2.191,2.676H22.028a2.472,2.472,0,0,0,2.191-2.676ZM12.168,7.015a1.236,1.236,0,0,1,1.1-1.338h2.191a1.235,1.235,0,0,1,1.1,1.338V8.353H12.168Z" transform="translate(305.5 230.554)"/><path class="c" d="M17.527,10H2.191A2.473,2.473,0,0,1,0,7.328V0A12.685,12.685,0,0,0,10.225,5.111,12.806,12.806,0,0,0,19.719.887V7.328A2.473,2.473,0,0,1,17.527,10Z" transform="translate(310 250.313)"/><rect class="c" width="10.955" height="4.382" rx="2.191" transform="translate(314.382 243.374)"/></g></svg>