<svg xmlns="http://www.w3.org/2000/svg" width="54" height="54" viewBox="0 0 54 54"><defs><style>.a{fill:#fffae2;}.b{fill:#fed000;}.c{fill:#ff9047;}</style></defs><path class="a" d="M24.1,0h5.8c6.8,0,10.442.94,13.742,2.7A18.4,18.4,0,0,1,51.3,10.359C53.06,13.659,54,17.3,54,24.1v5.8c0,6.8-.94,10.442-2.7,13.742A18.4,18.4,0,0,1,43.641,51.3C40.341,53.06,36.7,54,29.9,54H24.1c-6.8,0-10.442-.94-13.742-2.7A18.4,18.4,0,0,1,2.7,43.641C.94,40.341,0,36.7,0,29.9V24.1c0-6.8.94-10.442,2.7-13.742A18.4,18.4,0,0,1,10.359,2.7C13.659.94,17.3,0,24.1,0Z" transform="translate(0 0)"/><g transform="translate(-206.333 -313.432)"><path class="b" d="M17.311,9.877H2.473A2.752,2.752,0,0,0,0,12.841V26.669a2.752,2.752,0,0,0,2.473,2.963H3.3v.988a.917.917,0,0,0,.824.988H5.77a.917.917,0,0,0,.824-.988v-.988h6.595v.988a.917.917,0,0,0,.824.988h1.649a.917.917,0,0,0,.824-.988v-.988h.824a2.752,2.752,0,0,0,2.473-2.963V12.841A2.752,2.752,0,0,0,17.311,9.877Zm-.824,13.334a.458.458,0,0,1-.412.494H3.71a.458.458,0,0,1-.412-.494v-.988a.458.458,0,0,1,.412-.494H16.075a.458.458,0,0,1,.412.494Zm0-5.926a.458.458,0,0,1-.412.494H3.71a.458.458,0,0,1-.412-.494V16.3A.458.458,0,0,1,3.71,15.8H16.075a.458.458,0,0,1,.412.494ZM7.419,2.963h4.946V7.9h2.473V2.963A2.752,2.752,0,0,0,12.365,0H7.419A2.752,2.752,0,0,0,4.946,2.963V7.9H7.419Z" transform="translate(223.441 324.628)"/><path class="c" d="M-18802.373,2380.511h-1.648a.917.917,0,0,1-.822-.987v-.987h-6.6v.987a.917.917,0,0,1-.822.987h-1.648a.917.917,0,0,1-.822-.987v-.987h-.826a2.757,2.757,0,0,1-2.471-2.967v-9.316a15.683,15.683,0,0,0,9.893,3.463,15.68,15.68,0,0,0,9.887-3.461v9.314a2.757,2.757,0,0,1-2.471,2.967h-.826v.987A.917.917,0,0,1-18802.373,2380.511Zm-11.951-9.878a.46.46,0,0,0-.412.5v.987a.457.457,0,0,0,.412.491h12.361a.451.451,0,0,0,.412-.491v-.987a.454.454,0,0,0-.412-.5Z" transform="translate(19041.477 -2024.274)"/></g></svg>