<svg xmlns="http://www.w3.org/2000/svg" width="54" height="54" viewBox="0 0 54 54"><defs><style>.a{fill:#fffae2;}.b{fill:#fed000;}.c,.d{fill:#ff9047;}.d{fill-rule:evenodd;}</style></defs><path class="a" d="M24.1,0h5.8c6.8,0,10.442.94,13.742,2.7A18.4,18.4,0,0,1,51.3,10.359C53.06,13.659,54,17.3,54,24.1v5.8c0,6.8-.94,10.442-2.7,13.742A18.4,18.4,0,0,1,43.641,51.3C40.341,53.06,36.7,54,29.9,54H24.1c-6.8,0-10.442-.94-13.742-2.7A18.4,18.4,0,0,1,2.7,43.641C.94,40.341,0,36.7,0,29.9V24.1c0-6.8.94-10.442,2.7-13.742A18.4,18.4,0,0,1,10.359,2.7C13.659.94,17.3,0,24.1,0Z" transform="translate(0 0)"/><g transform="translate(12.059 13.635)"><circle class="a" cx="9" cy="9" r="9" transform="translate(5.607 4.365)"/><path class="b" d="M-18947.268,1929.094a2.783,2.783,0,0,1-2.781-2.783V1923.2a9.98,9.98,0,0,1-3.344-7.468,9.984,9.984,0,0,1,3.344-7.473v-3.111a2.783,2.783,0,0,1,2.781-2.783h7.8a2.783,2.783,0,0,1,2.783,2.783v3.111a10,10,0,0,1,3.209,5.832c0-.006,0-.013,0-.019a.828.828,0,0,1,.676.186.816.816,0,0,1,.295.637v1.67a.843.843,0,0,1-.295.637.842.842,0,0,1-.676.185,9.992,9.992,0,0,1-3.205,5.813v3.111a2.783,2.783,0,0,1-2.783,2.783Zm-4.457-13.361a8.358,8.358,0,0,0,8.354,8.353,8.359,8.359,0,0,0,8.357-8.353,8.36,8.36,0,0,0-8.357-8.358A8.359,8.359,0,0,0-18951.725,1915.732Z" transform="translate(18957.893 -1902.365)"/><path class="c" d="M-18934.053,1942.731h-7.8a2.787,2.787,0,0,1-2.783-2.783v-3.111a9.992,9.992,0,0,1-3.344-7.468v-.1c0-.017,0-.035,0-.052v-.052a15.933,15.933,0,0,0,1.742,1.324,8.375,8.375,0,0,0,8.279,7.238,8.378,8.378,0,0,0,8.186-6.673,15.818,15.818,0,0,0,2.674-1.891v1.044a.844.844,0,0,1-.295.637.84.84,0,0,1-.541.2.879.879,0,0,1-.135-.01,10.07,10.07,0,0,1-3.207,5.813v3.111A2.785,2.785,0,0,1-18934.053,1942.731Z" transform="translate(18952.477 -1916)"/><path class="d" d="M16.552,10.125a.835.835,0,0,1,.835.835v5.012a.835.835,0,0,1-.835.835H13.21a.835.835,0,1,1,0-1.671h2.506V10.96A.835.835,0,0,1,16.552,10.125Z" transform="translate(-2.028 -2.607)"/></g></svg>