<svg xmlns="http://www.w3.org/2000/svg" width="54" height="54" viewBox="0 0 54 54"><defs><style>.a{fill:#fffae2;}.b{fill:#fed000;}.c{fill:#ff9047;}</style></defs><path class="a" d="M24.1,0h5.8c6.8,0,10.442.94,13.742,2.7A18.4,18.4,0,0,1,51.3,10.359C53.06,13.659,54,17.3,54,24.1v5.8c0,6.8-.94,10.442-2.7,13.742A18.4,18.4,0,0,1,43.641,51.3C40.341,53.06,36.7,54,29.9,54H24.1c-6.8,0-10.442-.94-13.742-2.7A18.4,18.4,0,0,1,2.7,43.641C.94,40.341,0,36.7,0,29.9V24.1c0-6.8.94-10.442,2.7-13.742A18.4,18.4,0,0,1,10.359,2.7C13.659.94,17.3,0,24.1,0Z" transform="translate(0 0)"/><path class="b" d="M19715.652-2083.995c-.52-.552.01-4.462-.58-7.8s-1.723-3.589-2.166-6.18a7.027,7.027,0,0,1,1.955-6.206c1.053-.82,3.682,2.209,3.682,2.209l7.23,9.983s1.967,3.177,3.965,3.905,3.055-.635,4.432-.814,4.877,1.987,6.234,3.213-.123,1.4-.811,1.593c-2.2.631-8.078.806-8.078.806s-5.895.345-6.949-1.516a56.92,56.92,0,0,0-3.588-6.162c-1.58-2.19-2.307-2.574-3.062-2.827-.535-.168-.859.107-.76,1.246.016,2.492.055,8.261-.211,8.552A.811.811,0,0,1,19715.652-2083.995Z" transform="translate(-19698.51 2120.792)"/><path class="c" d="M-18801.2,2125.378c-1.867,0-5.111-.2-5.873-1.542-.336-.6-.648-1.183-.963-1.782l-.014-.024c-.578-1.089-1.123-2.117-1.84-3.229a15.924,15.924,0,0,0,3.906.485,16.064,16.064,0,0,0,2.1-.138,5.791,5.791,0,0,0,1.986,1.408,3.286,3.286,0,0,0,1.137.212,4.485,4.485,0,0,0,1.934-.553,4.68,4.68,0,0,1,1.365-.476,1.377,1.377,0,0,1,.172-.01c1.518,0,4.832,2.116,6.059,3.223.426.385.6.69.541.932-.084.343-.639.483-1.084.6-.1.025-.186.046-.264.069a51.582,51.582,0,0,1-8.078.8S-18800.553,2125.378-18801.2,2125.378Zm-14.145-.408a.893.893,0,0,1-.643-.321,6.588,6.588,0,0,1-.262-2.734l0-.012a30.543,30.543,0,0,0-.312-5.058,11.519,11.519,0,0,0-.576-2.146,15.824,15.824,0,0,0,2.664,2.124c.018,3.238.012,7.571-.217,7.825A.929.929,0,0,1-18815.34,2124.97Z" transform="translate(18833.125 -2087.85)"/></svg>