<svg xmlns="http://www.w3.org/2000/svg" width="54" height="54" viewBox="0 0 54 54"><defs><style>.a{fill:#fffae2;}.b{fill:#fed000;}.c{fill:#ff9047;}</style></defs><g transform="translate(-30.5 -62.576)"><g transform="translate(30.5 62.576)"><path class="a" d="M24.1,0h5.8c6.8,0,10.442.94,13.742,2.7A18.4,18.4,0,0,1,51.3,10.359C53.06,13.659,54,17.3,54,24.1v5.8c0,6.8-.94,10.442-2.7,13.742A18.4,18.4,0,0,1,43.641,51.3C40.341,53.06,36.7,54,29.9,54H24.1c-6.8,0-10.442-.94-13.742-2.7A18.4,18.4,0,0,1,2.7,43.641C.94,40.341,0,36.7,0,29.9V24.1c0-6.8.94-10.442,2.7-13.742A18.4,18.4,0,0,1,10.359,2.7C13.659.94,17.3,0,24.1,0Z" transform="translate(0 0)"/></g><g transform="translate(1.533 2.103)"><path class="b" d="M22.692,28.37h0s-3.508,2.757-11.345,2.757S0,28.37,0,28.37L6.17,13.9a9.531,9.531,0,0,0,0-5.457A10.9,10.9,0,0,0,4.08,4.849C3.2,3.714,2.436,2.733,2.616,1.682,2.727,1.03,3.349.559,4.465.28A11.838,11.838,0,0,1,7.18,0c.457,0,.758.019.761.02l3.4,5.685L14.751.02h.008c.1-.006.379-.019.753-.019A11.837,11.837,0,0,1,18.227.28c1.116.279,1.738.751,1.849,1.4.18,1.051-.582,2.032-1.464,3.167a10.9,10.9,0,0,0-2.09,3.589,9.53,9.53,0,0,0,0,5.457l6.17,14.474Z" transform="translate(44.621 71.909)"/><path class="c" d="M11.348,16.2a24.792,24.792,0,0,1-8.613-1.38A11.117,11.117,0,0,1,0,13.443L5.732,0a15.783,15.783,0,0,0,5.762,1.08A15.808,15.808,0,0,0,17,.1l5.688,13.347h0l0,0a11.4,11.4,0,0,1-2.732,1.376A24.747,24.747,0,0,1,11.348,16.2Z" transform="translate(44.621 86.835)"/></g></g></svg>