<svg xmlns="http://www.w3.org/2000/svg" width="54" height="54" viewBox="0 0 54 54"><defs><style>.a{fill:#fffae2;}.b{fill:#ff9047;}.c{fill:#fed000;}</style></defs><path class="a" d="M24.1,0h5.8c6.8,0,10.442.94,13.742,2.7A18.4,18.4,0,0,1,51.3,10.359C53.06,13.659,54,17.3,54,24.1v5.8c0,6.8-.94,10.442-2.7,13.742A18.4,18.4,0,0,1,43.641,51.3C40.341,53.06,36.7,54,29.9,54H24.1c-6.8,0-10.442-.94-13.742-2.7A18.4,18.4,0,0,1,2.7,43.641C.94,40.341,0,36.7,0,29.9V24.1c0-6.8.94-10.442,2.7-13.742A18.4,18.4,0,0,1,10.359,2.7C13.659.94,17.3,0,24.1,0Z" transform="translate(0 0)"/><g transform="translate(-19670.088 2090.408)"><path class="b" d="M12.812,19.969H2.87a2.557,2.557,0,0,1-.9-.23,2.889,2.889,0,0,1-.794-.527A3.305,3.305,0,0,1,.449,18.2,4.713,4.713,0,0,1,.06,16.991a3.931,3.931,0,0,1-.05-.952,2.756,2.756,0,0,1,.18-.848L3.319,1.9A2.845,2.845,0,0,1,3.885.952,2.753,2.753,0,0,1,4.746.3,3.149,3.149,0,0,1,6.131,0H19.493a3.149,3.149,0,0,1,1.385.3,2.753,2.753,0,0,1,.861.655A2.841,2.841,0,0,1,22.3,1.9l3.129,13.287a2.766,2.766,0,0,1,.18.848,3.931,3.931,0,0,1-.05.952,4.714,4.714,0,0,1-.389,1.207,3.305,3.305,0,0,1-.727,1.013,2.889,2.889,0,0,1-.794.527,2.557,2.557,0,0,1-.9.23H12.812Z" transform="translate(19684.277 -2070.139)"/><path class="a" d="M16.2,9.049H2.782a3.228,3.228,0,0,1-2.1-.691A2.72,2.72,0,0,1,.079,6.985,4.91,4.91,0,0,1,0,6.154V1.9A2.9,2.9,0,0,1,.565.952,2.755,2.755,0,0,1,1.427.3,3.147,3.147,0,0,1,2.811,0H16.173a3.148,3.148,0,0,1,1.385.3,2.752,2.752,0,0,1,.861.655,2.894,2.894,0,0,1,.565.952V6.154a4.913,4.913,0,0,1-.079.831A2.72,2.72,0,0,1,18.3,8.359,3.228,3.228,0,0,1,16.2,9.049Z" transform="translate(19687.598 -2070.139)"/><path class="c" d="M14.256,7.741H2.448A2.9,2.9,0,0,1,.6,7.15,2.3,2.3,0,0,1,.069,5.975,4.086,4.086,0,0,1,0,5.264V1.629A1.225,1.225,0,0,1,.342.815a3.124,3.124,0,0,1,.914-.56A2.836,2.836,0,0,1,2.473,0H14.231a2.837,2.837,0,0,1,1.218.255,3.122,3.122,0,0,1,.914.56,1.221,1.221,0,0,1,.342.815V5.264a4.088,4.088,0,0,1-.069.711A2.3,2.3,0,0,1,16.1,7.151,2.9,2.9,0,0,1,14.256,7.741Z" transform="translate(19688.736 -2070.139)"/><path class="a" d="M3.033,0A2.9,2.9,0,0,1,6.067,2.749v.786A2.9,2.9,0,0,1,3.033,6.284,2.9,2.9,0,0,1,0,3.535V2.749A2.9,2.9,0,0,1,3.033,0Z" transform="translate(19694.01 -2064.772)"/><path class="b" d="M2.167,0A2.167,2.167,0,1,1,0,2.167,2.167,2.167,0,0,1,2.167,0Z" transform="translate(19694.875 -2063.797)"/><path class="c" d="M14.022,9.47H12.641A17.184,17.184,0,0,0,12.185,7.6,9.862,9.862,0,0,0,10.676,4.44,6.47,6.47,0,0,0,8.317,2.692a3.161,3.161,0,0,0-1.306-.3,3.16,3.16,0,0,0-1.306.3A6.47,6.47,0,0,0,3.346,4.44,9.86,9.86,0,0,0,1.837,7.6,17.266,17.266,0,0,0,1.381,9.47H0v0A23.652,23.652,0,0,1,.573,7.04a18.486,18.486,0,0,1,.764-2.152A9.41,9.41,0,0,1,2.46,2.9,6.254,6.254,0,0,1,3.911,1.541,7.252,7.252,0,0,1,5.393.773,5.005,5.005,0,0,1,7.011.426,6.219,6.219,0,0,1,8.629.773a5.828,5.828,0,0,1,1.482.768A6.254,6.254,0,0,1,11.561,2.9a9.409,9.409,0,0,1,1.124,1.988,18.483,18.483,0,0,1,.764,2.152,23.488,23.488,0,0,1,.573,2.431Z" transform="translate(19690.146 -2079.072)"/></g></svg>