<svg xmlns="http://www.w3.org/2000/svg" width="10.355" height="7.965" viewBox="0 0 10.355 7.965"><defs><style>.a{fill:#252525;fill-rule:evenodd;}</style></defs><path class="a" d="M-4881.681,2154.476a.424.424,0,0,1-.119-.278.429.429,0,0,1,.119-.28l.558-.556a.385.385,0,0,1,.558,0l.04.039,2.192,2.351a.192.192,0,0,0,.278,0l5.336-5.537h.041a.384.384,0,0,1,.558,0l.557.558a.382.382,0,0,1,0,.556l-6.371,6.613a.363.363,0,0,1-.281.118.36.36,0,0,1-.278-.118l-3.108-3.345-.079-.121" transform="translate(4881.8 -2150.095)"/></svg>