<svg xmlns="http://www.w3.org/2000/svg" width="46.584" height="29.944" viewBox="0 0 46.584 29.944">
  <path id="Path_10" data-name="Path 10" d="M110.753,209.617,99.9,197.242a1.133,1.133,0,0,0-1.677-.031l-6,6.377a1.112,1.112,0,0,0,.129,1.642c9.965,7.773,16,13.229,18.277,15.357a1.136,1.136,0,0,0,1.754-.27c8.129-13.991,17.8-22.386,25.589-27.319a1.1,1.1,0,0,0,.41-1.44.2.2,0,0,0-.01-.024,1.13,1.13,0,0,0-1.453-.493,65.633,65.633,0,0,0-24.433,18.537,1.132,1.132,0,0,1-1.74.041" transform="translate(-91.924 -190.943)" fill="#fed000"/>
</svg>
