<svg xmlns="http://www.w3.org/2000/svg" width="100" height="100" viewBox="0 0 100 100">
  <g id="iStyle_isi" transform="translate(-20 -342)">
    <circle id="Ellipse_390" data-name="Ellipse 390" cx="50" cy="50" r="50" transform="translate(20 342)" fill="#ffea61"/>
    <g id="Group_6383" data-name="Group 6383" transform="translate(31.408 379.065)">
      <g id="Group_6349" data-name="Group 6349" transform="translate(7.069 3.244)">
        <rect id="Rectangle_824" data-name="Rectangle 824" width="2.485" height="12.758" transform="translate(32.056)" fill="#44474a"/>
        <rect id="Rectangle_825" data-name="Rectangle 825" width="2.485" height="9.25" transform="translate(0 3.507)" fill="#44474a"/>
        <path id="Path_4059" data-name="Path 4059" d="M130.417,258.341a5.843,5.843,0,0,1-1.983-.988l.876-2.062a5.818,5.818,0,0,0,1.7.9,6.065,6.065,0,0,0,1.975.338,3,3,0,0,0,1.625-.346,1.057,1.057,0,0,0,.526-.921.9.9,0,0,0-.311-.7,2.31,2.31,0,0,0-.8-.448q-.486-.169-1.314-.372a17.348,17.348,0,0,1-2.087-.642,3.4,3.4,0,0,1-1.394-1.031,2.894,2.894,0,0,1-.582-1.893,3.438,3.438,0,0,1,.526-1.867,3.584,3.584,0,0,1,1.585-1.327,6.143,6.143,0,0,1,2.588-.49,8.112,8.112,0,0,1,2.087.27,5.984,5.984,0,0,1,1.784.777l-.8,2.078a5.952,5.952,0,0,0-3.09-.929,2.765,2.765,0,0,0-1.6.371,1.151,1.151,0,0,0-.518.98.958.958,0,0,0,.6.9,8.947,8.947,0,0,0,1.824.583,17.441,17.441,0,0,1,2.087.642,3.456,3.456,0,0,1,1.394,1.014,2.826,2.826,0,0,1,.581,1.876,3.37,3.37,0,0,1-.534,1.85,3.631,3.631,0,0,1-1.6,1.326,6.2,6.2,0,0,1-2.6.49,8.633,8.633,0,0,1-2.557-.38" transform="translate(-124.281 -245.972)" fill="#44474a"/>
        <path id="Path_4060" data-name="Path 4060" d="M196.683,261.658a2.45,2.45,0,0,1-.9.443,4.181,4.181,0,0,1-1.123.148,3.163,3.163,0,0,1-2.365-.852,3.433,3.433,0,0,1-.836-2.5v-3.843h-1.322v-2.086h1.322v-2.278h2.485v2.278h2.135v2.086h-2.135v3.808a1.35,1.35,0,0,0,.279.913.985.985,0,0,0,.788.322,1.507,1.507,0,0,0,1-.348Z" transform="translate(-176.141 -249.501)" fill="#44474a"/>
        <path id="Path_4061" data-name="Path 4061" d="M245.263,265.242l-3.87,9.817a4.842,4.842,0,0,1-1.458,2.252,3.383,3.383,0,0,1-2.094.653,4.062,4.062,0,0,1-1.322-.223,2.858,2.858,0,0,1-1.067-.619l.908-1.909a2.105,2.105,0,0,0,.661.43,1.92,1.92,0,0,0,.74.155,1.248,1.248,0,0,0,.828-.266,2.277,2.277,0,0,0,.573-.885l.032-.086-3.711-9.319h2.564l2.405,6.276,2.421-6.276Z" transform="translate(-214.226 -261.735)" fill="#44474a"/>
        <path id="Path_4062" data-name="Path 4062" d="M329.535,268.845a1.925,1.925,0,0,1,.7-1.315,2.142,2.142,0,0,1,1.418-.482,2.1,2.1,0,0,1,1.4.493,1.915,1.915,0,0,1,.7,1.305Zm5.854,1.43h.018a.689.689,0,0,0,.691-.66s0-.006,0-.008a4.628,4.628,0,0,0-.581-2.349,3.96,3.96,0,0,0-1.6-1.553,5.078,5.078,0,0,0-4.611.024,4.185,4.185,0,0,0-1.641,1.577,4.379,4.379,0,0,0-.6,2.27v.007a.7.7,0,0,0,.7.692Z" transform="translate(-291.225 -261.668)" fill="#44474a"/>
        <path id="Path_4063" data-name="Path 4063" d="M338.749,303.194h-.005a1.1,1.1,0,0,0-1.014.275,2.658,2.658,0,0,1-3.44,0,1.1,1.1,0,0,0-1.014-.275h-.005a1.235,1.235,0,0,0-.5,2.168,5.079,5.079,0,0,0,3.208.99v-.033h0v.033a4.983,4.983,0,0,0,3.236-.99,1.23,1.23,0,0,0-.469-2.168" transform="translate(-295.631 -293.606)" fill="#e3001b"/>
        <path id="Path_4064" data-name="Path 4064" d="M391.12,308.916a1.084,1.084,0,0,1,.31.8,1.106,1.106,0,0,1-.31.808,1.072,1.072,0,0,1-.8.317,1.056,1.056,0,0,1-.788-.317,1.208,1.208,0,0,1-.007-1.609,1.062,1.062,0,0,1,.8-.31,1.083,1.083,0,0,1,.8.31" transform="translate(-343.464 -298.181)" fill="#44474a"/>
        <g id="Group_6348" data-name="Group 6348" transform="translate(49.603 0.308)">
          <path id="Path_4065" data-name="Path 4065" d="M413.333,246.559a1.408,1.408,0,0,1,1.531-1.374,1.383,1.383,0,0,1,1.531,1.327,1.538,1.538,0,0,1-3.063.047Zm.3,2.558H416.1v8.5h-2.463Z" transform="translate(-413.333 -245.185)" fill="#44474a"/>
          <path id="Path_4066" data-name="Path 4066" d="M448.586,249.642v11.716h-2.353v-.979a3.267,3.267,0,0,1-2.653,1.105,4.376,4.376,0,0,1,0-8.748,3.267,3.267,0,0,1,2.543,1.026v-4.121Zm-2.416,7.469a2.178,2.178,0,1,0-2.163,2.352A2.152,2.152,0,0,0,446.17,257.111Z" transform="translate(-435.186 -248.931)" fill="#44474a"/>
        </g>
      </g>
      <path id="Path_4067" data-name="Path 4067" d="M95.273,338.215c-26.053,0-36.252-6.551-36.673-6.83a1.105,1.105,0,0,1-.3-1.576,1.21,1.21,0,0,1,1.639-.292h0c.1.064,10.135,6.432,35.337,6.432,25.322,0,38.137-6.431,38.263-6.5a1.2,1.2,0,0,1,1.6.463,1.111,1.111,0,0,1-.48,1.534C134.118,331.726,121.257,338.215,95.273,338.215Z" transform="translate(-58.09 -312.345)" fill="#44474a"/>
      <path id="Path_4068" data-name="Path 4068" d="M90.263,226.444l-2.045-2.333a.214.214,0,0,0-.317-.006l-1.131,1.2a.21.21,0,0,0,.024.31c1.879,1.466,3.017,2.494,3.446,2.9a.214.214,0,0,0,.331-.051A14.751,14.751,0,0,1,95.4,223.31a.208.208,0,0,0,.077-.271l0,0a.213.213,0,0,0-.274-.093,12.373,12.373,0,0,0-4.607,3.5.214.214,0,0,1-.328.008" transform="translate(-82.147 -222.922)" fill="#e3001b"/>
    </g>
  </g>
</svg>
