<svg xmlns="http://www.w3.org/2000/svg" xmlns:xlink="http://www.w3.org/1999/xlink" width="100" height="100" viewBox="0 0 100 100">
  <defs>
    <linearGradient id="linear-gradient" x1="0.5" x2="0.5" y2="1" gradientUnits="objectBoundingBox">
      <stop offset="0" stop-color="#4489db"/>
      <stop offset="1" stop-color="#0a4ea0"/>
    </linearGradient>
  </defs>
  <g id="Kmall_isi" transform="translate(-138 -342)">
    <circle id="Ellipse_392" data-name="Ellipse 392" cx="50" cy="50" r="50" transform="translate(138 342)" fill="url(#linear-gradient)"/>
    <g id="Vector_Smart_Object" data-name="Vector Smart Object" transform="translate(153.884 382.851)">
      <g id="Group_3" data-name="Group 3" transform="translate(23.388 4.29)">
        <path id="Path_2" data-name="Path 2" d="M359.613,198.188a.926.926,0,0,1,.935-.927h.2a.979.979,0,0,1,.86.493l3.2,4.961,3.214-4.976a.935.935,0,0,1,.845-.478h.2a.926.926,0,0,1,.936.927v8.757a.914.914,0,0,1-.936.912.929.929,0,0,1-.92-.912v-6.276l-2.58,3.84a.87.87,0,0,1-1.554,0l-2.565-3.811v6.261a.9.9,0,0,1-.92.9.885.885,0,0,1-.905-.9Z" transform="translate(-359.613 -197.171)" fill="#fff"/>
        <path id="Path_3" data-name="Path 3" d="M390.581,206.464,394.5,197.8a1.177,1.177,0,0,1,1.116-.747h.09a1.157,1.157,0,0,1,1.1.747l3.923,8.667a.8.8,0,0,1,.106.389.866.866,0,0,1-.875.882.955.955,0,0,1-.9-.643l-.86-1.958h-5.13l-.89,2.017a.892.892,0,0,1-.86.583.846.846,0,0,1-.86-.852A.937.937,0,0,1,390.581,206.464Zm6.91-2.959-1.856-4.229-1.856,4.229Z" transform="translate(-377.334 -197.05)" fill="#fff"/>
        <path id="Path_4" data-name="Path 4" d="M421.344,198.138a.928.928,0,0,1,1.856,0v7.95h4.783a.837.837,0,1,1,0,1.674h-5.7a.917.917,0,0,1-.935-.926Z" transform="translate(-395.076 -197.152)" fill="#fff"/>
        <path id="Path_5" data-name="Path 5" d="M445.065,198.138a.928.928,0,0,1,1.856,0v7.95H451.7a.837.837,0,1,1,0,1.674H446a.917.917,0,0,1-.935-.926Z" transform="translate(-408.703 -197.152)" fill="#fff"/>
      </g>
      <path id="Path_6" data-name="Path 6" d="M315.922,188.161a4.126,4.126,0,0,1,5.8,0,4.016,4.016,0,0,1,0,5.774l-2.047,2.079,2.306,2.284a4.016,4.016,0,0,1,0,5.774,4.125,4.125,0,0,1-5.8,0l-2.306-2.284-1.892,1.95a4.211,4.211,0,0,1-3.265,1.488,4.039,4.039,0,0,1-4.068-4.029v-1.873Zm-11.271,10.214v-7.34c0-4.9,7.411-5.389,8.188-.8Z" transform="translate(-304.651 -186.968)" fill="#fff"/>
      <path id="Path_7" data-name="Path 7" d="M315.922,188.161a4.126,4.126,0,0,1,5.8,0,4.016,4.016,0,0,1,0,5.774l-2.047,2.079,2.306,2.284a4.016,4.016,0,0,1,0,5.774,4.125,4.125,0,0,1-5.8,0l-2.306-2.284-1.892,1.95a4.211,4.211,0,0,1-3.265,1.488,4.039,4.039,0,0,1-4.068-4.029v-1.873Z" transform="translate(-304.651 -186.968)" fill="#fff"/>
    </g>
  </g>
</svg>
