<svg xmlns="http://www.w3.org/2000/svg" xmlns:xlink="http://www.w3.org/1999/xlink" width="100" height="100" viewBox="0 0 100 100">
  <defs>
    <linearGradient id="linear-gradient" x1="0.5" x2="0.5" y2="1" gradientUnits="objectBoundingBox">
      <stop offset="0" stop-color="#fe5056"/>
      <stop offset="1" stop-color="#ed1f26"/>
    </linearGradient>
  </defs>
  <g id="Lottemart_isi" transform="translate(-255 -342)">
    <circle id="Ellipse_391" data-name="Ellipse 391" cx="50" cy="50" r="50" transform="translate(255 342)" fill="url(#linear-gradient)"/>
    <g id="Group_966" data-name="Group 966" transform="translate(-4396.204 -348.265)">
      <path id="path1057" d="M13.48-704.32c-4.222,0-6.752,2.5-6.752,5.591s2.53,5.589,6.752,5.589,6.756-2.5,6.756-5.589-2.53-5.591-6.756-5.591m0,9.978c-1.952,0-3.436-1.964-3.436-4.386s1.484-4.387,3.436-4.387,3.438,1.963,3.438,4.387S15.433-694.342,13.48-694.342Zm18.69-9.568H20.361v1.241h4.226v9.072h3.35v-9.072H32.17v-1.241m12.878,0H33.24v1.241h4.225v9.072h3.349v-9.072h4.234v-1.241m5.414,1.215h5.575v-1.216H47.69a1.455,1.455,0,0,0-1.572,1.651v7A1.455,1.455,0,0,0,47.69-693.6h8.348v-1.217H50.463c-.709-.043-1.007-.34-1.007-1.154v-2.792h6.487v-1.206H49.456v-1.568c0-.816.3-1.113,1.007-1.155M1.976-694.838c-.709-.042-1.008-.323-1.008-1.136v-7.934H-2.371v8.654A1.454,1.454,0,0,0-.8-693.6H6.789v-1.234H1.976" transform="translate(4674.371 1428.948)" fill="#fff"/>
      <path id="path1057-2" data-name="path1057" d="M722-720.41a3.42,3.42,0,0,1-3.186-4.513c.693-2.058,3.047-2.71,4.62-2.9.64-.072,1.349-.105,2.14-.125.044-.027.053-.24.052-.318a1.01,1.01,0,0,0-.327-.685c-.726-.691-2.936-.7-4.63.022a2.361,2.361,0,0,1-.489.177c-.01-.013-.164-.495-.342-1.069l-.323-1.045.5-.2a10.656,10.656,0,0,1,4.414-.722,4.83,4.83,0,0,1,3.741,1.345,3.839,3.839,0,0,1,1.012,1.816c.135.5.141.662.164,4.274l.023,3.752h-3.554v-.467a1.755,1.755,0,0,0-.032-.467,2.394,2.394,0,0,0-.333.238A4.878,4.878,0,0,1,722-720.41Zm2.674-2.613a2.076,2.076,0,0,0,.962-.874c.12-.237.139-.386.141-1.138l0-.865-.548.02a3.907,3.907,0,0,0-2.546.767,1.317,1.317,0,0,0,.467,2.208A2.312,2.312,0,0,0,724.672-723.023Zm18.356,2.518a3.685,3.685,0,0,1-1.675-.885,3.251,3.251,0,0,1-.795-1.536,14.327,14.327,0,0,1-.173-3.346l-.05-2.787-1.424.005c-1.633.006-2,.009-2.707.356a3.139,3.139,0,0,0-1.336,1.294l-.193.364-.018,3.219-.019,3.219h-3.67v-11.007h3.675v1.413l.336-.313a4.377,4.377,0,0,1,1.718-.913,8.137,8.137,0,0,1,2.088-.17l1.6-.033v-2.986h1.273c.7,0,1.513.02,1.805.043l.532.043v2.915h2.643v1.233l.007,1.317h-2.618L744-726.905c-.025,2.835.04,3.21.619,3.582.213.137.334.156,1.125.176l.886.023v2.722l-1.6-.005a12.2,12.2,0,0,1-2.01-.1Zm-43.175-.313c.021-.119.445-3.2.942-6.854s.92-6.705.938-6.788l.033-.15h4.106l.233.684c.128.376.756,2.257,1.394,4.18s1.175,3.51,1.192,3.528c.039.041-.11.453,1.557-4.289l1.431-4.069,2.069-.018c1.138-.01,2.07-.01,2.072,0s.416,3.155.919,6.989l.916,6.971-2.025.018c-1.114.01-2.038,0-2.054-.012s-.28-1.906-.587-4.2-.573-4.184-.592-4.2-.64,1.712-1.38,3.847-1.4,4.039-1.474,4.232l-.127.35h-2.675l-.58-1.751c-.319-.963-.939-2.838-1.378-4.166s-.815-2.393-.837-2.368-.3,1.9-.61,4.165l-.571,4.119h-2.952Z" transform="translate(3978.063 1476.289)" fill="#fff"/>
    </g>
  </g>
</svg>
