<svg xmlns="http://www.w3.org/2000/svg" width="70" height="70" viewBox="0 0 70 70"><path d="M2670,1188a35,35,0,1,1,35,35A34.99,34.99,0,0,1,2670,1188Zm7,0a28,28,0,1,0,28-28A28.083,28.083,0,0,0,2677,1188Zm28,11.375c-8.666,0-17.332,4.805-17.332,4.805a19.266,19.266,0,0,1,34.664,0S2713.666,1199.375,2705,1199.375Zm6.943-20.113a5.291,5.291,0,1,1,5.291,5.291A5.2,5.2,0,0,1,2711.942,1179.262Zm-24.467,0a5.291,5.291,0,1,1,5.291,5.291A5.2,5.2,0,0,1,2687.476,1179.262Z" transform="translate(-2670 -1153)"/></svg>