<svg xmlns="http://www.w3.org/2000/svg" xmlns:xlink="http://www.w3.org/1999/xlink" width="49" height="49" viewBox="0 0 49 49">
  <defs>
    <linearGradient id="linear-gradient" x1="0.5" x2="0.5" y2="1" gradientUnits="objectBoundingBox">
      <stop offset="0" stop-color="#fe5056"/>
      <stop offset="1" stop-color="#ed1f26"/>
    </linearGradient>
  </defs>
  <g id="Group_6630" data-name="Group 6630" transform="translate(-64 -207)">
    <circle id="Ellipse_391" data-name="Ellipse 391" cx="24.5" cy="24.5" r="24.5" transform="translate(64 207)" fill="url(#linear-gradient)"/>
    <g id="Group_966" data-name="Group 966" transform="translate(74.713 224.119)">
      <path id="path1057" d="M5.112-704.32c-1.993,0-3.188,1.182-3.188,2.64s1.194,2.638,3.188,2.638S8.3-700.223,8.3-701.68s-1.194-2.64-3.189-2.64m0,4.71A1.87,1.87,0,0,1,3.49-701.68a1.87,1.87,0,0,1,1.622-2.071,1.87,1.87,0,0,1,1.623,2.071A1.87,1.87,0,0,1,5.112-699.609Zm8.823-4.517H8.36v.586h1.995v4.283h1.582v-4.283h2v-.586m6.08,0H14.44v.586h1.994v4.283h1.581v-4.283h2v-.586m2.556.573H25.2v-.574H21.262a.687.687,0,0,0-.742.779v3.307a.687.687,0,0,0,.742.779H25.2v-.574H22.571c-.335-.02-.475-.161-.475-.545V-701.7h3.062v-.569H22.1v-.74c0-.385.141-.525.475-.545M-.319-699.844c-.335-.02-.476-.153-.476-.537v-3.745H-2.371v4.085a.686.686,0,0,0,.742.779H1.953v-.582H-.319" transform="translate(2.371 704.319)" fill="#fff"/>
      <path id="path1057-2" data-name="path1057" d="M710.287-727.906a1.614,1.614,0,0,1-1.5-2.131,2.459,2.459,0,0,1,2.181-1.368c.3-.034.637-.05,1.01-.059.021-.013.025-.113.025-.15a.477.477,0,0,0-.154-.323,2.465,2.465,0,0,0-2.186.01,1.116,1.116,0,0,1-.231.083c0-.006-.077-.234-.161-.5l-.153-.493.235-.1a5.033,5.033,0,0,1,2.084-.341,2.28,2.28,0,0,1,1.766.635,1.813,1.813,0,0,1,.478.857,8.765,8.765,0,0,1,.077,2.017l.011,1.771h-1.678v-.22a.835.835,0,0,0-.015-.22,1.125,1.125,0,0,0-.157.112A2.3,2.3,0,0,1,710.287-727.906Zm1.263-1.234a.979.979,0,0,0,.454-.413c.057-.112.066-.182.067-.537v-.408l-.259.01a1.843,1.843,0,0,0-1.2.362.622.622,0,0,0,.221,1.043A1.091,1.091,0,0,0,711.55-729.14Zm8.666,1.189a1.741,1.741,0,0,1-.791-.418,1.535,1.535,0,0,1-.375-.725,6.746,6.746,0,0,1-.082-1.579l-.024-1.316-.672,0a2.454,2.454,0,0,0-1.278.168,1.481,1.481,0,0,0-.631.611l-.091.172-.009,1.519L716.255-728h-1.733v-5.2h1.735v.667l.159-.148a2.066,2.066,0,0,1,.811-.431,3.84,3.84,0,0,1,.985-.08l.753-.016v-1.409h.6c.331,0,.714.009.852.02l.251.02v1.376h1.248v.582l0,.622h-1.236l-.009,1.017c-.012,1.338.019,1.515.292,1.691.1.065.158.073.531.083l.419.011v1.285l-.753,0A5.743,5.743,0,0,1,720.216-727.951Zm-20.382-.148c.01-.056.21-1.512.445-3.236s.434-3.165.443-3.2l.016-.071h1.939l.11.323c.06.178.357,1.066.658,1.973s.555,1.657.563,1.666-.052.214.735-2.025l.675-1.921.977-.008c.537,0,.977,0,.978,0s.2,1.489.434,3.3l.433,3.291-.956.008c-.526,0-.962,0-.97-.006s-.132-.9-.277-1.982-.27-1.975-.279-1.984-.3.808-.652,1.816-.663,1.907-.7,2l-.06.165h-1.263l-.274-.827-.65-1.966c-.207-.627-.385-1.13-.4-1.118s-.14.9-.288,1.966L701.21-728h-1.394Z" transform="translate(-697.041 742.659)" fill="#fff"/>
    </g>
  </g>
</svg>
