<svg xmlns="http://www.w3.org/2000/svg" width="20.399" height="25.256" viewBox="0 0 20.399 25.256"><defs><style>.a{fill:gray;}</style></defs><path class="a" d="M18.816,3.375H11.561A2.428,2.428,0,0,0,9.1,5.773v.516H8.646a2.428,2.428,0,0,0-2.459,2.4V26.173a2.48,2.48,0,0,0,2.459,2.459H21.275a2.428,2.428,0,0,0,2.4-2.459v-.455h.516a2.428,2.428,0,0,0,2.4-2.459V11.146Zm0,2.708,5.063,5.063H18.816Zm2.914,20.09a.49.49,0,0,1-.455.516H8.646a.541.541,0,0,1-.516-.516V8.687a.49.49,0,0,1,.516-.455H9.1V23.744a1.724,1.724,0,0,0,1.973,1.973H21.73Zm2.914-2.914a.49.49,0,0,1-.455.516H11.561a.541.541,0,0,1-.516-.516V5.773a.49.49,0,0,1,.516-.455h5.312v7.771h7.771Z" transform="translate(-6.188 -3.375)"/></svg>