<svg xmlns="http://www.w3.org/2000/svg" xmlns:xlink="http://www.w3.org/1999/xlink" width="52" height="52" viewBox="0 0 52 52"><defs><style>.a{fill:#00cc42;}.b{fill:#fff;}.c{clip-path:url(#a);}</style><clipPath id="a"><path class="a" d="M25.643,18.478v6.7a.3.3,0,0,1-.3.3H24.267a.312.312,0,0,1-.245-.123L20.95,21.211v3.977a.3.3,0,0,1-.3.3H19.574a.3.3,0,0,1-.3-.3v-6.7a.3.3,0,0,1,.3-.3h1.065a.284.284,0,0,1,.245.132l3.072,4.147V18.488a.3.3,0,0,1,.3-.3h1.074a.3.3,0,0,1,.311.292Zm-7.728-.3H16.841a.3.3,0,0,0-.3.3v6.7a.3.3,0,0,0,.3.3h1.074a.3.3,0,0,0,.3-.3v-6.7a.3.3,0,0,0-.3-.3Zm-2.592,5.617H12.393V18.478a.3.3,0,0,0-.3-.3H11.017a.3.3,0,0,0-.3.3v6.7a.277.277,0,0,0,.085.207.318.318,0,0,0,.207.085h4.307a.3.3,0,0,0,.3-.3V24.1a.3.3,0,0,0-.292-.3ZM31.3,18.177H26.991a.3.3,0,0,0-.3.3v6.7a.3.3,0,0,0,.3.3H31.3a.3.3,0,0,0,.3-.3V24.1a.3.3,0,0,0-.3-.3H28.367V22.672H31.3a.3.3,0,0,0,.3-.3V21.287a.3.3,0,0,0-.3-.3H28.367V19.854H31.3a.3.3,0,0,0,.3-.3V18.478a.317.317,0,0,0-.3-.3ZM42.22,9.95V36.837a7.676,7.676,0,0,1-7.7,7.634H7.634A7.682,7.682,0,0,1,0,36.771V9.884A7.682,7.682,0,0,1,7.7,2.25H34.587A7.676,7.676,0,0,1,42.22,9.95ZM36.415,21.5c0-6.88-6.9-12.478-15.371-12.478S5.673,14.624,5.673,21.5c0,6.163,5.466,11.328,12.855,12.308,1.8.386,1.593,1.046,1.187,3.468-.066.386-.311,1.517,1.329.829s8.849-5.212,12.082-8.925A11.134,11.134,0,0,0,36.415,21.5Z" transform="translate(0 -2.25)"/></clipPath></defs><g transform="translate(0 0.432)"><circle class="a" cx="26" cy="26" r="26" transform="translate(0 -0.432)"/><ellipse class="b" cx="18" cy="16" rx="18" ry="16" transform="translate(8 10.568)"/><g class="c" transform="translate(4.89 4.435)"><circle class="a" cx="26" cy="26" r="26" transform="translate(-4.89 -4.866)"/></g></g></svg>