<svg xmlns="http://www.w3.org/2000/svg" xmlns:xlink="http://www.w3.org/1999/xlink" width="275.814" height="120.615" viewBox="0 0 275.814 120.615"><defs><style>.a{fill:#fffce0;}.b{clip-path:url(#a);}.c{fill:#fef9c8;}.d,.e,.f,.g,.h,.i,.j,.k,.l,.m,.n,.o,.p,.q,.r,.s,.v{fill:#fec83e;}.d{opacity:0.271;}.e{opacity:0.05;}.f{opacity:0.63;}.g{opacity:0.451;}.h{opacity:0.375;}.i{opacity:0.915;}.j{opacity:0.794;}.k{opacity:0.355;}.l{opacity:0.213;}.m{opacity:0.493;}.n{opacity:0.056;}.o{opacity:0.622;}.p{opacity:0.712;}.q{opacity:0.299;}.r{opacity:0.224;}.s{opacity:0.668;}.t{fill:#1b44a5;}.u{fill:#fe9e3e;}.w{fill:#2bcbba;}.x{fill:#0fa49d;}.y{fill:#ead7c1;}.z{fill:#628bec;}.aa{fill:#665b5c;}.ab{fill:#f9efdc;}.ac{fill:#fff7af;}.ad{fill:#fcd201;}.ae{fill:#fdf078;}.af{fill:#55585b;}.ag{fill:#ec1c24;}.ah{fill:#4a3537;}.ai{fill:#3b69d6;}.aj{fill:#fff;}.ak{fill:#717171;font-size:8px;font-family:ArialMT, Arial;}</style><clipPath id="a"><path class="a" d="M-84.841-484.286H165.379s12.522-16.425,8.744-23.823-17.509-13.271-24.958-23.378-1.091-28.67-13.311-36.892-21-4.092-37.862-12.608-12.4-13.36-27.845-20.019-31.071-3.492-42.616,0-18.2,13.3-33.414,21.938-24.761-.985-38.813,1.146S-63.849-572.48-67.924-566c-6.206,10.816,5.39,18.681-1.593,31.342s-19.656,16.15-24.879,19.387-8.385,9.608-5.475,17.3S-84.841-484.286-84.841-484.286Z" transform="translate(100.98 604.901)"/></clipPath></defs><g transform="translate(-1.1 -2.064)"><path class="a" d="M-84.841-484.286H165.379s12.522-16.425,8.744-23.823-17.509-13.271-24.958-23.378-1.091-28.67-13.311-36.892-21-4.092-37.862-12.608-12.4-13.36-27.845-20.019-31.071-3.492-42.616,0-18.2,13.3-33.414,21.938-24.761-.985-38.813,1.146S-63.849-572.48-67.924-566c-6.206,10.816,5.39,18.681-1.593,31.342s-19.656,16.15-24.879,19.387-8.385,9.608-5.475,17.3S-84.841-484.286-84.841-484.286Z" transform="translate(102.08 606.965)"/><g class="b" transform="translate(1.1 2.064)"><g transform="translate(-97.691 -25.108)"><rect class="c" width="57.388" height="48.812" rx="10" transform="translate(103.562 42.876)"/><rect class="c" width="57.388" height="48.812" rx="10" transform="translate(168.205 42.876)"/><rect class="c" width="57.388" height="48.812" rx="10" transform="translate(103.562 100.263)"/><rect class="c" width="57.388" height="48.812" rx="10" transform="translate(168.205 100.263)"/><rect class="c" width="57.388" height="48.812" rx="10" transform="translate(232.849 42.876)"/><rect class="c" width="57.388" height="48.812" rx="10" transform="translate(297.492 42.876)"/><rect class="c" width="57.388" height="48.812" rx="10" transform="translate(232.849 100.263)"/><rect class="c" width="57.388" height="48.812" rx="10" transform="translate(297.492 100.263)"/><rect class="c" width="9.235" height="48.812" transform="translate(84.432 19.789)"/><rect class="c" width="8.575" height="29.683" transform="translate(0 79.815)"/><rect class="c" width="9.235" height="25.066" transform="translate(153.034)"/></g><g transform="translate(47.188 13.879)"><path class="d" d="M2.707,0,5.414,4.383H0Z" transform="translate(223.6 43.343) rotate(81)"/><path class="e" d="M6.83,0l6.83,11.058H0Z" transform="translate(219.254 30.459) rotate(-159)"/><path class="f" d="M6.472,0l6.472,10.479H0Z" transform="matrix(-0.423, 0.906, -0.906, -0.423, 173.195, 74.481)"/><path class="g" d="M4.2,0,8.4,6.8H0Z" transform="matrix(0.848, 0.53, -0.53, 0.848, 169.214, 53.624)"/><path class="h" d="M5,0l5,8.1H0Z" transform="translate(194.104 30.447) rotate(-48)"/><path class="i" d="M4.645,0,9.29,7.521H0Z" transform="matrix(0.999, 0.052, -0.052, 0.999, 126.784, 92.276)"/><path class="j" d="M.857,0l.857,1.388H0Z" transform="translate(151.2 72.006) rotate(143)"/><path class="k" d="M.456,0,.913.739H0Z" transform="matrix(-0.191, 0.982, -0.982, -0.191, 144.662, 51.8)"/><path class="l" d="M.529,0l.529.856H0Z" transform="translate(98.638 39.761) rotate(-13)"/><path class="m" d="M3.808,0,7.616,6.165H0Z" transform="matrix(0.94, -0.342, 0.342, 0.94, 92.638, 88.818)"/><path class="n" d="M4.105,0,8.211,6.647H0Z" transform="matrix(0.574, 0.819, -0.819, 0.574, 56.006, 73.739)"/><path class="o" d="M6.225,0l6.225,10.079H0Z" transform="translate(82.565 0) rotate(36)"/><path class="p" d="M3.615,0,7.23,5.853H0Z" transform="translate(65.647 43.343) rotate(-133)"/><path class="q" d="M2.234,0,4.468,3.617H0Z" transform="translate(16.18 64.159) rotate(102)"/><path class="r" d="M5.939,0l5.939,9.616H0Z" transform="matrix(0.899, -0.438, 0.438, 0.899, 3.924, 51.608)"/><path class="s" d="M3.665,0,7.329,5.933H0Z" transform="matrix(-0.839, 0.545, -0.545, -0.839, 9.378, 32.081)"/></g></g><g transform="translate(75.369 13.894)"><g transform="translate(0)"><g transform="translate(0)"><path class="t" d="M403.243,527.667l.207.191.08.08a.563.563,0,0,0,.08.08.521.521,0,0,1,.056.048,1.044,1.044,0,0,0,.175.167l.159.159.351.319a38.879,38.879,0,0,1,8.839-6.91,47.607,47.607,0,0,0-9.947,5.866m-20.58-.662a48.842,48.842,0,0,0,9.054,6.3,6.079,6.079,0,0,1,2.016.151,5.214,5.214,0,0,1,.685.191q.646.167,1.235.263-.821-.319-1.618-.662a64.587,64.587,0,0,1-11.374-6.241m11.278-8.369q2.152,2.1,4.145,4.041,2.59,2.511,4.934,4.766-.805-.805-1.53-1.658-1.411-1.658-2.861-3.2-1.937-2.072-3.937-3.969-1.706-1.61-3.459-3.1a13.689,13.689,0,0,0-2.311-1.467,8.049,8.049,0,0,0-5.93-.638,10.2,10.2,0,0,0-3.459,1.769,9.5,9.5,0,0,0-2.67,3.172,13.235,13.235,0,0,0-1.076,2.718,19.134,19.134,0,0,0-.582,2.869,36.722,36.722,0,0,0-.08,8.154,39.524,39.524,0,0,1,.207-7.436,15.2,15.2,0,0,1,2.048-6.249q2.8-4.288,6.91-4.727,4.129-.446,9.652,4.95m32.264-2.678a10.016,10.016,0,0,0-.59-.813,7.626,7.626,0,0,0-4.3-2.71,9.41,9.41,0,0,0-4.065.064q-2.391.526-4.758,1.116l-1.578.367q-6.958,1.729-13.837,3.873l18.683-4.3a12.222,12.222,0,0,1,5.555-.072,8.368,8.368,0,0,1,3.292,1.666q.295.255.582.558,3.4,3.419-.088,8.815Q428.948,519.983,426.206,515.958Z" transform="translate(-315.949 -431.51)"/><path class="u" d="M78.3,114.842a4.774,4.774,0,0,0,1.9,3.116q1.714,1.4,8.034.933a10.352,10.352,0,0,0,6.7-2.67,9.593,9.593,0,0,0,1.9-2.734,1.653,1.653,0,0,0-1.506-1.65,7.366,7.366,0,0,0-6.073,1.554,6.334,6.334,0,0,1-1.307.813,5.05,5.05,0,0,1-3.611.024,8.907,8.907,0,0,0-3.674-.566,3.445,3.445,0,0,0-2.3,1.076.322.322,0,0,1-.064.1M8.519,11.45A6.169,6.169,0,0,0,4.917,18l9.533,55.386a.076.076,0,0,1,.064.032h-.064l6.44,37.413q1.172,6.544,5.563,7.962a9.713,9.713,0,0,0,3.419.367q-5.2-1.124-6.464-8.329L7.411,18q-.821-4.91,1.108-6.552M112.326,112.985q-1-.223-1.961-.383,4.511,1.411,3.874,3.786-.351,1.395-3.244,2.144a5.2,5.2,0,0,0,3.021-.956,2.085,2.085,0,0,0,.67-2.8A3.115,3.115,0,0,0,112.326,112.985Z" transform="translate(-4.882 -10.548)"/><path class="v" d="M92.7,107.583a2.9,2.9,0,0,0-2.28,1.5,1.322,1.322,0,0,0-.072.941.08.08,0,0,0,.064-.04,3.445,3.445,0,0,1,2.3-1.076,8.907,8.907,0,0,1,3.674.566,5.05,5.05,0,0,0,3.611-.024,6.335,6.335,0,0,0,1.307-.813,7.366,7.366,0,0,1,6.073-1.554,1.653,1.653,0,0,1,1.506,1.65q1.044-2.566-1.339-3.132-4.591-.7-6.488,1.363a4.656,4.656,0,0,1-4.416,1.227q-.59-.1-1.235-.263a5.212,5.212,0,0,0-.685-.191,6.08,6.08,0,0,0-2.017-.151m2.447-29.315q.757.327.08.5l-4.344.223,4.3.406a1.017,1.017,0,0,1,.327.08.5.5,0,0,1,.191.175q.112.231-.614.47l-2.949.391,2.519.135q.574-.008.558.239.008.287-.948.63l-4.041.933a1.629,1.629,0,0,0,1.634.51,10.683,10.683,0,0,1,1.427-.295h.375a.488.488,0,0,1,.462.255q.024.813-2.439,1.315a14.22,14.22,0,0,1-3.459.351l-.383.805h7.444l.582-1.243a.339.339,0,0,1-.088-.223q.032-.12.279-.175l.183-.422-.287.072q-.677.183-.789-.223-.048-.279.446-.526l.51-.239.638-.215.207-.422-.677.112q-.948.088-.813-.271a1,1,0,0,1,.494-.383l1.443-.438.032-.112a7.186,7.186,0,0,1-1.156.016q-.422-.072-.383-.414t.558-.422l1.467-.207,2.7-5.93H93.12l-.893,2.009-.917,2.024a24.648,24.648,0,0,1,3.834.51m.813-2.646a.676.676,0,0,1,.446-.167.4.4,0,0,1,.343.167.483.483,0,0,1,.064.391.657.657,0,0,1-.263.391.679.679,0,0,1-.446.175.386.386,0,0,1-.351-.175.476.476,0,0,1-.064-.391.678.678,0,0,1,.271-.391M59.891,25.368a.1.1,0,0,1,.016.056l1.2,6.886.805,4.575,1.068,6.089,1.2,6.743q.135-.088.295-.183,1.961-1.1.948-2.559-2.71-4.687.112-8.7l-3.124-17.6q-1.363-7.962-7.859-9.222L25.539,6.016a8.949,8.949,0,0,0-2.471-.207h-.343a14.181,14.181,0,0,0-2.16.885q-1.929,1.642-1.108,6.552l16,92.831q1.259,7.205,6.464,8.329a13.231,13.231,0,0,0,2.463.167l28.12-1.514a8.263,8.263,0,0,0,1.227-.136,4.722,4.722,0,0,0,3.515-2.734,14.676,14.676,0,0,1-2.017-1.036,11.891,11.891,0,0,1-2.574-2.192,2.817,2.817,0,0,1-.207.287h.016a2.89,2.89,0,0,1-.574.534l-2.367.821-22.668,1.3q-5.938.319-7.325-7.691L36.02,81.942l-.008-.04v.016l-1.371-7.827-.98-5.7L25.045,18.7q-1.331-7.859,4.806-6.552l3.252.6-.032-.008L52.9,16.314q6.01,1.761,6.99,9.054m9.158,32.758a.219.219,0,0,1-.064.056,1.832,1.832,0,0,1-2.6-.024,2.84,2.84,0,0,1-.7.08l.956,5.412L69.679,61.7l-.63-3.571m57.235,53.505q.638-2.375-3.874-3.786a22.616,22.616,0,0,0-9.477.3q.654.351,1.068.542a1.73,1.73,0,0,1,1,1.164,1.8,1.8,0,0,1-1.642,2.431,8.543,8.543,0,0,1-3.874-.271,29.112,29.112,0,0,0,13.55,1.761Q125.934,113.026,126.285,111.632Z" transform="translate(-16.928 -5.791)"/><path class="w" d="M320.82,376.887a1.53,1.53,0,0,1,.008-.167,1.372,1.372,0,0,0-.5-1.315h-1.068l.383-.805a1.366,1.366,0,0,0-.207-.016,3.957,3.957,0,0,0-1.857.662q-1.124,1.331-2.192,2.463a8.048,8.048,0,0,1,5.93.638.945.945,0,0,0,.112-.04,2.079,2.079,0,0,1-.606-1.419m-17.407,7.1a4.626,4.626,0,0,0-1.339.383,1.3,1.3,0,0,0-.63.558,10.465,10.465,0,0,0-.167,6.623q.391-.415.8-.821,1.06-1.076,2.16-2.072,1.2-1.092,2.407-2.088.279-.231.566-.446.494-.383.972-.757a13.237,13.237,0,0,1,1.076-2.718,10.546,10.546,0,0,1-2.519,1l-.1.016a6.373,6.373,0,0,1-1.02.167,15.565,15.565,0,0,0-2.208.159m-1.459-32.838-.861.558-3.037,1.953-1.108.709a4.861,4.861,0,0,0-2.423,4.511l.917,12.474h9.588l-.678-9.317,1.02,7.412,1.323,3.188a52.391,52.391,0,0,1,8.3-2.893q.151-.1,1.929-1.267a5.954,5.954,0,0,1,4.344-.789q1.53-2.16-.558-5.268-2.025-2.981-2.08-4.75a2.732,2.732,0,0,1,.064-.733,5.827,5.827,0,0,0,.112.733,9.709,9.709,0,0,0,2.351,4.073,5.519,5.519,0,0,1,1.06,5.978l.51.048.917-2.024a49.094,49.094,0,0,0-1.419-7.516q-.064-.287-.128-.558a7.2,7.2,0,0,0-2.495-3.945,5.362,5.362,0,0,0-.845-.55l-4.9-2.375a8.641,8.641,0,0,1,.654,2.925,4.9,4.9,0,0,1-.813,2.814,2.98,2.98,0,0,1-1.172,1.132,1.945,1.945,0,0,1-1.65,0,3.723,3.723,0,0,1-.956-.558Z" transform="translate(-248.342 -295.803)"/><path class="x" d="M338.63,416.734a4.627,4.627,0,0,1,1.339-.383,15.561,15.561,0,0,1,2.208-.159,6.381,6.381,0,0,0,1.02-.167l.1-.016a10.544,10.544,0,0,0,2.519-1,9.5,9.5,0,0,1,2.67-3.172,10.2,10.2,0,0,1,3.459-1.769q1.068-1.132,2.192-2.463l-11.517,6.918a11.292,11.292,0,0,1-2.782,1.06,10.726,10.726,0,0,1-1.2.2h-.048q-.335.765-.582,1.506a1.3,1.3,0,0,1,.63-.558m2.957-13.016h-1.379l.1,2.7q.223-.12.462-.231.367-.191.741-.367.829-.422,1.69-.805a.1.1,0,0,1,.056-.016l-1.323-3.188-1.02-7.412.677,9.317m13.773-13.685a5.84,5.84,0,0,1-.112-.733,2.737,2.737,0,0,0-.064.733q.056,1.769,2.08,4.75,2.088,3.108.558,5.268l.948.032a5.519,5.519,0,0,0-1.06-5.978A9.71,9.71,0,0,1,355.359,390.033Z" transform="translate(-284.898 -328.166)"/><path class="y" d="M342.391,347.511a5.622,5.622,0,0,1,1.929-3.778q-.239.112-.462.231a2.663,2.663,0,0,0-1.626,2.638,7.882,7.882,0,0,0,.12,1.554,5.079,5.079,0,0,1,.04-.646M351.884,320l-.1-1.339,1.754-1.188,1.14-.773a4.4,4.4,0,0,1-2.136.614A9.527,9.527,0,0,1,345.683,315l.207,2.726a2.359,2.359,0,0,1-.311.646,8.081,8.081,0,0,1,4.192,1.674Q351.86,321.576,351.884,320Z" transform="translate(-288.453 -265.71)"/><path class="z" d="M366.154,527.69q-1.993-1.937-4.145-4.041-5.523-5.4-9.652-4.95-4.113.438-6.91,4.726a15.2,15.2,0,0,0-2.048,6.249,39.526,39.526,0,0,0-.207,7.436,36.723,36.723,0,0,1,.08-8.154,19.147,19.147,0,0,1,.582-2.869q-.478.375-.972.757-.287.215-.566.446-1.212,1-2.407,2.088-1.1,1-2.16,2.072-.406.407-.8.821a15.435,15.435,0,0,0,.8,2.256,12.211,12.211,0,0,0,1.993,3.164,11.889,11.889,0,0,0,2.574,2.192,14.664,14.664,0,0,0,2.017,1.036,18.01,18.01,0,0,0,4.041,1.108,16.988,16.988,0,0,0,8.919-1.219.425.425,0,0,1,.143-.056,1.322,1.322,0,0,1,.072-.941,2.9,2.9,0,0,1,2.28-1.5,48.845,48.845,0,0,1-9.054-6.3,64.6,64.6,0,0,0,11.374,6.241q.8.343,1.618.661a4.656,4.656,0,0,0,4.416-1.227q1.9-2.064,6.488-1.363,2.383.566,1.339,3.132a9.6,9.6,0,0,1-1.9,2.734q1.156.271,2.335.518a.559.559,0,0,1,.175.032,8.543,8.543,0,0,0,3.874.271,1.8,1.8,0,0,0,1.642-2.431,1.73,1.73,0,0,0-1-1.164q-.414-.191-1.068-.542-.391-.191-.749-.391a35.353,35.353,0,0,1-6.855-4.766l-.351-.319-.159-.159a1.042,1.042,0,0,1-.175-.167.53.53,0,0,0-.056-.048.564.564,0,0,1-.08-.08l-.08-.08-.207-.191-.223-.223q-2.343-2.256-4.934-4.766m26.526-7.532a8.367,8.367,0,0,0-3.292-1.666,12.224,12.224,0,0,0-5.555.072l-18.683,4.3q-1.2.375-2.391.765,2,1.9,3.937,3.969,11.557-4.75,20.2-4.989,6.679-.327,5.141,4.87-1.124,3.8-6.177,7.9a32.69,32.69,0,0,0,5.922-4.376,15.612,15.612,0,0,0,1.339-1.411.22.22,0,0,0,.056-.064q3.491-5.4.088-8.815Q392.974,520.413,392.679,520.158Z" transform="translate(-284.016 -436.523)"/><path class="aa" d="M324.089,219.434a.8.8,0,0,0-.717.558.476.476,0,0,0,.064.391.385.385,0,0,0,.351.175.678.678,0,0,0,.446-.175.657.657,0,0,0,.263-.391.483.483,0,0,0-.064-.391.4.4,0,0,0-.343-.167m-16.036-39.988q-5.029-4.742-12.083,0a13.486,13.486,0,0,0-2.75,2.806q-2.822,4.017-.112,8.7,1.012,1.459-.949,2.559-.159.1-.295.183a2.634,2.634,0,0,0-1.1,3.132q-1.777,2.152,1.028,3.738.327,1.6,1.578,1.65a2.84,2.84,0,0,0,.7-.08,1.832,1.832,0,0,0,2.6.024.22.22,0,0,0,.064-.056,1.636,1.636,0,0,1,1.06-.383,2.027,2.027,0,0,1,1.219.407,5.628,5.628,0,0,0,1.036.614q1.14.47,1.69-.311a2.358,2.358,0,0,0,.311-.646l-.207-2.726a13.6,13.6,0,0,1-2.032-2.12,1.354,1.354,0,0,0,1.108-1.164,2.328,2.328,0,0,0-1.347-2.455,2.951,2.951,0,0,0,1.116-4.344,3.626,3.626,0,0,0,2.75-.438,3.3,3.3,0,0,0,1.658-2.6q.223-1.825,2.112-.909a23.12,23.12,0,0,0,3.1,1.235,1.947,1.947,0,0,1,.949.566q.12-.821,1.116-.869,1.475-.638,1.53-1.61.191-3.212-2.5-3.762A8.108,8.108,0,0,1,308.053,179.446Z" transform="translate(-244.614 -149.771)"/><path class="ab" d="M339.864,263.905l-.438.08-1.467.207q-.526.072-.558.422t.383.414a7.193,7.193,0,0,0,1.156-.016l.422-.032-.454.143-1.443.438a1,1,0,0,0-.494.383q-.135.359.813.271l.678-.112,1.371-.247a15.929,15.929,0,0,1-1.578.67l-.638.215-.51.239q-.494.247-.446.526.112.407.789.223l.287-.072,1.753-.383a1.791,1.791,0,0,1-.6.478,2.808,2.808,0,0,1-1.188.287.369.369,0,0,0-.151.04q-.247.056-.279.175a.339.339,0,0,0,.088.223.767.767,0,0,0,.422.167,3.692,3.692,0,0,0,1.339-.024,1,1,0,0,0,.917-.893.688.688,0,0,0,.454-.837.7.7,0,0,0,.287-.558.665.665,0,0,0-.343-.566.567.567,0,0,0,.112-.622.458.458,0,0,0-.534-.327q.494-.773-.151-.917M306.5,265.675l.048.606.478,6.384a7.008,7.008,0,0,0,.08.964,5.284,5.284,0,0,0,1.02,2.383,4.446,4.446,0,0,0,3.977,1.73h.048a10.736,10.736,0,0,0,1.2-.2,11.29,11.29,0,0,0,2.782-1.06l11.517-6.918a3.956,3.956,0,0,1,1.857-.662,1.365,1.365,0,0,1,.207.016,14.22,14.22,0,0,0,3.459-.351q2.463-.5,2.439-1.315a.488.488,0,0,0-.462-.255h-.375a10.689,10.689,0,0,0-1.427.295,1.629,1.629,0,0,1-1.634-.51l4.041-.933q.956-.343.949-.63.016-.247-.558-.239l-2.519-.136,2.949-.391q.725-.239.614-.47a.5.5,0,0,0-.191-.175,1.018,1.018,0,0,0-.327-.08l-4.3-.406,4.344-.223q.677-.175-.08-.5a24.65,24.65,0,0,0-3.834-.51l-.51-.048-.948-.032A5.954,5.954,0,0,0,327,262.8q-1.777,1.172-1.929,1.267a52.391,52.391,0,0,0-8.3,2.893.1.1,0,0,0-.056.016q-.861.383-1.69.805-.375.175-.741.367a5.622,5.622,0,0,0-1.929,3.778,5.072,5.072,0,0,0-.04.646,7.881,7.881,0,0,1-.12-1.554,2.663,2.663,0,0,1,1.626-2.638l-.1-2.7H306.5m9.046-22.891q-.55.781-1.69.311l.04,1.379-1.865,1,7.962,5.962a3.725,3.725,0,0,0,.956.558,1.945,1.945,0,0,0,1.65,0,2.981,2.981,0,0,0,1.172-1.132,4.9,4.9,0,0,0,.813-2.814,8.644,8.644,0,0,0-.654-2.925l-2.08-.709q-.024,1.578-2.112.048a8.081,8.081,0,0,0-4.192-1.674m9.517-15.6a1.947,1.947,0,0,0-.948-.566,23.123,23.123,0,0,1-3.1-1.235q-1.889-.917-2.112.909a3.3,3.3,0,0,1-1.658,2.6,3.626,3.626,0,0,1-2.75.438,2.951,2.951,0,0,1-1.116,4.344,2.328,2.328,0,0,1,1.347,2.455,1.354,1.354,0,0,1-1.108,1.164,13.592,13.592,0,0,0,2.032,2.12,9.527,9.527,0,0,0,6.854,2.311,4.405,4.405,0,0,0,2.136-.614.214.214,0,0,0,.056-.04,4.842,4.842,0,0,0,1.977-3.22,14.813,14.813,0,0,0-1.219-10.083A2.855,2.855,0,0,0,325.063,227.186Z" transform="translate(-258.42 -190.122)"/><path class="ac" d="M109.1,118.6l3.507,20.269q1.387,8.01,7.325,7.691l22.668-1.3,2.367-.821a2.888,2.888,0,0,0,.574-.534h-.016L109.1,118.6m23.887-56.518a.1.1,0,0,0-.016-.056q-.98-7.293-6.99-9.054L106.15,49.4l.032.008L134.19,68.967Z" transform="translate(-90.007 -42.448)"/><path class="ad" d="M85.735,176.673a2.325,2.325,0,0,0-.885-2.479,2.479,2.479,0,0,0-.972-.462,2.175,2.175,0,0,0-1.124.088,4.727,4.727,0,0,1-3.642-.311,4.813,4.813,0,0,1-2.63-2.646,1.8,1.8,0,0,0-.606-.893,2.565,2.565,0,0,0-2.885-.143l.98,5.7a11.92,11.92,0,0,0,3.132,2.064,10.208,10.208,0,0,0,6.767.972,2.437,2.437,0,0,0,1.865-1.889m18.651,6.711a2.034,2.034,0,0,0-.462,1,4.791,4.791,0,0,1-2.088,2.989,4.885,4.885,0,0,1-3.627.956,1.867,1.867,0,0,0-1.076.064,2.583,2.583,0,0,0-.885.614,2.442,2.442,0,0,0-.5,2.622,2.349,2.349,0,0,0,2.168,1.562,9.989,9.989,0,0,0,6.456-2.04q.3-.215.574-.422a7.014,7.014,0,0,1-.08-.964l-.478-6.384M80.251,142.655a2.66,2.66,0,0,0,.933.574,2.065,2.065,0,0,0,1.124.056,4.677,4.677,0,0,1,3.563.725,4.987,4.987,0,0,1,2.319,2.949,1.665,1.665,0,0,0,.486.964,2.345,2.345,0,0,0,.9.566,2.4,2.4,0,0,0,2.606-.566,2.336,2.336,0,0,0,.574-2.59,9.961,9.961,0,0,0-4.424-5.125,10.1,10.1,0,0,0-6.568-1.761,2.466,2.466,0,0,0-2.1,1.658,2.3,2.3,0,0,0,.582,2.551m-13.8-14.418A4.326,4.326,0,0,1,66,129.456l.941,5.444a10.083,10.083,0,0,0,4.137-5.149,2.455,2.455,0,0,0-.638-2.582,3.486,3.486,0,0,0-.462-.367,2.3,2.3,0,0,0-2.112-.159,3.419,3.419,0,0,0-.311.159,2.907,2.907,0,0,0-.6.43,2.1,2.1,0,0,0-.5,1M98.918,135a2.4,2.4,0,0,0-2.606.558,2.348,2.348,0,0,0-.582,2.6,9.961,9.961,0,0,0,4.424,5.125,13.353,13.353,0,0,0,2.16,1.124l-1.068-6.089a4.61,4.61,0,0,1-.948-1.785,1.747,1.747,0,0,0-.47-.972A2.56,2.56,0,0,0,98.918,135Z" transform="translate(-56.257 -107.225)"/><path class="ae" d="M86.486,66.691a2.4,2.4,0,0,1,2.606-.558,2.56,2.56,0,0,1,.909.558,1.747,1.747,0,0,1,.47.972,4.61,4.61,0,0,0,.948,1.785l-.805-4.575L62.607,45.315l-3.252-.6q-6.137-1.307-4.806,6.552l8.616,49.687a2.565,2.565,0,0,1,2.885.143,1.8,1.8,0,0,1,.606.893,4.813,4.813,0,0,0,2.63,2.646,4.727,4.727,0,0,0,3.642.311,2.175,2.175,0,0,1,1.124-.088,2.479,2.479,0,0,1,.972.462,2.325,2.325,0,0,1,.885,2.479,2.437,2.437,0,0,1-1.865,1.889,10.208,10.208,0,0,1-6.767-.972,11.92,11.92,0,0,1-3.132-2.064l1.371,7.827v-.016l.008.04,36.425,25.306a2.82,2.82,0,0,0,.207-.287,12.21,12.21,0,0,1-1.993-3.164,15.424,15.424,0,0,1-.8-2.256,10.465,10.465,0,0,1,.167-6.623q.247-.741.582-1.506a4.445,4.445,0,0,1-3.977-1.73,5.284,5.284,0,0,1-1.02-2.383q-.271.207-.574.422a9.989,9.989,0,0,1-6.456,2.04,2.349,2.349,0,0,1-2.168-1.562,2.442,2.442,0,0,1,.5-2.622,2.582,2.582,0,0,1,.885-.614,1.867,1.867,0,0,1,1.076-.064,4.885,4.885,0,0,0,3.627-.956,4.791,4.791,0,0,0,2.088-2.989,2.034,2.034,0,0,1,.462-1l-.048-.606h-.98l-.917-12.474a4.861,4.861,0,0,1,2.423-4.511l1.108-.709L95.19,90.8q-1.251-.048-1.578-1.65-2.806-1.586-1.028-3.738a2.634,2.634,0,0,1,1.1-3.132l-1.2-6.743a13.351,13.351,0,0,1-2.16-1.124A9.961,9.961,0,0,1,85.9,69.29a2.348,2.348,0,0,1,.582-2.6M56.175,60.586a4.326,4.326,0,0,0,.454-1.219,2.1,2.1,0,0,1,.5-1,2.908,2.908,0,0,1,.6-.43,3.428,3.428,0,0,1,.311-.159,2.3,2.3,0,0,1,2.112.159,3.486,3.486,0,0,1,.462.367,2.455,2.455,0,0,1,.638,2.582,10.082,10.082,0,0,1-4.137,5.149l-.941-5.444M71.359,74.359a2.66,2.66,0,0,1-.933-.574,2.3,2.3,0,0,1-.582-2.551,2.466,2.466,0,0,1,2.1-1.658,10.1,10.1,0,0,1,6.568,1.761,9.961,9.961,0,0,1,4.424,5.125,2.336,2.336,0,0,1-.574,2.59,2.4,2.4,0,0,1-2.606.566,2.345,2.345,0,0,1-.9-.566,1.665,1.665,0,0,1-.486-.964,4.987,4.987,0,0,0-2.319-2.949,4.676,4.676,0,0,0-3.563-.725,2.065,2.065,0,0,1-1.124-.056m-4.384,10.25q.024.008.032.048a.121.121,0,0,1,.032.064.057.057,0,0,0-.04.056,4.03,4.03,0,0,0-1.634,1.9.183.183,0,0,0-.048.024.126.126,0,0,1-.08-.016q-.646-.542-1.578-1.251a.2.2,0,0,1-.072-.056q-.016-.04.04-.056L64,84.872q0-.032.064-.016.024-.008.072.024l.988.972q.008.032.064.04l.064-.032a2.061,2.061,0,0,1,.5-.566,3.582,3.582,0,0,1,1.148-.677q-.024-.016.032-.008h.04m1.419,1.562a3.506,3.506,0,0,1,.861.159,2.757,2.757,0,0,1,.789.367l-.191.813a2.962,2.962,0,0,0-1.331-.478.932.932,0,0,0-.614.112.332.332,0,0,0-.151.383.531.531,0,0,0,.3.391,6.7,6.7,0,0,0,.8.279q.518.159.885.311a2.05,2.05,0,0,1,.654.446,1.487,1.487,0,0,1,.359.781,1.458,1.458,0,0,1-.1.725,1.3,1.3,0,0,1-.574.51,2.705,2.705,0,0,1-1.02.112,4.1,4.1,0,0,1-1.084-.223,3.508,3.508,0,0,1-.885-.446l.223-.813a4.582,4.582,0,0,0,.749.4,4.226,4.226,0,0,0,.861.207,1.32,1.32,0,0,0,.638-.112.325.325,0,0,0,.143-.343.426.426,0,0,0-.175-.295.957.957,0,0,0-.351-.2,2.693,2.693,0,0,0-.55-.2,6.7,6.7,0,0,1-.909-.319,1.623,1.623,0,0,1-.63-.446,1.346,1.346,0,0,1-.375-.773,1.168,1.168,0,0,1,.1-.741.883.883,0,0,1,.558-.478,1.977,1.977,0,0,1,1.02-.128m2.343,2.152-.143-.837.542.032-.151-.893L72,86.7l.159.885.861.056.159.861-.885-.056.295,1.514a.582.582,0,0,0,.167.383.516.516,0,0,0,.351.151.712.712,0,0,0,.391-.112l.4.805a1.979,1.979,0,0,1-.335.143,3.443,3.443,0,0,1-.454.032,1.635,1.635,0,0,1-1.02-.414,1.749,1.749,0,0,1-.542-1.028L71.3,88.379l-.566-.056m-4.256,2.59-1.012-.072-.574-3.722,1,.064.59,3.73m-3.116.271q-.008-.016.9.454,1.2.558,2.726,1.1a47.605,47.605,0,0,0,11.493,2.048,44.745,44.745,0,0,0,11.5-.534,17.461,17.461,0,0,0,3.65-1.068.358.358,0,0,1,.351-.032.766.766,0,0,1,.335.255,1.437,1.437,0,0,1,.1.2,1.374,1.374,0,0,0,.008.151.348.348,0,0,1-.151.263A17.037,17.037,0,0,1,90.44,95.17a45.59,45.59,0,0,1-11.8.558,46.913,46.913,0,0,1-11.868-2.144,24.555,24.555,0,0,1-2.853-1.132,8.432,8.432,0,0,1-.988-.55.517.517,0,0,1-.255-.319q-.048-.072-.016-.08a.28.28,0,0,1,.024-.255A.358.358,0,0,1,63,91.1a.381.381,0,0,1,.367.08m17.989-2.949a2.345,2.345,0,0,1,2.152,1.913l.024.008q-.024.1-.04.175a1.068,1.068,0,0,1-.183.064L80.2,90.172a.637.637,0,0,1-.239-.08.462.462,0,0,1-.12-.215v-.008a1.379,1.379,0,0,1,.072-.885.883.883,0,0,1,.518-.582,1.568,1.568,0,0,1,.925-.167M80.7,90.6a.294.294,0,0,1,.247.016.381.381,0,0,1,.2.128,1.325,1.325,0,0,0,.765.311.917.917,0,0,0,.638-.215.176.176,0,0,1,.175-.1.355.355,0,0,1,.215.024.64.64,0,0,1,.462.407.419.419,0,0,1-.08.47,1.749,1.749,0,0,1-1.243.319,2.439,2.439,0,0,1-1.387-.5.571.571,0,0,1-.287-.486q0-.343.295-.367m-1.012,1.2-1.02-.064L77.7,86.625l1,.056.988,5.117m4.695.151a.532.532,0,0,1-.2-.327q-.064-.231.072-.319a.269.269,0,0,1,.287-.12.45.45,0,0,1,.351.159.677.677,0,0,1,.191.327.371.371,0,0,1-.064.335.413.413,0,0,1-.279.1.757.757,0,0,1-.359-.159m-7.8-4.041.964.064-.837,3.866a1.569,1.569,0,0,1-.43.869,1.363,1.363,0,0,1-.821.207,2.253,2.253,0,0,1-.558-.135,1.981,1.981,0,0,1-.5-.271l.247-.757a1.013,1.013,0,0,0,.311.2,1.066,1.066,0,0,0,.3.08.58.58,0,0,0,.335-.088.814.814,0,0,0,.175-.335v-.04L73.558,87.7l1.06.072,1.459,2.606.5-2.471m12.681-.1,1,.072,1.068,4.695-.956-.056-.1-.4a1.066,1.066,0,0,1-.988.383,2.267,2.267,0,0,1-1.323-.574,2.376,2.376,0,0,1-.789-1.315,1.381,1.381,0,0,1,.191-1.267,1.312,1.312,0,0,1,1.156-.367,1.79,1.79,0,0,1,1.124.47l-.391-1.642m-3.834-.55a.768.768,0,0,1,.47.183.68.68,0,0,1,.247.383.487.487,0,0,1-.072.391.6.6,0,0,1-.407.143.867.867,0,0,1-.494-.2.548.548,0,0,1-.239-.383A.3.3,0,0,1,85,87.4a.505.505,0,0,1,.422-.143m.55,4.974L85.267,88.8l1,.064.725,3.411-1.012-.048M88.3,90a.691.691,0,0,0-.112.67,1.179,1.179,0,0,0,.414.717,1.194,1.194,0,0,0,.685.3.707.707,0,0,0,.582-.231.824.824,0,0,0,.08-.662,1.421,1.421,0,0,0-.4-.7,1,1,0,0,0-.685-.3A.56.56,0,0,0,88.3,90m-7.341-.853a.527.527,0,0,0-.167.518l1.706.112a1.2,1.2,0,0,0-.391-.542.965.965,0,0,0-.6-.247A.624.624,0,0,0,80.963,89.144Z" transform="translate(-46.432 -38.355)"/><path class="af" d="M129.2,308.312l.709,3.427,1.012.048-.725-3.411-1-.064m.63-1.363a.768.768,0,0,0-.47-.183.505.505,0,0,0-.422.143.3.3,0,0,0-.072.375.548.548,0,0,0,.239.383.867.867,0,0,0,.494.2.6.6,0,0,0,.406-.143.487.487,0,0,0,.072-.391.68.68,0,0,0-.247-.383m4.368.438-1-.072.391,1.642a1.79,1.79,0,0,0-1.124-.47,1.312,1.312,0,0,0-1.156.367,1.381,1.381,0,0,0-.191,1.267,2.376,2.376,0,0,0,.789,1.315,2.267,2.267,0,0,0,1.323.574,1.066,1.066,0,0,0,.988-.383l.1.4.956.056-1.068-4.695m-2.072,2.79a.691.691,0,0,1,.112-.669.56.56,0,0,1,.566-.207,1,1,0,0,1,.685.3,1.421,1.421,0,0,1,.4.7.824.824,0,0,1-.08.662.707.707,0,0,1-.582.231,1.2,1.2,0,0,1-.685-.3,1.179,1.179,0,0,1-.414-.717m-10.648-2.694-.964-.064-.5,2.471-1.459-2.606-1.06-.072,2.208,3.866v.04a.814.814,0,0,1-.175.335.58.58,0,0,1-.335.088,1.065,1.065,0,0,1-.3-.08,1.013,1.013,0,0,1-.311-.2l-.247.757a1.979,1.979,0,0,0,.5.271,2.253,2.253,0,0,0,.558.136,1.363,1.363,0,0,0,.821-.207,1.569,1.569,0,0,0,.43-.869l.837-3.866m6.639,3.65a.532.532,0,0,0,.2.327.756.756,0,0,0,.359.159.412.412,0,0,0,.279-.1.371.371,0,0,0,.064-.335.677.677,0,0,0-.191-.327.45.45,0,0,0-.351-.159.269.269,0,0,0-.287.12q-.135.088-.072.319m-5.516.112,1.02.064-.988-5.117-1-.056.972,5.109m3.634-3.212a2.151,2.151,0,0,0-.948-.287,1.568,1.568,0,0,0-.925.167.883.883,0,0,0-.518.582,1.379,1.379,0,0,0-.072.885v.008a.463.463,0,0,0,.12.215.638.638,0,0,0,.239.08l3.108.223a1.068,1.068,0,0,0,.183-.064q.016-.08.04-.175l-.024-.008a2.166,2.166,0,0,0-.406-.949,2.129,2.129,0,0,0-.8-.677m-1.506,1.14a.527.527,0,0,1,.167-.518.624.624,0,0,1,.55-.159.965.965,0,0,1,.6.247,1.2,1.2,0,0,1,.391.542l-1.706-.112M108.2,311.149q-.909-.47-.9-.454a.381.381,0,0,0-.367-.08.358.358,0,0,0-.311.143.28.28,0,0,0-.024.255q-.032.008.016.08a.517.517,0,0,0,.255.319,8.439,8.439,0,0,0,.988.55,24.56,24.56,0,0,0,2.853,1.132,46.918,46.918,0,0,0,11.868,2.144,45.591,45.591,0,0,0,11.8-.558,17.033,17.033,0,0,0,3.842-1.148.348.348,0,0,0,.151-.263,1.372,1.372,0,0,1-.008-.151,1.438,1.438,0,0,0-.1-.2.766.766,0,0,0-.335-.255.357.357,0,0,0-.351.032,17.46,17.46,0,0,1-3.65,1.068,44.747,44.747,0,0,1-11.5.534,47.605,47.605,0,0,1-11.493-2.048q-1.53-.542-2.726-1.1m1.2-.8,1.012.072-.59-3.73-1-.064.574,3.722M114.53,307l.143.837.566.056.239,1.538a1.749,1.749,0,0,0,.542,1.028,1.635,1.635,0,0,0,1.02.414,3.445,3.445,0,0,0,.454-.032,1.98,1.98,0,0,0,.335-.143l-.4-.805a.712.712,0,0,1-.391.112.515.515,0,0,1-.351-.151.582.582,0,0,1-.167-.383l-.295-1.514.885.056-.159-.861-.861-.056-.159-.885-1.012-.072.151.893L114.53,307m-1.339-1.156a3.5,3.5,0,0,0-.861-.159,1.977,1.977,0,0,0-1.02.128.883.883,0,0,0-.558.478,1.168,1.168,0,0,0-.1.741,1.346,1.346,0,0,0,.375.773,1.623,1.623,0,0,0,.63.446,6.7,6.7,0,0,0,.909.319,2.7,2.7,0,0,1,.55.2.957.957,0,0,1,.351.2.426.426,0,0,1,.175.295.325.325,0,0,1-.143.343,1.32,1.32,0,0,1-.638.112,4.227,4.227,0,0,1-.861-.207,4.578,4.578,0,0,1-.749-.4l-.223.813a3.509,3.509,0,0,0,.885.446,4.1,4.1,0,0,0,1.084.223,2.706,2.706,0,0,0,1.02-.112,1.3,1.3,0,0,0,.574-.51,1.458,1.458,0,0,0,.1-.725,1.487,1.487,0,0,0-.359-.781,2.05,2.05,0,0,0-.654-.446q-.367-.151-.885-.311a6.7,6.7,0,0,1-.8-.279.531.531,0,0,1-.3-.391.332.332,0,0,1,.151-.383.932.932,0,0,1,.614-.112,2.962,2.962,0,0,1,1.331.478l.191-.813A2.756,2.756,0,0,0,113.191,305.841Z" transform="translate(-90.368 -257.866)"/><path class="ag" d="M129.841,301.946a.294.294,0,0,0-.247-.016q-.295.024-.295.367a.571.571,0,0,0,.287.486,2.439,2.439,0,0,0,1.387.5,1.749,1.749,0,0,0,1.243-.319.419.419,0,0,0,.08-.47.64.64,0,0,0-.462-.407.355.355,0,0,0-.215-.024.176.176,0,0,0-.175.1.917.917,0,0,1-.638.215,1.325,1.325,0,0,1-.765-.311.381.381,0,0,0-.2-.128m-13.94-5.962q-.008-.04-.032-.048h-.04q-.056-.008-.032.008a3.583,3.583,0,0,0-1.148.678,2.061,2.061,0,0,0-.5.566l-.064.032q-.056-.008-.064-.04l-.988-.972q-.048-.032-.072-.024-.064-.016-.064.016l-.375.446q-.056.016-.04.056a.2.2,0,0,0,.072.056q.933.709,1.578,1.251a.126.126,0,0,0,.08.016.182.182,0,0,1,.048-.024,4.03,4.03,0,0,1,1.634-1.9.057.057,0,0,1,.04-.056A.121.121,0,0,0,115.9,295.984Z" transform="translate(-95.326 -249.682)"/><path class="ah" d="M415.828,232.85q-1,.048-1.116.869a2.854,2.854,0,0,1,.391.582,14.813,14.813,0,0,1,1.219,10.083,4.842,4.842,0,0,1-1.977,3.22.213.213,0,0,1-.056.04l-1.14.773q6.265,2.973,6.344-3.611Q419.59,237.234,415.828,232.85Z" transform="translate(-348.069 -196.655)"/><path class="ai" d="M548.888,550.618q1.538-5.2-5.141-4.87-8.64.239-20.2,4.99,1.451,1.538,2.861,3.2.725.853,1.53,1.658l.223.223a47.609,47.609,0,0,1,9.947-5.866,38.88,38.88,0,0,0-8.839,6.91,35.353,35.353,0,0,0,6.854,4.766,44.952,44.952,0,0,0,6.584-3.108Q547.764,554.42,548.888,550.618Z" transform="translate(-440.87 -459.658)"/></g></g><g transform="translate(82.15 37.863)"><path class="ae" d="M25.133,3.856c12.461,0,22.562,5.9,22.562,13.171S37.593,30.2,25.133,30.2q-1.8,0-3.518-.16c-4.846,3.482-10.631,4.107-16.224,4.2v-.852c3.02-1.063,5.64-3,5.64-5.213a4.435,4.435,0,0,0-.1-.909c-5.1-2.415-8.365-6.1-8.365-10.236C2.571,9.753,12.672,3.856,25.133,3.856Z" transform="translate(-2.571 -3.856)"/><rect class="aj" width="7.256" height="7.916" rx="3.628" transform="translate(6.24 9.631)"/><rect class="aj" width="7.256" height="7.916" rx="3.628" transform="translate(14.816 9.631)"/><rect class="aj" width="7.256" height="7.916" rx="3.628" transform="translate(23.391 9.631)"/><rect class="aj" width="7.256" height="7.916" rx="3.628" transform="translate(31.966 9.631)"/><text class="ak" transform="translate(8.199 17.691)"><tspan x="0" y="0">*</tspan></text><text class="ak" transform="translate(16.774 17.691)"><tspan x="0" y="0">*</tspan></text><text class="ak" transform="translate(25.35 17.691)"><tspan x="0" y="0">*</tspan></text><text class="ak" transform="translate(33.925 17.691)"><tspan x="0" y="0">*</tspan></text></g></g></g></svg>