<svg xmlns="http://www.w3.org/2000/svg" xmlns:xlink="http://www.w3.org/1999/xlink" width="302.334" height="132.212" viewBox="0 0 302.334 132.212"><defs><style>.a{fill:#fffce0;}.b{fill:#e6e6e6;}.c{fill:none;}.d{fill:#d0c6ac;}.e{fill:#ff5c5c;}.f{fill:#944f23;}.g{fill:#2d98da;}.h{fill:#28354b;}.i{fill:#eb3b5a;}.j{fill:#b7c1db;}.k{fill:#1f3140;}.l{fill:#2bcbba;}.m{clip-path:url(#a);}.n{fill:#fef9c8;}.aa,.ab,.ac,.ad,.ag,.o,.p,.q,.r,.s,.t,.u,.v,.w,.x,.y,.z{fill:#fec83e;}.o{opacity:0.271;}.p{opacity:0.05;}.q{opacity:0.63;}.r{opacity:0.451;}.s{opacity:0.375;}.t{opacity:0.915;}.u{opacity:0.794;}.v{opacity:0.355;}.w{opacity:0.213;}.x{opacity:0.493;}.y{opacity:0.056;}.z{opacity:0.622;}.aa{opacity:0.712;}.ab{opacity:0.299;}.ac{opacity:0.224;}.ad{opacity:0.668;}.ae{fill:#1b44a5;}.af{fill:#fe9e3e;}.ah{fill:#0fa49d;}.ai{fill:#ead7c1;}.aj{fill:#628bec;}.ak{fill:#665b5c;}.al{fill:#f9efdc;}.am{fill:#fff7af;}.an{fill:#fcd201;}.ao{fill:#fdf078;}.ap{fill:#55585b;}.aq{fill:#ec1c24;}.ar{fill:#4a3537;}.as{fill:#3b69d6;}.at{fill:#4b4842;}.au{fill:#fff;opacity:0.46;}.av{clip-path:url(#b);}.aw{fill:#f7b731;}.ax{clip-path:url(#c);}.ay{clip-path:url(#d);}.az{fill:#ffdbb4;}.ba{fill:rgba(0,0,0,0.1);}.bb{clip-path:url(#e);}.bc{fill:rgba(0,0,0,0.7);}.bd{clip-path:url(#f);}.be{fill:#1288b7;}.bf{clip-path:url(#g);}.bg{fill:#a55728;}.bh{fill:rgba(0,0,0,0.24);}.bi{clip-path:url(#h);}.bj{clip-path:url(#i);}.bk{clip-path:url(#j);}.bl{clip-path:url(#k);}.bm{fill:#3a4c5a;}.bn{fill:#2f4351;}.bo{fill:#f2f2f2;}.bp{clip-path:url(#l);}.bq{clip-path:url(#m);}.br{fill:#724133;}.bs{clip-path:url(#n);}.bt{clip-path:url(#o);}.bu{clip-path:url(#p);}.bv{clip-path:url(#q);}.bw{fill:#f4f4f4;}.bx{fill:rgba(0,0,0,0.16);}.by{clip-path:url(#r);}.bz{clip-path:url(#s);}.ca{clip-path:url(#u);}.cb{clip-path:url(#v);}.cc{clip-path:url(#w);}.cd{fill:#4b6584;}.ce{fill:#252c2f;}.cf{fill:#ea7e17;}.cg{fill:#fe9d2b;}.ch{fill:#e93a42;}.ci{fill:#dca3b3;}.cj,.cn{fill:#72b438;}.ck{fill:#12655d;}.cl{fill:url(#x);}.cm{fill:#b52b3d;}.cn{opacity:0.25;}.cn,.co{mix-blend-mode:multiply;isolation:isolate;}.co,.cp{opacity:0.62;}.co{fill:url(#y);}.cp{fill:#c44c1f;}</style><clipPath id="a"><path class="a" d="M-83.289-472.689H190.99s13.726-18,9.585-26.113-19.193-14.547-27.358-25.625-1.2-31.427-14.591-40.439-23.016-4.485-41.5-13.821S103.536-593.333,86.6-600.631s-34.058-3.828-46.714,0-19.951,14.58-36.626,24.047-27.142-1.08-42.545,1.257-21,5.965-25.463,13.068c-6.8,11.856,5.908,20.477-1.747,34.355s-21.546,17.7-27.271,21.251-9.191,10.531-6,18.96S-83.289-472.689-83.289-472.689Z" transform="translate(100.98 604.901)"/></clipPath><clipPath id="b"><ellipse class="b" cx="17.794" cy="17.794" rx="17.794" ry="17.794"/></clipPath><clipPath id="c"><path class="c" d="M1.779,21.205H0V0H39.148V21.205H37.368a17.794,17.794,0,0,1-35.589,0Z"/></clipPath><clipPath id="d"><path class="d" d="M0,36.182A12.012,12.012,0,0,1,11.27,24.193V21.444a8.309,8.309,0,0,1-4.7-6.633,1.78,1.78,0,0,1-1.528-1.762V10.973A1.78,1.78,0,0,1,6.525,9.218V8.3a8.3,8.3,0,1,1,16.608,0v.914a1.781,1.781,0,0,1,1.483,1.755v2.076a1.78,1.78,0,0,1-1.528,1.762,8.31,8.31,0,0,1-4.7,6.633v2.75a12.012,12.012,0,0,1,11.27,11.989Z"/></clipPath><clipPath id="e"><path class="e" d="M29.658,11.159H0A12.007,12.007,0,0,1,7.573,0c-.007.075-.011.154-.011.238,0,2.41,3.293,4.371,7.34,4.371S22.243,2.648,22.243.238c0-.058,0-.117-.006-.176a12.006,12.006,0,0,1,7.421,11.1Z" transform="translate(0 0)"/></clipPath><clipPath id="f"><rect class="c" width="39.148" height="41.52"/></clipPath><clipPath id="g"><path class="f" d="M0,29.3V10.973a10.973,10.973,0,1,1,21.946,0V29.3a10.633,10.633,0,0,0-6.821-2.463h-.593V24.113a8.309,8.309,0,0,0,4.714-6.783,1.78,1.78,0,0,0,1.514-1.76V13.642a1.779,1.779,0,0,0-.963-1.581q-.173-.063-.345-.135a1.767,1.767,0,0,0-.175-.039v-.037A11.361,11.361,0,0,1,14.252,7.1a12.891,12.891,0,0,1-1.045-2.3A20.086,20.086,0,0,1,7.762,9.267a22.24,22.24,0,0,1-4.2,1.894v9.191a8.338,8.338,0,0,0,3.855,3.761V26.84H6.821a10.67,10.67,0,0,0-3.262.508v6.759A4.153,4.153,0,0,1,0,38.216Z"/></clipPath><clipPath id="h"><ellipse class="g" cx="22.353" cy="22.353" rx="22.353" ry="22.353"/></clipPath><clipPath id="i"><path class="c" d="M2.235,26.638H0V0H49.177V26.638H46.942a22.353,22.353,0,0,1-44.707,0Z"/></clipPath><clipPath id="j"><path class="d" d="M0,45.452a15.089,15.089,0,0,1,14.157-15.06V26.937a10.437,10.437,0,0,1-5.9-8.331,2.236,2.236,0,0,1-1.92-2.213V13.784A2.236,2.236,0,0,1,8.2,11.58V10.432a10.431,10.431,0,1,1,20.863,0V11.58a2.236,2.236,0,0,1,1.863,2.2v2.608A2.236,2.236,0,0,1,29,18.606a10.438,10.438,0,0,1-5.9,8.332v3.454a15.089,15.089,0,0,1,14.157,15.06Z"/></clipPath><clipPath id="k"><path class="b" d="M37.256,15.01H0A15.08,15.08,0,0,1,13.626,0,4.383,4.383,0,0,0,13.6.49a4.86,4.86,0,0,0,5.03,4.657A4.86,4.86,0,0,0,23.657.49,4.38,4.38,0,0,0,23.63,0,15.08,15.08,0,0,1,37.256,15.009Z" transform="translate(0 0)"/></clipPath><clipPath id="l"><rect class="c" width="49.177" height="52.158"/></clipPath><clipPath id="m"><path class="h" d="M-143.543,2.74a8.385,8.385,0,0,1,3.271-1.561,6.281,6.281,0,0,1,3.112-.014c.3.073.407.145.675-.028.226-.146,1.8-1.768,6.6-.867,4.85.91,6.29,8.21,8.089,8.488.648.1,1.45-.072,1.475-.471a5.128,5.128,0,0,1,.62,3.926,4.344,4.344,0,0,1-1.861,2.82,5.347,5.347,0,0,1-3.115.668,4.173,4.173,0,0,1-1.31-.329c-.514-.225-.923-.632-1.428-.846a10.032,10.032,0,0,0,1.709,1.2,4.21,4.21,0,0,0,.952.377,2.669,2.669,0,0,0,.923.22,6.764,6.764,0,0,1-4.158-.589,9.627,9.627,0,0,1-1.712-1.02,8.176,8.176,0,0,1-1.548-1.324c.173.224-.13-.109-.17-.15q-.17-.173-.333-.353c-.187-.206-.372-.415-.546-.632a13.775,13.775,0,0,1-1.026-1.454c-.312-.513-1.557-2.584-1.933-3.072.355,1.063.741,2.127,1.194,3.153a5.237,5.237,0,0,1-2.29-1.74,5.488,5.488,0,0,1-1.138-2.732,9.518,9.518,0,0,1-4.1,4.526c.373-.695.942-1.283,1.314-1.989-1.712,1.738-4.576,2.588-5.327,5.136-.192-.886-.811-1.6-1-2.5a13.526,13.526,0,0,1-.321-3.1A7.952,7.952,0,0,1-143.543,2.74Z" transform="translate(146.93 0)"/></clipPath><clipPath id="n"><circle class="i" cx="19.44" cy="19.44" r="19.44"/></clipPath><clipPath id="o"><path class="c" d="M1.944,23.166H0V0H42.769V23.166H40.825a19.44,19.44,0,0,1-38.881,0Z"/></clipPath><clipPath id="p"><path class="d" d="M0,39.529a13.123,13.123,0,0,1,12.312-13.1v-3a9.078,9.078,0,0,1-5.135-7.246,1.944,1.944,0,0,1-1.669-1.925V11.988a1.945,1.945,0,0,1,1.62-1.917v-1a9.072,9.072,0,0,1,18.144,0v1a1.945,1.945,0,0,1,1.62,1.917v2.268a1.944,1.944,0,0,1-1.669,1.925,9.078,9.078,0,0,1-5.135,7.246v3A13.123,13.123,0,0,1,32.4,39.529Z"/></clipPath><clipPath id="q"><path class="j" d="M32.4,15.853H0A13.214,13.214,0,0,1,7.16,4.083,3.581,3.581,0,0,1,7.128,3.6,2.819,2.819,0,0,1,8.62,1.04,9.18,9.18,0,0,1,12.312,0V3.133a3.888,3.888,0,1,0,7.776,0V0a9.179,9.179,0,0,1,3.692,1.04A2.819,2.819,0,0,1,25.272,3.6a3.6,3.6,0,0,1-.032.484A13.215,13.215,0,0,1,32.4,15.852Z" transform="translate(0 0)"/></clipPath><clipPath id="r"><path class="k" d="M17.2,3.713A13.781,13.781,0,0,0,15.725,2.48c-.111-.086-.225-.169-.334-.258a1.771,1.771,0,0,1-.309-.269c-.073-.161-.031-.036-.021-.228C15.075,1.482,15.57.8,15.2.64c-.162-.069-.452.115-.608.176a9.637,9.637,0,0,1-.928.308c.151-.3.439-.9-.1-.742-.421.126-.814.448-1.238.6.14-.23.7-.941.194-.981a3.837,3.837,0,0,0-.786.346,9.039,9.039,0,0,1-1.561.407c-1.814.327-3.935.234-5.614,1.06A7.941,7.941,0,0,0,1.239,4.7,9.468,9.468,0,0,0,.1,8.625a19.726,19.726,0,0,0-.068,3.1c.017.335.055,1.881.542,1.413.243-.233.241-1.175.3-1.494a14.956,14.956,0,0,1,.442-1.885,6.294,6.294,0,0,1,1.669-2.98C3.557,6.3,3.958,5.652,4.5,5.17c.246-.217.058-.194.453-.166.265.019.532.026.8.033.615.016,1.231.012,1.846.014,1.239,0,2.472.022,3.709-.043.55-.029,1.1-.044,1.65-.1.306-.028.85-.225,1.1-.075.231.137.471.586.636.769a9.746,9.746,0,0,0,1.316,1.121,4.822,4.822,0,0,1,1.727,2.833c.289,1.155.208,2.227.566,3.363.063.2.229.544.434.236a2.258,2.258,0,0,0,.028-.554c0-.732.185-1.282.183-2.019C18.945,8.348,18.873,5.426,17.2,3.713Z" transform="translate(0 0)"/></clipPath><clipPath id="s"><circle class="l" cx="22.353" cy="22.353" r="22.353"/></clipPath><clipPath id="u"><path class="d" d="M0,45.452a15.089,15.089,0,0,1,14.157-15.06V26.937a10.437,10.437,0,0,1-5.9-8.331,2.236,2.236,0,0,1-1.92-2.213V13.784a2.236,2.236,0,0,1,1.863-2.2V10.432a10.431,10.431,0,1,1,20.863,0v1.149a2.236,2.236,0,0,1,1.863,2.2v2.608A2.236,2.236,0,0,1,29,18.606a10.438,10.438,0,0,1-5.9,8.332v3.454a15.089,15.089,0,0,1,14.157,15.06Z"/></clipPath><clipPath id="v"><path class="f" d="M19.837,32.04V30.291a10.436,10.436,0,0,0,5.894-8.521,2.232,2.232,0,0,0,1.893-2.21V17.138a4.675,4.675,0,0,0-.147-1.042c-3.316-1-6.583-4.044-8.484-8.335q-.114-.257-.219-.515a8.522,8.522,0,0,1-4.8,4.962,16.294,16.294,0,0,0,2.308-3.871,24.779,24.779,0,0,1-5.651,4.423,24.6,24.6,0,0,1-6.762,2.734,2.234,2.234,0,0,0-.717,1.644v2.422a2.232,2.232,0,0,0,1.893,2.21,10.436,10.436,0,0,0,5.894,8.521V32.04H3.152a1.487,1.487,0,0,1-1.483-1.49V15.711a1.751,1.751,0,0,1-.769-.2A2.371,2.371,0,0,1,0,13.505a2.132,2.132,0,0,1,1.854-2.328,13.746,13.746,0,0,1,27.134.787c.061.466.1,2.931.113,3.982a.3.3,0,0,1,.006.051V26.079a5.947,5.947,0,0,1-5.932,5.961Z"/></clipPath><clipPath id="w"><path class="b" d="M37.256,16.367H0A16.633,16.633,0,0,1,13.609,0C13.6.108,13.6.222,13.6.341a5.031,5.031,0,1,0,10.059,0c0-.113,0-.228-.011-.341A16.633,16.633,0,0,1,37.256,16.366Z" transform="translate(0 0)"/></clipPath><linearGradient id="x" x1="3.073" y1="1.263" x2="2.061" y2="1.263" gradientUnits="objectBoundingBox"><stop offset="0.113" stop-color="#3b9556"/><stop offset="1" stop-color="#44ab63"/></linearGradient><linearGradient id="y" x1="2.315" y1="3.131" x2="1.27" y2="3.131" gradientUnits="objectBoundingBox"><stop offset="0" stop-color="#7067ab"/><stop offset="0.103" stop-color="#7d55a0"/><stop offset="0.262" stop-color="#8d4093"/><stop offset="0.441" stop-color="#98328a"/><stop offset="0.655" stop-color="#9f2985"/><stop offset="1" stop-color="#a12784"/></linearGradient></defs><g transform="translate(-1.1 -2.064)"><path class="a" d="M-83.289-472.689H190.99s13.726-18,9.585-26.113-19.193-14.547-27.358-25.625-1.2-31.427-14.591-40.439-23.016-4.485-41.5-13.821S103.536-593.333,86.6-600.631s-34.058-3.828-46.714,0-19.951,14.58-36.626,24.047-27.142-1.08-42.545,1.257-21,5.965-25.463,13.068c-6.8,11.856,5.908,20.477-1.747,34.355s-21.546,17.7-27.271,21.251-9.191,10.531-6,18.96S-83.289-472.689-83.289-472.689Z" transform="translate(102.08 606.965)"/><g class="m" transform="translate(1.1 2.064)"><g transform="translate(10.279 -6.159)"><rect class="n" width="63" height="53" rx="10" transform="translate(113.721 47.775)"/><rect class="n" width="63" height="53" rx="10" transform="translate(183.721 47.775)"/><rect class="n" width="63" height="53" rx="10" transform="translate(113.721 110.775)"/><rect class="n" width="63" height="53" rx="10" transform="translate(183.721 110.775)"/><rect class="n" width="63" height="53" rx="10" transform="translate(254.721 47.775)"/><rect class="n" width="63" height="53" rx="10" transform="translate(254.721 110.775)"/><rect class="n" width="9" height="54" transform="translate(92.721 21.775)"/><rect class="n" width="9" height="33" transform="translate(-0.279 87.775)"/><rect class="n" width="10" height="28" transform="translate(167.721 -0.225)"/></g><g transform="translate(51.725 31.919)"><path class="o" d="M2.967,0,5.935,4.8H0Z" transform="translate(245.1 30.805) rotate(81)"/><path class="p" d="M7.486,0l7.486,12.121H0Z" transform="translate(240.336 16.682) rotate(-159)"/><path class="q" d="M7.095,0,14.19,11.487H0Z" transform="matrix(-0.423, 0.906, -0.906, -0.423, 189.848, 64.937)"/><path class="r" d="M4.6,0l4.6,7.454H0Z" transform="matrix(0.848, 0.53, -0.53, 0.848, 185.484, 42.075)"/><path class="s" d="M5.483,0l5.483,8.878H0Z" transform="translate(212.767 16.669) rotate(-48)"/><path class="t" d="M5.092,0l5.092,8.244H0Z" transform="matrix(0.999, 0.052, -0.052, 0.999, 138.975, 84.443)"/><path class="u" d="M.94,0l.94,1.522H0Z" transform="translate(165.739 62.224) rotate(143)"/><path class="v" d="M.5,0,1,.81H0Z" transform="matrix(-0.191, 0.982, -0.982, -0.191, 158.571, 40.075)"/><path class="w" d="M.58,0l.58.939H0Z" transform="translate(108.122 26.879) rotate(-13)"/><path class="x" d="M4.174,0,8.348,6.758H0Z" transform="matrix(0.94, -0.342, 0.342, 0.94, 101.546, 80.652)"/><path class="y" d="M4.5,0,9,7.286H0Z" transform="matrix(0.574, 0.819, -0.819, 0.574, 61.392, 64.124)"/><path class="z" d="M6.824,0l6.824,11.048H0Z" transform="translate(102.724 41.862) rotate(36)"/><path class="aa" d="M3.962,0,7.925,6.415H0Z" transform="translate(71.959 30.805) rotate(-133)"/><path class="ab" d="M2.449,0,4.9,3.965H0Z" transform="translate(17.736 53.622) rotate(102)"/><path class="ac" d="M6.51,0l6.51,10.54H0Z" transform="matrix(0.899, -0.438, 0.438, 0.899, 4.302, 39.864)"/><path class="ad" d="M4.017,0,8.034,6.5H0Z" transform="matrix(-0.839, 0.545, -0.545, -0.839, 10.28, 18.46)"/></g></g><g transform="translate(13.319 3.21)"><g transform="translate(0 9.916)"><path class="ae" d="M405.965,529.15l.227.21.087.087a.618.618,0,0,0,.087.087.58.58,0,0,1,.061.052,1.14,1.14,0,0,0,.192.183l.175.175.384.349a42.62,42.62,0,0,1,9.689-7.575,52.188,52.188,0,0,0-10.9,6.43m-22.558-.725a53.541,53.541,0,0,0,9.925,6.9,6.667,6.667,0,0,1,2.21.166,5.713,5.713,0,0,1,.751.21q.708.183,1.354.288-.9-.349-1.774-.725a70.8,70.8,0,0,1-12.467-6.841m12.363-9.174q2.359,2.307,4.543,4.43,2.839,2.752,5.408,5.225-.882-.882-1.677-1.817-1.546-1.817-3.137-3.5-2.123-2.272-4.316-4.351-1.87-1.765-3.792-3.4a15,15,0,0,0-2.534-1.608,8.823,8.823,0,0,0-6.5-.7,11.179,11.179,0,0,0-3.792,1.94,10.413,10.413,0,0,0-2.927,3.477,14.509,14.509,0,0,0-1.179,2.979,20.971,20.971,0,0,0-.638,3.145,40.256,40.256,0,0,0-.087,8.938,43.325,43.325,0,0,1,.227-8.151,16.662,16.662,0,0,1,2.245-6.85q3.067-4.7,7.575-5.181,4.526-.489,10.58,5.425m35.366-2.935a10.966,10.966,0,0,0-.646-.891,8.36,8.36,0,0,0-4.709-2.971,10.315,10.315,0,0,0-4.456.07q-2.621.577-5.216,1.223l-1.73.4q-7.627,1.9-15.167,4.246l20.479-4.718a13.4,13.4,0,0,1,6.09-.079,9.172,9.172,0,0,1,3.608,1.826q.323.28.638.612,3.731,3.748-.1,9.663Q434.141,520.728,431.136,516.315Z" transform="translate(-310.277 -423.748)"/><path class="af" d="M85.359,124.783a5.233,5.233,0,0,0,2.088,3.416q1.878,1.538,8.807,1.022a11.348,11.348,0,0,0,7.339-2.927,10.516,10.516,0,0,0,2.079-3,1.812,1.812,0,0,0-1.651-1.809,8.074,8.074,0,0,0-6.657,1.7,6.943,6.943,0,0,1-1.433.891,5.535,5.535,0,0,1-3.958.026,9.763,9.763,0,0,0-4.028-.62,3.776,3.776,0,0,0-2.516,1.179.353.353,0,0,1-.07.114M8.869,11.45A6.762,6.762,0,0,0,4.92,18.632L15.369,79.344a.083.083,0,0,1,.07.035h-.07l7.059,41.01q1.284,7.173,6.1,8.728a10.647,10.647,0,0,0,3.748.4q-5.705-1.232-7.086-9.13L7.654,18.632q-.9-5.382,1.214-7.182m113.788,111.3q-1.092-.245-2.149-.419,4.945,1.546,4.246,4.15-.384,1.529-3.556,2.35a5.7,5.7,0,0,0,3.311-1.048,2.285,2.285,0,0,0,.734-3.067A3.414,3.414,0,0,0,122.657,122.748Z" transform="translate(-4.882 -10.461)"/><path class="ag" d="M99.763,117.37a3.173,3.173,0,0,0-2.5,1.643,1.449,1.449,0,0,0-.079,1.031.088.088,0,0,0,.07-.044,3.776,3.776,0,0,1,2.516-1.179,9.764,9.764,0,0,1,4.028.62,5.535,5.535,0,0,0,3.958-.026,6.943,6.943,0,0,0,1.433-.891,8.074,8.074,0,0,1,6.657-1.7,1.812,1.812,0,0,1,1.651,1.809q1.145-2.813-1.468-3.434-5.032-.769-7.112,1.494a5.1,5.1,0,0,1-4.84,1.345q-.646-.1-1.354-.288a5.713,5.713,0,0,0-.751-.21,6.665,6.665,0,0,0-2.21-.166m2.682-32.134q.83.358.087.55l-4.762.245,4.718.446a1.115,1.115,0,0,1,.358.087.547.547,0,0,1,.21.192q.122.253-.673.515l-3.233.428,2.761.149q.629-.009.612.262.009.315-1.04.69l-4.43,1.022a1.786,1.786,0,0,0,1.791.559,11.709,11.709,0,0,1,1.564-.323h.411a.534.534,0,0,1,.507.28q.026.891-2.673,1.442a15.588,15.588,0,0,1-3.792.384l-.419.882h8.16l.638-1.363a.372.372,0,0,1-.1-.245q.035-.131.306-.192l.2-.463-.315.079q-.743.2-.865-.245-.052-.306.489-.577l.559-.262.7-.236.227-.463-.743.122q-1.04.1-.891-.3a1.1,1.1,0,0,1,.542-.419l1.581-.481.035-.122a7.875,7.875,0,0,1-1.267.017q-.463-.079-.419-.454t.612-.463l1.608-.227,2.962-6.5h-8.239l-.979,2.2-1,2.219a27.02,27.02,0,0,1,4.2.559m.891-2.9a.741.741,0,0,1,.489-.183.434.434,0,0,1,.376.183.53.53,0,0,1,.07.428.72.72,0,0,1-.288.428.744.744,0,0,1-.489.192.423.423,0,0,1-.384-.192.521.521,0,0,1-.07-.428.743.743,0,0,1,.3-.428M63.8,27.25a.108.108,0,0,1,.017.061L65.14,34.86l.882,5.015,1.171,6.675L68.5,53.941q.149-.1.323-.2,2.149-1.206,1.04-2.8Q66.9,45.8,69.988,41.4L66.564,22.1Q65.07,13.376,57.949,12l-31.8-5.958a9.809,9.809,0,0,0-2.708-.227h-.376a15.545,15.545,0,0,0-2.368.97q-2.114,1.8-1.214,7.182L37.016,115.719q1.38,7.9,7.086,9.13a14.5,14.5,0,0,0,2.7.183l30.823-1.66a9.059,9.059,0,0,0,1.345-.149,5.176,5.176,0,0,0,3.853-3,16.088,16.088,0,0,1-2.21-1.136,13.034,13.034,0,0,1-2.822-2.4,3.088,3.088,0,0,1-.227.315h.017a3.168,3.168,0,0,1-.629.585l-2.595.9-24.847,1.424q-6.509.349-8.029-8.431L37.636,89.264l-.009-.044v.017l-1.5-8.58L35.05,74.411,25.606,19.946q-1.459-8.614,5.268-7.182l3.565.655-.035-.009,21.737,3.914q6.588,1.931,7.662,9.925M73.841,63.159a.24.24,0,0,1-.07.061,2.009,2.009,0,0,1-2.848-.026,3.113,3.113,0,0,1-.769.087L71.2,69.213l3.329-2.141-.69-3.914m62.739,58.65q.7-2.6-4.246-4.15a24.791,24.791,0,0,0-10.388.332q.716.384,1.171.594a1.9,1.9,0,0,1,1.1,1.276q.428,2.324-1.8,2.665a9.365,9.365,0,0,1-4.246-.3,31.911,31.911,0,0,0,14.853,1.931Q136.2,123.337,136.58,121.809Z" transform="translate(-16.708 -5.791)"/><path class="l" d="M323.35,379.4a1.683,1.683,0,0,1,.009-.183,1.5,1.5,0,0,0-.55-1.442h-1.171l.419-.882a1.5,1.5,0,0,0-.227-.017,4.337,4.337,0,0,0-2.036.725q-1.232,1.459-2.4,2.7a8.823,8.823,0,0,1,6.5.7,1.023,1.023,0,0,0,.122-.044,2.279,2.279,0,0,1-.664-1.555m-19.081,7.784a5.072,5.072,0,0,0-1.468.419,1.421,1.421,0,0,0-.69.612,11.471,11.471,0,0,0-.183,7.26q.428-.454.874-.9,1.162-1.179,2.368-2.272,1.31-1.2,2.638-2.289.306-.253.62-.489.542-.419,1.066-.83a14.508,14.508,0,0,1,1.179-2.979,11.562,11.562,0,0,1-2.761,1.092l-.1.017a6.99,6.99,0,0,1-1.118.183,17.055,17.055,0,0,0-2.42.175m-1.6-36-.944.612-3.329,2.141-1.214.778a5.328,5.328,0,0,0-2.656,4.945l1,13.673h10.51l-.743-10.213,1.118,8.125,1.45,3.495a57.425,57.425,0,0,1,9.095-3.171q.166-.1,2.114-1.389a6.526,6.526,0,0,1,4.762-.865q1.678-2.368-.612-5.775-2.219-3.268-2.28-5.207a3,3,0,0,1,.07-.8,6.379,6.379,0,0,0,.122.8,10.642,10.642,0,0,0,2.577,4.465,6.05,6.05,0,0,1,1.162,6.553l.559.052,1-2.219a53.816,53.816,0,0,0-1.555-8.239q-.07-.315-.14-.612a7.89,7.89,0,0,0-2.735-4.325,5.881,5.881,0,0,0-.926-.6l-5.373-2.6a9.473,9.473,0,0,1,.716,3.206,5.368,5.368,0,0,1-.891,3.084,3.267,3.267,0,0,1-1.284,1.241,2.132,2.132,0,0,1-1.809,0,4.082,4.082,0,0,1-1.048-.612Z" transform="translate(-243.903 -290.515)"/><path class="ah" d="M338.69,419.372a5.071,5.071,0,0,1,1.468-.419,17.049,17.049,0,0,1,2.42-.175,6.991,6.991,0,0,0,1.118-.183l.1-.017a11.561,11.561,0,0,0,2.761-1.092,10.413,10.413,0,0,1,2.927-3.477,11.18,11.18,0,0,1,3.792-1.94q1.171-1.241,2.4-2.7l-12.625,7.583a12.374,12.374,0,0,1-3.049,1.162,11.754,11.754,0,0,1-1.319.218h-.052q-.367.839-.638,1.651a1.421,1.421,0,0,1,.69-.612m3.241-14.267H340.42l.1,2.962q.245-.131.507-.253.4-.21.813-.4.909-.463,1.852-.882a.108.108,0,0,1,.061-.017l-1.45-3.495-1.118-8.125.743,10.213m15.1-15a6.39,6.39,0,0,1-.122-.8,3,3,0,0,0-.07.8q.061,1.94,2.28,5.207,2.289,3.407.612,5.775l1.04.035a6.05,6.05,0,0,0-1.162-6.553A10.642,10.642,0,0,1,357.029,390.1Z" transform="translate(-279.792 -322.287)"/><path class="ai" d="M342.407,350.637a6.162,6.162,0,0,1,2.114-4.141q-.262.122-.507.253a2.92,2.92,0,0,0-1.782,2.892,8.638,8.638,0,0,0,.131,1.7,5.565,5.565,0,0,1,.044-.708m10.406-30.159-.114-1.468,1.922-1.3,1.249-.848a4.828,4.828,0,0,1-2.341.673A10.443,10.443,0,0,1,346.015,315l.227,2.988a2.585,2.585,0,0,1-.341.708,8.858,8.858,0,0,1,4.6,1.835Q352.786,322.208,352.813,320.478Z" transform="translate(-283.282 -260.97)"/><path class="aj" d="M368.962,528.6q-2.184-2.123-4.543-4.43-6.055-5.915-10.58-5.426-4.508.481-7.575,5.181a16.663,16.663,0,0,0-2.245,6.85,43.325,43.325,0,0,0-.227,8.151,40.253,40.253,0,0,1,.087-8.938,20.986,20.986,0,0,1,.638-3.145q-.524.411-1.066.83-.315.236-.62.489-1.328,1.092-2.638,2.289-1.206,1.092-2.368,2.272-.446.446-.874.9a16.914,16.914,0,0,0,.874,2.472,13.384,13.384,0,0,0,2.184,3.469,13.034,13.034,0,0,0,2.822,2.4,16.085,16.085,0,0,0,2.21,1.136,19.753,19.753,0,0,0,4.43,1.214,18.62,18.62,0,0,0,9.776-1.337.467.467,0,0,1,.157-.061,1.448,1.448,0,0,1,.079-1.031,3.173,3.173,0,0,1,2.5-1.643,53.544,53.544,0,0,1-9.925-6.9,70.8,70.8,0,0,0,12.467,6.841q.874.376,1.774.725a5.1,5.1,0,0,0,4.84-1.345q2.079-2.263,7.112-1.494,2.612.62,1.468,3.434a10.516,10.516,0,0,1-2.079,3q1.267.3,2.56.568a.612.612,0,0,1,.192.035,9.365,9.365,0,0,0,4.246.3q2.228-.341,1.8-2.665a1.9,1.9,0,0,0-1.1-1.276q-.454-.21-1.171-.594-.428-.21-.821-.428a38.752,38.752,0,0,1-7.514-5.225l-.384-.349-.175-.175a1.14,1.14,0,0,1-.192-.184.574.574,0,0,0-.061-.052.614.614,0,0,1-.087-.087l-.087-.087-.227-.21-.245-.245q-2.569-2.472-5.408-5.224m29.076-8.256a9.17,9.17,0,0,0-3.608-1.826,13.4,13.4,0,0,0-6.09.079l-20.479,4.718q-1.31.411-2.621.839,2.193,2.079,4.316,4.351,12.668-5.207,22.139-5.469,7.321-.358,5.635,5.338-1.232,4.167-6.771,8.658a35.838,35.838,0,0,0,6.491-4.8,17.125,17.125,0,0,0,1.468-1.546.239.239,0,0,0,.061-.07q3.827-5.915.1-9.663Q398.361,520.625,398.038,520.346Z" transform="translate(-278.926 -428.669)"/><path class="ak" d="M327.36,223.507a.875.875,0,0,0-.786.612.521.521,0,0,0,.07.428.423.423,0,0,0,.384.192.744.744,0,0,0,.489-.192.72.72,0,0,0,.288-.428.53.53,0,0,0-.07-.428.434.434,0,0,0-.376-.183m-17.578-43.832q-5.513-5.2-13.245,0a14.783,14.783,0,0,0-3.014,3.075q-3.093,4.4-.122,9.541,1.11,1.6-1.04,2.8-.175.1-.323.2a2.887,2.887,0,0,0-1.206,3.434q-1.948,2.359,1.127,4.1.358,1.756,1.73,1.809a3.112,3.112,0,0,0,.769-.087,2.009,2.009,0,0,0,2.848.026.24.24,0,0,0,.07-.061,1.793,1.793,0,0,1,1.162-.419,2.221,2.221,0,0,1,1.337.446,6.169,6.169,0,0,0,1.136.673q1.249.515,1.852-.341a2.584,2.584,0,0,0,.341-.708l-.227-2.988a14.9,14.9,0,0,1-2.228-2.324,1.485,1.485,0,0,0,1.214-1.276q.306-1.555-1.477-2.691,2.813-1.852,1.223-4.762a3.974,3.974,0,0,0,3.014-.481,3.618,3.618,0,0,0,1.817-2.848q.245-2,2.315-1a25.35,25.35,0,0,0,3.4,1.354,2.134,2.134,0,0,1,1.04.62q.131-.9,1.223-.952,1.616-.7,1.677-1.765.21-3.521-2.743-4.124A8.887,8.887,0,0,1,309.781,179.674Z" transform="translate(-240.242 -147.146)"/><path class="al" d="M343.072,267.638l-.481.087-1.608.227q-.577.079-.612.463t.419.454a7.875,7.875,0,0,0,1.267-.017l.463-.035-.5.157-1.581.481a1.1,1.1,0,0,0-.542.419q-.149.393.891.3l.743-.122,1.5-.271a17.475,17.475,0,0,1-1.73.734l-.7.236-.559.262q-.542.271-.489.577.122.446.865.245l.315-.079,1.922-.419a1.964,1.964,0,0,1-.655.524,3.077,3.077,0,0,1-1.3.315.4.4,0,0,0-.166.044q-.271.061-.306.192a.372.372,0,0,0,.1.245.841.841,0,0,0,.463.183,4.048,4.048,0,0,0,1.468-.026,1.092,1.092,0,0,0,1-.979.754.754,0,0,0,.5-.917.766.766,0,0,0,.315-.612.729.729,0,0,0-.376-.62.622.622,0,0,0,.122-.681.5.5,0,0,0-.585-.358q.542-.848-.166-1m-36.572,1.94.052.664.524,7a7.681,7.681,0,0,0,.087,1.057,5.793,5.793,0,0,0,1.118,2.612,4.873,4.873,0,0,0,4.36,1.9h.052a11.764,11.764,0,0,0,1.319-.218,12.375,12.375,0,0,0,3.049-1.162l12.625-7.584a4.337,4.337,0,0,1,2.036-.725,1.5,1.5,0,0,1,.227.017,15.586,15.586,0,0,0,3.792-.384q2.7-.55,2.673-1.442a.534.534,0,0,0-.507-.28H337.5a11.713,11.713,0,0,0-1.564.323,1.786,1.786,0,0,1-1.791-.559l4.43-1.022q1.048-.376,1.04-.69.017-.271-.612-.262l-2.761-.149,3.233-.428q.795-.262.673-.516a.547.547,0,0,0-.21-.192,1.115,1.115,0,0,0-.358-.087L334.86,267l4.762-.245q.743-.192-.087-.55a27.024,27.024,0,0,0-4.2-.559l-.559-.052-1.04-.035a6.526,6.526,0,0,0-4.762.865q-1.948,1.284-2.114,1.389a57.422,57.422,0,0,0-9.1,3.171.108.108,0,0,0-.061.017q-.944.419-1.852.882-.411.192-.813.4a6.162,6.162,0,0,0-2.114,4.141,5.553,5.553,0,0,0-.044.708,8.637,8.637,0,0,1-.131-1.7,2.919,2.919,0,0,1,1.782-2.892l-.1-2.962H306.5m9.916-25.092q-.6.856-1.852.341l.044,1.511-2.044,1.092,8.728,6.535a4.083,4.083,0,0,0,1.048.612,2.132,2.132,0,0,0,1.809,0,3.267,3.267,0,0,0,1.284-1.241,5.368,5.368,0,0,0,.891-3.084,9.473,9.473,0,0,0-.716-3.206l-2.28-.778q-.026,1.73-2.315.052a8.858,8.858,0,0,0-4.6-1.835m10.432-17.1a2.134,2.134,0,0,0-1.04-.62,25.352,25.352,0,0,1-3.4-1.354q-2.071-1-2.315,1a3.618,3.618,0,0,1-1.817,2.848,3.974,3.974,0,0,1-3.014.481q1.59,2.909-1.223,4.762,1.782,1.136,1.477,2.691a1.485,1.485,0,0,1-1.214,1.276,14.9,14.9,0,0,0,2.228,2.324,10.444,10.444,0,0,0,7.514,2.534,4.828,4.828,0,0,0,2.341-.673.233.233,0,0,0,.061-.044,5.307,5.307,0,0,0,2.167-3.53,16.238,16.238,0,0,0-1.337-11.052A3.129,3.129,0,0,0,326.848,227.388Z" transform="translate(-253.797 -186.761)"/><path class="am" d="M109.383,125.253l3.844,22.218q1.52,8.78,8.029,8.431l24.847-1.424,2.595-.9a3.167,3.167,0,0,0,.629-.585h-.017l-39.927-27.739M135.567,63.3a.108.108,0,0,0-.017-.061q-1.075-7.994-7.662-9.925L106.15,49.4l.035.009,30.7,21.44Z" transform="translate(-88.455 -41.78)"/><path class="an" d="M87.632,181.5a2.549,2.549,0,0,0-.97-2.717,2.717,2.717,0,0,0-1.066-.507,2.385,2.385,0,0,0-1.232.1,5.181,5.181,0,0,1-3.993-.341,5.276,5.276,0,0,1-2.883-2.9,1.969,1.969,0,0,0-.664-.979A2.812,2.812,0,0,0,73.662,174l1.075,6.247a13.066,13.066,0,0,0,3.434,2.263,11.189,11.189,0,0,0,7.418,1.066,2.672,2.672,0,0,0,2.044-2.071m20.444,7.356a2.23,2.23,0,0,0-.507,1.1,5.252,5.252,0,0,1-2.289,3.276,5.354,5.354,0,0,1-3.975,1.048,2.047,2.047,0,0,0-1.179.07,2.831,2.831,0,0,0-.97.673,2.677,2.677,0,0,0-.55,2.874,2.575,2.575,0,0,0,2.376,1.712,10.949,10.949,0,0,0,7.077-2.237q.332-.236.629-.463a7.687,7.687,0,0,1-.087-1.057l-.524-7M81.621,144.212a2.916,2.916,0,0,0,1.022.629,2.263,2.263,0,0,0,1.232.061,5.126,5.126,0,0,1,3.905.8,5.467,5.467,0,0,1,2.542,3.233,1.825,1.825,0,0,0,.533,1.057,2.571,2.571,0,0,0,.987.62,2.627,2.627,0,0,0,2.857-.62,2.561,2.561,0,0,0,.629-2.839,10.919,10.919,0,0,0-4.849-5.618,11.075,11.075,0,0,0-7.2-1.931,2.7,2.7,0,0,0-2.3,1.817,2.521,2.521,0,0,0,.638,2.8M66.5,128.407a4.742,4.742,0,0,1-.5,1.337l1.031,5.967a11.052,11.052,0,0,0,4.534-5.644,2.691,2.691,0,0,0-.7-2.831,3.822,3.822,0,0,0-.507-.4,2.519,2.519,0,0,0-2.315-.175,3.752,3.752,0,0,0-.341.175,3.187,3.187,0,0,0-.655.472,2.3,2.3,0,0,0-.55,1.1m35.585,7.418a2.635,2.635,0,0,0-2.857.612,2.574,2.574,0,0,0-.638,2.848,10.919,10.919,0,0,0,4.849,5.618,14.636,14.636,0,0,0,2.368,1.232l-1.171-6.675a5.053,5.053,0,0,1-1.04-1.957,1.915,1.915,0,0,0-.515-1.066A2.806,2.806,0,0,0,102.083,135.825Z" transform="translate(-55.32 -105.376)"/><path class="ao" d="M89.58,68.822a2.635,2.635,0,0,1,2.857-.612,2.806,2.806,0,0,1,1,.612,1.915,1.915,0,0,1,.515,1.066,5.053,5.053,0,0,0,1.04,1.957l-.882-5.015L63.4,45.39l-3.565-.655q-6.727-1.433-5.268,7.182l9.444,54.465a2.812,2.812,0,0,1,3.163.157,1.969,1.969,0,0,1,.664.979,5.276,5.276,0,0,0,2.883,2.9,5.181,5.181,0,0,0,3.993.341,2.384,2.384,0,0,1,1.232-.1,2.717,2.717,0,0,1,1.066.507,2.549,2.549,0,0,1,.97,2.717,2.672,2.672,0,0,1-2.044,2.071,11.189,11.189,0,0,1-7.418-1.066,13.066,13.066,0,0,1-3.434-2.263l1.5,8.58v-.017l.009.044,39.927,27.739a3.087,3.087,0,0,0,.227-.315,13.383,13.383,0,0,1-2.184-3.469,16.906,16.906,0,0,1-.874-2.473,11.471,11.471,0,0,1,.183-7.26q.271-.813.638-1.651a4.873,4.873,0,0,1-4.36-1.9,5.792,5.792,0,0,1-1.118-2.612q-.3.227-.629.463A10.949,10.949,0,0,1,91.336,132a2.575,2.575,0,0,1-2.376-1.712,2.677,2.677,0,0,1,.55-2.874,2.831,2.831,0,0,1,.97-.673,2.047,2.047,0,0,1,1.179-.07,5.354,5.354,0,0,0,3.975-1.048,5.252,5.252,0,0,0,2.289-3.276,2.23,2.23,0,0,1,.507-1.1l-.052-.664H97.3l-1-13.673a5.328,5.328,0,0,1,2.656-4.945l1.214-.778-1.048-5.932q-1.372-.052-1.73-1.809-3.075-1.739-1.127-4.1a2.887,2.887,0,0,1,1.206-3.434L96.159,78.52a14.635,14.635,0,0,1-2.368-1.232,10.919,10.919,0,0,1-4.849-5.618,2.574,2.574,0,0,1,.638-2.848M56.354,62.13a4.742,4.742,0,0,0,.5-1.337,2.3,2.3,0,0,1,.55-1.1,3.188,3.188,0,0,1,.655-.472,3.755,3.755,0,0,1,.341-.175,2.519,2.519,0,0,1,2.315.175,3.821,3.821,0,0,1,.507.4,2.691,2.691,0,0,1,.7,2.831A11.052,11.052,0,0,1,57.385,68.1L56.354,62.13M73,77.227a2.916,2.916,0,0,1-1.022-.629,2.521,2.521,0,0,1-.638-2.8,2.7,2.7,0,0,1,2.3-1.817,11.075,11.075,0,0,1,7.2,1.931,10.919,10.919,0,0,1,4.849,5.618,2.561,2.561,0,0,1-.629,2.839,2.627,2.627,0,0,1-2.857.62,2.571,2.571,0,0,1-.987-.62,1.825,1.825,0,0,1-.533-1.057,5.467,5.467,0,0,0-2.542-3.233,5.126,5.126,0,0,0-3.905-.8A2.264,2.264,0,0,1,73,77.227M68.192,88.463q.026.009.035.052a.133.133,0,0,1,.035.07.062.062,0,0,0-.044.061,4.418,4.418,0,0,0-1.791,2.079.2.2,0,0,0-.052.026.138.138,0,0,1-.087-.017q-.708-.594-1.73-1.372a.217.217,0,0,1-.079-.061q-.017-.044.044-.061l.411-.489q0-.035.07-.017.026-.009.079.026l1.083,1.066q.009.035.07.044l.07-.035a2.26,2.26,0,0,1,.55-.62,3.926,3.926,0,0,1,1.258-.743q-.026-.017.035-.009h.044m1.555,1.712a3.844,3.844,0,0,1,.944.175,3.022,3.022,0,0,1,.865.4l-.21.891a3.247,3.247,0,0,0-1.459-.524,1.022,1.022,0,0,0-.673.122.364.364,0,0,0-.166.419.582.582,0,0,0,.332.428,7.344,7.344,0,0,0,.874.306q.568.175.97.341a2.247,2.247,0,0,1,.716.489,1.631,1.631,0,0,1,.393.856,1.6,1.6,0,0,1-.114.8,1.427,1.427,0,0,1-.629.559,2.965,2.965,0,0,1-1.118.122,4.491,4.491,0,0,1-1.188-.245,3.846,3.846,0,0,1-.97-.489l.245-.891a5.023,5.023,0,0,0,.821.437,4.633,4.633,0,0,0,.944.227,1.447,1.447,0,0,0,.7-.122.356.356,0,0,0,.157-.376.467.467,0,0,0-.192-.323,1.049,1.049,0,0,0-.384-.218,2.952,2.952,0,0,0-.6-.218,7.341,7.341,0,0,1-1-.349,1.779,1.779,0,0,1-.69-.489,1.476,1.476,0,0,1-.411-.847,1.281,1.281,0,0,1,.114-.813.968.968,0,0,1,.612-.524,2.167,2.167,0,0,1,1.118-.14m2.569,2.359-.157-.917.594.035-.166-.979,1.11.079.175.97.944.061.175.944-.97-.061.323,1.66a.638.638,0,0,0,.183.419.565.565,0,0,0,.384.166.781.781,0,0,0,.428-.122l.437.882a2.169,2.169,0,0,1-.367.157,3.773,3.773,0,0,1-.5.035,1.792,1.792,0,0,1-1.118-.454,1.917,1.917,0,0,1-.594-1.127L72.937,92.6l-.62-.061m-4.665,2.839-1.11-.079-.629-4.08,1.092.07.647,4.089m-3.416.3q-.009-.017.987.5,1.31.612,2.988,1.206a52.182,52.182,0,0,0,12.6,2.245,49.047,49.047,0,0,0,12.607-.585,19.139,19.139,0,0,0,4-1.171.392.392,0,0,1,.384-.035.84.84,0,0,1,.367.28,1.577,1.577,0,0,1,.114.218,1.507,1.507,0,0,0,.009.166.381.381,0,0,1-.166.288,18.675,18.675,0,0,1-4.211,1.258,49.973,49.973,0,0,1-12.93.612A51.424,51.424,0,0,1,67.974,98.3a26.921,26.921,0,0,1-3.128-1.241,9.245,9.245,0,0,1-1.083-.6.567.567,0,0,1-.28-.349q-.052-.079-.017-.087a.307.307,0,0,1,.026-.28.393.393,0,0,1,.341-.157.418.418,0,0,1,.4.087m19.719-3.233a2.57,2.57,0,0,1,2.359,2.1l.026.009q-.026.1-.044.192a1.171,1.171,0,0,1-.2.07l-3.407-.245a.7.7,0,0,1-.262-.087.506.506,0,0,1-.131-.236v-.009a1.512,1.512,0,0,1,.079-.97.968.968,0,0,1,.568-.638,1.719,1.719,0,0,1,1.013-.183m-.716,2.595a.322.322,0,0,1,.271.017.417.417,0,0,1,.218.14,1.453,1.453,0,0,0,.839.341,1,1,0,0,0,.7-.236.193.193,0,0,1,.192-.114.389.389,0,0,1,.236.026.7.7,0,0,1,.507.446.459.459,0,0,1-.087.515,1.917,1.917,0,0,1-1.363.349,2.674,2.674,0,0,1-1.52-.55.626.626,0,0,1-.315-.533q0-.376.323-.4m-1.11,1.311-1.118-.07-1.066-5.6,1.1.061,1.083,5.609m5.146.166a.583.583,0,0,1-.218-.358q-.07-.253.079-.349a.3.3,0,0,1,.315-.131.493.493,0,0,1,.384.175.742.742,0,0,1,.21.358.407.407,0,0,1-.07.367.452.452,0,0,1-.306.114.829.829,0,0,1-.393-.175M78.72,92.08l1.057.07-.917,4.237a1.72,1.72,0,0,1-.472.952,1.494,1.494,0,0,1-.9.227,2.469,2.469,0,0,1-.612-.149,2.171,2.171,0,0,1-.55-.3l.271-.83a1.11,1.11,0,0,0,.341.218,1.169,1.169,0,0,0,.332.087.636.636,0,0,0,.367-.1.893.893,0,0,0,.192-.367V96.09l-2.42-4.237,1.162.079,1.6,2.857.55-2.708m13.9-.114,1.1.079,1.171,5.146-1.048-.061-.1-.437a1.169,1.169,0,0,1-1.083.419,2.485,2.485,0,0,1-1.45-.629,2.6,2.6,0,0,1-.865-1.442,1.514,1.514,0,0,1,.21-1.389,1.438,1.438,0,0,1,1.267-.4,1.962,1.962,0,0,1,1.232.515l-.428-1.8m-4.2-.6a.842.842,0,0,1,.515.2.745.745,0,0,1,.271.419.534.534,0,0,1-.079.428.661.661,0,0,1-.446.157.95.95,0,0,1-.542-.218.6.6,0,0,1-.262-.419.331.331,0,0,1,.079-.411.554.554,0,0,1,.463-.157m.6,5.452-.778-3.757,1.092.07.8,3.739-1.11-.052m2.551-2.446a.758.758,0,0,0-.122.734,1.293,1.293,0,0,0,.454.786,1.309,1.309,0,0,0,.751.332.775.775,0,0,0,.638-.253.9.9,0,0,0,.087-.725,1.558,1.558,0,0,0-.437-.769,1.1,1.1,0,0,0-.751-.332.614.614,0,0,0-.62.227m-8.047-.935a.577.577,0,0,0-.183.568l1.87.122a1.31,1.31,0,0,0-.428-.594,1.057,1.057,0,0,0-.655-.271A.684.684,0,0,0,83.526,93.434Z" transform="translate(-45.675 -37.761)"/><path class="ap" d="M131.378,308.566l.778,3.757,1.11.052-.8-3.739-1.092-.07m.69-1.494a.842.842,0,0,0-.515-.2.554.554,0,0,0-.463.157.331.331,0,0,0-.079.411.6.6,0,0,0,.262.419.95.95,0,0,0,.542.218.661.661,0,0,0,.446-.157.534.534,0,0,0,.079-.428.745.745,0,0,0-.271-.419m4.788.481-1.1-.079.428,1.8a1.962,1.962,0,0,0-1.232-.515,1.438,1.438,0,0,0-1.267.4,1.514,1.514,0,0,0-.21,1.389,2.6,2.6,0,0,0,.865,1.442,2.485,2.485,0,0,0,1.45.629,1.169,1.169,0,0,0,1.083-.419l.1.437,1.048.061-1.171-5.146m-2.272,3.058a.758.758,0,0,1,.122-.734.614.614,0,0,1,.62-.227,1.1,1.1,0,0,1,.751.332,1.558,1.558,0,0,1,.437.769.9.9,0,0,1-.087.725.775.775,0,0,1-.638.253,1.309,1.309,0,0,1-.751-.332,1.293,1.293,0,0,1-.454-.786m-11.672-2.953-1.057-.07-.55,2.708-1.6-2.857-1.162-.079,2.42,4.237v.044a.893.893,0,0,1-.192.367.636.636,0,0,1-.367.1,1.169,1.169,0,0,1-.332-.087,1.11,1.11,0,0,1-.341-.218l-.271.83a2.169,2.169,0,0,0,.55.3,2.469,2.469,0,0,0,.612.149,1.494,1.494,0,0,0,.9-.227,1.72,1.72,0,0,0,.472-.952l.917-4.237m7.278,4a.583.583,0,0,0,.218.358.829.829,0,0,0,.393.175.452.452,0,0,0,.306-.114.407.407,0,0,0,.07-.367.743.743,0,0,0-.21-.358.493.493,0,0,0-.384-.175.3.3,0,0,0-.315.131q-.149.1-.079.349m-6.046.122,1.118.07-1.083-5.609-1.1-.061,1.066,5.6m3.984-3.521a2.357,2.357,0,0,0-1.04-.314,1.719,1.719,0,0,0-1.013.183.968.968,0,0,0-.568.638,1.512,1.512,0,0,0-.079.97v.009a.506.506,0,0,0,.131.236.7.7,0,0,0,.262.087l3.407.245a1.172,1.172,0,0,0,.2-.07q.017-.087.044-.192l-.026-.009A2.374,2.374,0,0,0,129,309a2.335,2.335,0,0,0-.874-.743m-1.651,1.249a.577.577,0,0,1,.183-.568.684.684,0,0,1,.6-.175,1.057,1.057,0,0,1,.655.271,1.309,1.309,0,0,1,.428.594l-1.87-.122m-18.12,2.167q-1-.515-.987-.5a.417.417,0,0,0-.4-.087.393.393,0,0,0-.341.157.307.307,0,0,0-.026.28q-.035.009.017.087a.567.567,0,0,0,.28.349,9.241,9.241,0,0,0,1.083.6,26.917,26.917,0,0,0,3.128,1.241,51.426,51.426,0,0,0,13.009,2.35,49.974,49.974,0,0,0,12.93-.612,18.675,18.675,0,0,0,4.211-1.258.381.381,0,0,0,.166-.288,1.5,1.5,0,0,1-.009-.166,1.577,1.577,0,0,0-.114-.218.839.839,0,0,0-.367-.28.392.392,0,0,0-.384.035,19.144,19.144,0,0,1-4,1.171,49.049,49.049,0,0,1-12.607.585,52.183,52.183,0,0,1-12.6-2.245q-1.677-.594-2.988-1.206m1.319-.874,1.11.079-.647-4.089-1.092-.07.629,4.08m5.618-3.678.157.917.62.061.262,1.686a1.917,1.917,0,0,0,.594,1.127,1.792,1.792,0,0,0,1.118.454,3.771,3.771,0,0,0,.5-.035,2.168,2.168,0,0,0,.367-.157l-.437-.882a.781.781,0,0,1-.428.122.565.565,0,0,1-.384-.166.638.638,0,0,1-.183-.419l-.323-1.66.97.061-.175-.944-.944-.061-.175-.97-1.11-.079.166.979-.594-.035m-1.468-1.267a3.844,3.844,0,0,0-.944-.175,2.167,2.167,0,0,0-1.118.14.968.968,0,0,0-.612.524,1.28,1.28,0,0,0-.114.813,1.476,1.476,0,0,0,.411.847,1.779,1.779,0,0,0,.69.489,7.34,7.34,0,0,0,1,.349,2.951,2.951,0,0,1,.6.218,1.048,1.048,0,0,1,.384.218.467.467,0,0,1,.192.323.356.356,0,0,1-.157.376,1.446,1.446,0,0,1-.7.122,4.629,4.629,0,0,1-.944-.227,5.022,5.022,0,0,1-.821-.437l-.245.891a3.846,3.846,0,0,0,.97.489,4.49,4.49,0,0,0,1.188.245,2.966,2.966,0,0,0,1.118-.122,1.427,1.427,0,0,0,.629-.559,1.6,1.6,0,0,0,.114-.8,1.631,1.631,0,0,0-.393-.856,2.247,2.247,0,0,0-.716-.489q-.4-.166-.97-.341a7.337,7.337,0,0,1-.874-.306.582.582,0,0,1-.332-.428.364.364,0,0,1,.166-.419,1.022,1.022,0,0,1,.673-.122,3.247,3.247,0,0,1,1.459.524l.21-.891A3.022,3.022,0,0,0,113.826,305.857Z" transform="translate(-88.81 -253.269)"/><path class="aq" d="M131.51,302.524a.322.322,0,0,0-.271-.017q-.323.026-.323.4a.626.626,0,0,0,.315.533,2.674,2.674,0,0,0,1.52.55,1.917,1.917,0,0,0,1.363-.349.459.459,0,0,0,.087-.516.7.7,0,0,0-.507-.446.389.389,0,0,0-.236-.026.193.193,0,0,0-.192.114,1,1,0,0,1-.7.236,1.453,1.453,0,0,1-.839-.341.417.417,0,0,0-.218-.14m-15.281-6.535q-.009-.044-.035-.052h-.044q-.061-.009-.035.009a3.927,3.927,0,0,0-1.258.743,2.26,2.26,0,0,0-.55.62l-.07.035q-.061-.009-.07-.044l-1.083-1.066q-.052-.035-.079-.026-.07-.018-.07.017l-.411.489q-.061.017-.044.061a.217.217,0,0,0,.079.061q1.022.778,1.73,1.372a.138.138,0,0,0,.087.018.2.2,0,0,1,.052-.026,4.418,4.418,0,0,1,1.791-2.079.062.062,0,0,1,.044-.061A.133.133,0,0,0,116.23,295.989Z" transform="translate(-93.677 -245.235)"/><path class="ar" d="M416.086,232.85q-1.092.052-1.223.952a3.128,3.128,0,0,1,.428.638,16.238,16.238,0,0,1,1.337,11.052,5.307,5.307,0,0,1-2.167,3.53.233.233,0,0,1-.061.044l-1.249.847q6.867,3.259,6.954-3.958Q420.209,237.655,416.086,232.85Z" transform="translate(-341.811 -193.175)"/><path class="as" d="M551.324,551.088q1.686-5.7-5.635-5.338-9.471.262-22.139,5.469,1.59,1.686,3.136,3.5.8.935,1.677,1.817l.245.245a52.187,52.187,0,0,1,10.9-6.43,42.618,42.618,0,0,0-9.689,7.575,38.746,38.746,0,0,0,7.514,5.225,49.268,49.268,0,0,0,7.217-3.407Q550.092,555.255,551.324,551.088Z" transform="translate(-432.92 -451.382)"/><path class="at" d="M592.8,393.546a9.893,9.893,0,0,0,3.064-.275,7.786,7.786,0,0,0,2.514-1.36,2.953,2.953,0,0,1-1.873,2.616C594.726,395.06,592.8,393.546,592.8,393.546Z" transform="translate(-525.699 -342.347)"/></g><circle class="au" cx="27.5" cy="27.5" r="27.5" transform="translate(156.78 57.47)"/><circle class="au" cx="22.5" cy="22.5" r="22.5" transform="translate(117.78 19.47)"/><circle class="au" cx="27" cy="27" r="27" transform="translate(181.78 0.47)"/><circle class="au" cx="23.5" cy="23.5" r="23.5" transform="translate(233.78 44.47)"/><g transform="translate(120.647 20.575)"><g transform="translate(1.779 3.411)"><ellipse class="b" cx="17.794" cy="17.794" rx="17.794" ry="17.794" transform="translate(0 0)"/><g class="av" transform="translate(0 0)"><g transform="translate(0 0)"><rect class="aw" width="35.589" height="35.589"/></g></g></g><g transform="translate(0 0)"><path class="c" d="M1.779,21.057H0V0H39.148V21.057H37.368a17.794,17.794,0,0,1-35.589,0Z" transform="translate(0 0.148)"/><g class="ax"><g transform="translate(0 -2.521)"><g transform="translate(4.745 5.338)"><path class="d" d="M0,36.182A12.012,12.012,0,0,1,11.27,24.193V21.444a8.309,8.309,0,0,1-4.7-6.633,1.78,1.78,0,0,1-1.528-1.762V10.973A1.78,1.78,0,0,1,6.525,9.218V8.3a8.3,8.3,0,1,1,16.608,0v.914a1.781,1.781,0,0,1,1.483,1.755v2.076a1.78,1.78,0,0,1-1.528,1.762,8.31,8.31,0,0,1-4.7,6.633v2.75a12.012,12.012,0,0,1,11.27,11.989Z" transform="translate(0 0)"/><g class="ay" transform="translate(0 0)"><g transform="translate(-4.745 0)"><rect class="az" width="39.148" height="36.182"/></g><path class="ba" d="M8.3,9.469A8.313,8.313,0,0,1,0,1.165v-1a8.353,8.353,0,0,0,8.3,8.12,8.319,8.319,0,0,0,8.3-8.275V1.165A8.313,8.313,0,0,1,8.3,9.469Z" transform="translate(6.525 13.96)"/></g></g><g transform="translate(4.745 30.361)"><g transform="translate(0 0)"><path class="e" d="M29.658,11.159H0A12.007,12.007,0,0,1,7.573,0c-.007.075-.011.154-.011.238,0,2.41,3.293,4.371,7.34,4.371S22.243,2.648,22.243.238c0-.058,0-.117-.006-.176a12.006,12.006,0,0,1,7.421,11.1Z" transform="translate(0 0)"/><g class="bb" transform="translate(0)"><g transform="translate(-4.745 -5.152)"><rect class="e" width="39.148" height="16.312"/></g></g></g></g><g transform="translate(11.566 19.87)"><g transform="translate(0 0)"><rect class="c" width="16.015" height="6.525"/><path class="bc" d="M0,0A2.076,2.076,0,0,0,2.076,2.076h0A2.076,2.076,0,0,0,4.152,0" transform="translate(5.931 2.224)"/></g></g><rect class="c" width="39.148" height="41.52"/><g class="bd"><g transform="translate(8.601 2.669)"><path class="be" d="M0,29.3V10.973a10.973,10.973,0,1,1,21.946,0V29.3a10.633,10.633,0,0,0-6.821-2.463h-.593V24.113a8.309,8.309,0,0,0,4.714-6.783,1.78,1.78,0,0,0,1.514-1.76V13.642a1.779,1.779,0,0,0-.963-1.581q-.173-.063-.345-.135a1.767,1.767,0,0,0-.175-.039v-.037A11.361,11.361,0,0,1,14.252,7.1a12.891,12.891,0,0,1-1.045-2.3A20.086,20.086,0,0,1,7.762,9.267a22.24,22.24,0,0,1-4.2,1.894v9.191a8.338,8.338,0,0,0,3.855,3.761V26.84H6.821a10.67,10.67,0,0,0-3.262.508v6.759A4.153,4.153,0,0,1,0,38.216Z"/><g class="bf"><g transform="translate(-8.601 -2.669)"><rect class="bg" width="39.148" height="41.52"/></g></g><path class="bh" d="M18.388,17.452h0a10.691,10.691,0,0,0-6.821-2.462h-.593V12.262a8.332,8.332,0,0,0,4.714-6.783A1.789,1.789,0,0,0,17.2,3.72V1.792A1.775,1.775,0,0,0,16.238.21a6.6,6.6,0,0,0,2.149.417ZM0,15.5v-7a8.365,8.365,0,0,0,3.855,3.761v2.727H3.262A10.673,10.673,0,0,0,0,15.5ZM15.891.075c-.057-.015-.115-.028-.173-.038V0l.173.074Z" transform="translate(3.559 11.851)"/></g></g></g></g></g></g><g transform="translate(159.795 58.249)"><g transform="translate(2.235 4.284)"><ellipse class="g" cx="22.353" cy="22.353" rx="22.353" ry="22.353" transform="translate(0 0)"/><g class="bi" transform="translate(0 0)"><g transform="translate(0 0)"><rect class="g" width="44.707" height="44.707"/></g></g></g><g transform="translate(0 0)"><path class="c" d="M2.235,26.452H0V0H49.177V26.452H46.942a22.353,22.353,0,0,1-44.707,0Z" transform="translate(0 0.186)"/><g class="bj"><g transform="translate(0 -3.167)"><g transform="translate(5.961 6.706)"><path class="d" d="M0,45.452a15.089,15.089,0,0,1,14.157-15.06V26.937a10.437,10.437,0,0,1-5.9-8.331,2.236,2.236,0,0,1-1.92-2.213V13.784A2.236,2.236,0,0,1,8.2,11.58V10.432a10.431,10.431,0,1,1,20.863,0V11.58a2.236,2.236,0,0,1,1.863,2.2v2.608A2.236,2.236,0,0,1,29,18.606a10.438,10.438,0,0,1-5.9,8.332v3.454a15.089,15.089,0,0,1,14.157,15.06Z" transform="translate(0 0)"/><g class="bk" transform="translate(0 0)"><g transform="translate(-5.961 0)"><rect class="az" width="49.177" height="45.452"/></g><path class="ba" d="M10.432,11.9A10.444,10.444,0,0,1,0,1.47V.185A10.488,10.488,0,0,0,10.432,10.411,10.448,10.448,0,0,0,20.863.007V1.47A10.443,10.443,0,0,1,10.432,11.9Z" transform="translate(8.196 17.531)"/></g></g><g transform="translate(5.961 35.68)"><g transform="translate(0 1.468)"><path class="b" d="M37.256,15.01H0A15.08,15.08,0,0,1,13.626,0,4.383,4.383,0,0,0,13.6.49a4.86,4.86,0,0,0,5.03,4.657A4.86,4.86,0,0,0,23.657.49,4.38,4.38,0,0,0,23.63,0,15.08,15.08,0,0,1,37.256,15.009Z" transform="translate(0 0)"/><g class="bl" transform="translate(0 0)"><g transform="translate(-5.961 -5.481)"><rect class="b" width="49.177" height="20.491"/></g></g></g><g transform="translate(0 0)"><g transform="translate(0 1.204)"><path class="bm" d="M37.256,14.9H24.522a28.976,28.976,0,0,0,1-7.73A29.572,29.572,0,0,0,24.679.031,15.083,15.083,0,0,1,37.256,14.9Zm-24.335,0H0A15.083,15.083,0,0,1,12.771,0a29.537,29.537,0,0,0-.849,7.173,28.98,28.98,0,0,0,1,7.729Z" transform="translate(0 0.371)"/><path class="b" d="M0,2.517,1.78,1.182a.745.745,0,0,1,.9.008l1.227.955Z" transform="translate(27.755 8.287)"/><path class="bn" d="M4.657,0c-1.118,5.4.931,15.275.931,15.275H2.608L0,8.569,1.118,6.892,0,5.775,3.539.186A4.632,4.632,0,0,1,4.657,0Z" transform="translate(8.196 0)"/><path class="bn" d="M-29.069,0C-27.951,5.4-30,15.275-30,15.275h2.98l2.608-6.706-1.118-1.677,1.118-1.118L-27.951.186A4.632,4.632,0,0,0-29.069,0Z" transform="translate(53.471 0)"/></g><path class="bo" d="M10.9,6.9h0L9.794,6.024l-.853.062L9.128,5.5l-.014-.012a3.089,3.089,0,0,0,1.877-2.63V0c.051.035.1.067.139.1a4.941,4.941,0,0,1,1.4,1.493,3.573,3.573,0,0,1,.512,1.828,3.593,3.593,0,0,1-.577,1.934A5.119,5.119,0,0,1,10.9,6.9Zm-8.762,0h0A5.119,5.119,0,0,1,.577,5.352,3.593,3.593,0,0,1,0,3.418,3.573,3.573,0,0,1,.512,1.59,4.941,4.941,0,0,1,1.91.1L2.049,0V2.857a3.089,3.089,0,0,0,1.877,2.63L3.912,5.5l.186.587-.853-.062L2.139,6.9Z" transform="translate(12.108)"/></g></g><g transform="translate(14.53 24.961)"><g transform="translate(0 0)"><rect class="c" width="20.118" height="8.196"/><path class="bc" d="M0,0A2.608,2.608,0,0,0,2.608,2.608h0A2.608,2.608,0,0,0,5.216,0" transform="translate(7.451 2.794)"/></g></g><rect class="c" width="49.177" height="52.158"/><g class="bp"><g transform="translate(12.953 4.423)"><g transform="translate(0 0)"><path class="h" d="M-143.543,2.74a8.385,8.385,0,0,1,3.271-1.561,6.281,6.281,0,0,1,3.112-.014c.3.073.407.145.675-.028.226-.146,1.8-1.768,6.6-.867,4.85.91,6.29,8.21,8.089,8.488.648.1,1.45-.072,1.475-.471a5.128,5.128,0,0,1,.62,3.926,4.344,4.344,0,0,1-1.861,2.82,5.347,5.347,0,0,1-3.115.668,4.173,4.173,0,0,1-1.31-.329c-.514-.225-.923-.632-1.428-.846a10.032,10.032,0,0,0,1.709,1.2,4.21,4.21,0,0,0,.952.377,2.669,2.669,0,0,0,.923.22,6.764,6.764,0,0,1-4.158-.589,9.627,9.627,0,0,1-1.712-1.02,8.176,8.176,0,0,1-1.548-1.324c.173.224-.13-.109-.17-.15q-.17-.173-.333-.353c-.187-.206-.372-.415-.546-.632a13.775,13.775,0,0,1-1.026-1.454c-.312-.513-1.557-2.584-1.933-3.072.355,1.063.741,2.127,1.194,3.153a5.237,5.237,0,0,1-2.29-1.74,5.488,5.488,0,0,1-1.138-2.732,9.518,9.518,0,0,1-4.1,4.526c.373-.695.942-1.283,1.314-1.989-1.712,1.738-4.576,2.588-5.327,5.136-.192-.886-.811-1.6-1-2.5a13.526,13.526,0,0,1-.321-3.1A7.952,7.952,0,0,1-143.543,2.74Z" transform="translate(146.93 0)"/><g class="bq"><g transform="translate(-12.853 -4.312)"><rect class="br" width="49.177" height="52.158"/></g></g></g></g></g></g></g></g></g><g transform="translate(235.387 45.103)"><g transform="translate(1.944 3.726)"><circle class="i" cx="19.44" cy="19.44" r="19.44" transform="translate(0 0)"/><g class="bs" transform="translate(0 0)"><g transform="translate(0 0)"><rect class="i" width="38.881" height="38.881"/></g></g></g><g transform="translate(0)"><path class="c" d="M1.944,23H0V0H42.769V23H40.825A19.44,19.44,0,0,1,1.944,23Z" transform="translate(0 0.162)"/><g class="bt"><g transform="translate(5.184 0.648)"><g transform="translate(0 2.43)"><path class="d" d="M0,39.529a13.123,13.123,0,0,1,12.312-13.1v-3a9.078,9.078,0,0,1-5.135-7.246,1.944,1.944,0,0,1-1.669-1.925V11.988a1.945,1.945,0,0,1,1.62-1.917v-1a9.072,9.072,0,0,1,18.144,0v1a1.945,1.945,0,0,1,1.62,1.917v2.268a1.944,1.944,0,0,1-1.669,1.925,9.078,9.078,0,0,1-5.135,7.246v3A13.123,13.123,0,0,1,32.4,39.529Z" transform="translate(0 0)"/><g class="bu" transform="translate(0 0)"><g transform="translate(-5.184 0)"><rect class="az" width="42.769" height="39.529"/></g><path class="ba" d="M9.072,10.347A9.083,9.083,0,0,1,0,1.274V.17A9.123,9.123,0,0,0,9.072,9.05,9.088,9.088,0,0,0,18.144.007V1.274A9.083,9.083,0,0,1,9.072,10.347Z" transform="translate(7.128 15.25)"/></g></g><g transform="translate(0 26.17)"><path class="j" d="M32.4,15.853H0A13.214,13.214,0,0,1,7.16,4.083,3.581,3.581,0,0,1,7.128,3.6,2.819,2.819,0,0,1,8.62,1.04,9.18,9.18,0,0,1,12.312,0V3.133a3.888,3.888,0,1,0,7.776,0V0a9.179,9.179,0,0,1,3.692,1.04A2.819,2.819,0,0,1,25.272,3.6a3.6,3.6,0,0,1-.032.484A13.215,13.215,0,0,1,32.4,15.852Z" transform="translate(0 0)"/><g class="bv" transform="translate(0 0)"><g transform="translate(-5.184 -2.138)"><rect class="aw" width="42.769" height="17.991"/></g><path class="bw" d="M1.134,8.48H0V0A10.446,10.446,0,0,0,1.134.587V8.479ZM11.421,7.172a.568.568,0,0,1-.567-.567V.587A10.445,10.445,0,0,0,11.988,0V6.605A.568.568,0,0,1,11.421,7.172Z" transform="translate(10.206 7.373)"/><path class="bx" d="M10.928,9.04h0a11.831,11.831,0,0,0,6.093-1.768C18.842,6.1,19.845,4.583,19.845,3c0-1.413-.793-2.395-2.424-3,2.776.53,4.125,1.578,4.125,3.2a3.52,3.52,0,0,1-.921,2.272,7.971,7.971,0,0,1-2.433,1.856A16.485,16.485,0,0,1,10.928,9.04Zm-.31,0A16.485,16.485,0,0,1,3.354,7.331,7.971,7.971,0,0,1,.921,5.475,3.52,3.52,0,0,1,0,3.2C0,1.578,1.349.53,4.125,0,2.494.607,1.7,1.589,1.7,3c0,1.581,1,3.1,2.824,4.27A11.831,11.831,0,0,0,10.618,9.04Z" transform="translate(5.427 -0.057)"/></g></g><g transform="translate(7.452 18.306)"><g transform="translate(0 0)"><rect class="c" width="17.496" height="7.128"/><path class="bc" d="M0,0A2.268,2.268,0,0,0,2.268,2.268h0A2.268,2.268,0,0,0,4.536,0" transform="translate(6.48 2.43)"/></g></g><g transform="translate(6.804 0)"><path class="k" d="M17.2,3.713A13.781,13.781,0,0,0,15.725,2.48c-.111-.086-.225-.169-.334-.258a1.771,1.771,0,0,1-.309-.269c-.073-.161-.031-.036-.021-.228C15.075,1.482,15.57.8,15.2.64c-.162-.069-.452.115-.608.176a9.637,9.637,0,0,1-.928.308c.151-.3.439-.9-.1-.742-.421.126-.814.448-1.238.6.14-.23.7-.941.194-.981a3.837,3.837,0,0,0-.786.346,9.039,9.039,0,0,1-1.561.407c-1.814.327-3.935.234-5.614,1.06A7.941,7.941,0,0,0,1.239,4.7,9.468,9.468,0,0,0,.1,8.625a19.726,19.726,0,0,0-.068,3.1c.017.335.055,1.881.542,1.413.243-.233.241-1.175.3-1.494a14.956,14.956,0,0,1,.442-1.885,6.294,6.294,0,0,1,1.669-2.98C3.557,6.3,3.958,5.652,4.5,5.17c.246-.217.058-.194.453-.166.265.019.532.026.8.033.615.016,1.231.012,1.846.014,1.239,0,2.472.022,3.709-.043.55-.029,1.1-.044,1.65-.1.306-.028.85-.225,1.1-.075.231.137.471.586.636.769a9.746,9.746,0,0,0,1.316,1.121,4.822,4.822,0,0,1,1.727,2.833c.289,1.155.208,2.227.566,3.363.063.2.229.544.434.236a2.258,2.258,0,0,0,.028-.554c0-.732.185-1.282.183-2.019C18.945,8.348,18.873,5.426,17.2,3.713Z" transform="translate(0 0)"/><g class="by" transform="translate(0)"><g transform="translate(-11.826 -2.754)"><rect class="br" width="42.769" height="45.361"/></g></g></g></g></g></g></g><g transform="translate(184.383 0)"><g transform="translate(2.235 4.284)"><circle class="l" cx="22.353" cy="22.353" r="22.353" transform="translate(0 0)"/><g class="bz" transform="translate(0 0)"><g transform="translate(0 0)"><rect class="l" width="44.707" height="44.707"/></g></g></g><g transform="translate(0)"><path class="c" d="M2.235,26.452H0V0H49.177V26.452H46.942a22.353,22.353,0,0,1-44.707,0Z" transform="translate(0 0.186)"/><g class="bj"><g transform="translate(5.961 0.186)"><g transform="translate(0 3.353)"><path class="d" d="M0,45.452a15.089,15.089,0,0,1,14.157-15.06V26.937a10.437,10.437,0,0,1-5.9-8.331,2.236,2.236,0,0,1-1.92-2.213V13.784a2.236,2.236,0,0,1,1.863-2.2V10.432a10.431,10.431,0,1,1,20.863,0v1.149a2.236,2.236,0,0,1,1.863,2.2v2.608A2.236,2.236,0,0,1,29,18.606a10.438,10.438,0,0,1-5.9,8.332v3.454a15.089,15.089,0,0,1,14.157,15.06Z" transform="translate(0 0)"/><g class="ca" transform="translate(0 0)"><g transform="translate(-5.961 0)"><rect class="az" width="49.177" height="45.452"/></g><path class="ba" d="M10.432,11.9A10.444,10.444,0,0,1,0,1.47V.185A10.488,10.488,0,0,0,10.432,10.411,10.448,10.448,0,0,0,20.863.007V1.47A10.443,10.443,0,0,1,10.432,11.9Z" transform="translate(8.196 17.531)"/></g></g><g transform="translate(8.569 21.608)"><g transform="translate(0 0)"><rect class="c" width="20.118" height="8.196"/><path class="bc" d="M0,0A2.608,2.608,0,0,0,2.608,2.608h0A2.608,2.608,0,0,0,5.216,0" transform="translate(7.451 2.794)"/></g></g><g transform="translate(3.26)"><path class="f" d="M19.837,32.04V30.291a10.436,10.436,0,0,0,5.894-8.521,2.232,2.232,0,0,0,1.893-2.21V17.138a4.675,4.675,0,0,0-.147-1.042c-3.316-1-6.583-4.044-8.484-8.335q-.114-.257-.219-.515a8.522,8.522,0,0,1-4.8,4.962,16.294,16.294,0,0,0,2.308-3.871,24.779,24.779,0,0,1-5.651,4.423,24.6,24.6,0,0,1-6.762,2.734,2.234,2.234,0,0,0-.717,1.644v2.422a2.232,2.232,0,0,0,1.893,2.21,10.436,10.436,0,0,0,5.894,8.521V32.04H3.152a1.487,1.487,0,0,1-1.483-1.49V15.711a1.751,1.751,0,0,1-.769-.2A2.371,2.371,0,0,1,0,13.505a2.132,2.132,0,0,1,1.854-2.328,13.746,13.746,0,0,1,27.134.787c.061.466.1,2.931.113,3.982a.3.3,0,0,1,.006.051V26.079a5.947,5.947,0,0,1-5.932,5.961Z" transform="translate(0)"/><g class="cb" transform="translate(0)"><g transform="translate(-9.27 -3.353)"><rect class="bg" width="49.314" height="52.158"/></g></g></g><g transform="translate(0.093 30.283)"><g transform="translate(0 2.228)"><path class="b" d="M37.256,16.367H0A16.633,16.633,0,0,1,13.609,0C13.6.108,13.6.222,13.6.341a5.031,5.031,0,1,0,10.059,0c0-.113,0-.228-.011-.341A16.633,16.633,0,0,1,37.256,16.366Z" transform="translate(0 0)"/><g class="cc" transform="translate(0 0)"><g transform="translate(-5.961 -6.249)"><rect class="cd" width="49.177" height="22.617"/></g></g></g><path class="bo" d="M2.076,7.55h0A5.319,5.319,0,0,1,.56,5.865,4.255,4.255,0,0,1,.5,1.758,5.205,5.205,0,0,1,1.855.128C1.909.085,1.964.042,2.019,0V3.113a3.383,3.383,0,0,0,1.85,2.872L3.855,6l.184.641L3.2,6.571,2.076,7.55Zm8.614-.074h0L9.653,6.571l-.841.067L9,6l-.014-.012a3.382,3.382,0,0,0,1.85-2.872V.144a5.193,5.193,0,0,1,1.338,1.614,4.252,4.252,0,0,1-.034,4.056A5.267,5.267,0,0,1,10.69,7.476Z" transform="translate(12.108)"/></g><g transform="translate(6.613 14.157)"><g transform="translate(0 0)"><path class="ce" d="M4.657,7.637H4.143C1.549,7.637,0,6.21,0,3.819,0,1.886.338,0,4.383,0h.548C8.976,0,9.314,1.886,9.314,3.819,9.314,6.067,7.4,7.637,4.657,7.637Zm-.3-6.52C.745,1.118.745,2.392.745,4.005c0,1.317.581,2.887,3.348,2.887h.564c2.3,0,3.912-1.187,3.912-2.887,0-1.613,0-2.888-3.611-2.888Z" transform="translate(1.677 0)"/><path class="ce" d="M4.657,7.637H4.143C1.549,7.637,0,6.21,0,3.819,0,1.886.338,0,4.383,0h.548C8.976,0,9.314,1.886,9.314,3.819,9.314,6.067,7.4,7.637,4.657,7.637Zm-.3-6.52C.745,1.118.745,2.392.745,4.005c0,1.317.581,2.887,3.348,2.887h.564c2.3,0,3.912-1.187,3.912-2.887,0-1.613,0-2.888-3.611-2.888Z" transform="translate(13.226 0)"/><path class="ce" d="M.55,1.075C.679.949,2.088,0,6.054,0c3.325,0,4.029.345,5.095.867l.078.038a3.169,3.169,0,0,0,.9.169,3.166,3.166,0,0,0,.85-.162A10.557,10.557,0,0,1,18.162,0c3.966,0,5.375.949,5.5,1.075a.544.544,0,0,1,.55.538V2.15a.544.544,0,0,1-.55.538s-1.286,0-1.286.538-.366-.778-.366-1.075V1.627A9.832,9.832,0,0,0,18.162.892a9.886,9.886,0,0,0-4.247.78l.011.025v.37l-.413,1-.51-.2a2.428,2.428,0,0,0-.28-.084,2.584,2.584,0,0,0-1.116-.051,1.474,1.474,0,0,0-.352.118l-.492.241-.492-.962.022-.427.015-.036A8.13,8.13,0,0,0,6.054.892,9.834,9.834,0,0,0,2.2,1.626V2.15c0,.3-.55,1.613-.55,1.075S.55,2.688.55,2.688A.544.544,0,0,1,0,2.15V1.613A.544.544,0,0,1,.55,1.075Z"/></g></g></g></g></g></g></g><g transform="translate(13.319 95.661)"><path class="cf" d="M1061.922,754.75l-7.45,28.483h-11.346l6.945-32.926Z" transform="translate(-1023.799 -746.525)"/><path class="cg" d="M1167.662,783.233l-9.966-27.2,25.759-5.727-6.945,32.926Z" transform="translate(-1157.183 -746.525)"/><path class="cg" d="M1174.56,744.614l-24.8,1.739-.472-4.214,27.142-6.6Z" transform="translate(-1149.291 -733.283)"/><path class="cf" d="M1045.893,740.209l-1.183,5.123-12.835-.718,1.873-9.076Z" transform="translate(-1006.605 -733.283)"/><g transform="translate(9.21 5.655)"><path class="ch" d="M1276.645,783.517l.166-8.469-1.338.094-1.017-5.743,3.951-.988-.136,6.535,1.171-.082-.355,8.677Z" transform="translate(-1274.456 -768.411)"/><path class="ch" d="M1274.108,954.064l.805,11.808h-2.518l-.648-11.855Z" transform="translate(-1269.646 -934.818)"/></g><path class="ci" d="M1241.029,717.362c1.459-.637,4.363,4.107,4.363,4.107C1238.095,721.64,1239.57,718,1241.029,717.362Zm4,3.875s-2.4-4.169-3.769-3.606S1238.171,721.4,1245.029,721.238Z" transform="translate(-1227.615 -716.935)"/><path class="cj" d="M1240.82,719.111a.9.9,0,0,1,.127-.061l2.7-1.178a1.865,1.865,0,0,0-.694,2.958h0c.7.686,2.209,1.216,5.057,1.149l-2.307.56C1238.4,723.678,1239.435,719.93,1240.82,719.111Z" transform="translate(-1230.235 -717.445)"/><path class="ch" d="M1240.82,719.111a.9.9,0,0,1,.127-.061l2.7-1.178a1.865,1.865,0,0,0-.694,2.958h0c.7.686,2.209,1.216,5.057,1.149l-2.307.56C1238.4,723.678,1239.435,719.93,1240.82,719.111Z" transform="translate(-1230.235 -717.445)"/><path class="ck" d="M1244.588,720.02c1.369-.563,3.769,3.606,3.769,3.606a14.068,14.068,0,0,1-2.6-.146,14.9,14.9,0,0,0-2.42-1.793A2.126,2.126,0,0,1,1244.588,720.02Z" transform="translate(-1230.943 -719.324)"/><path class="ch" d="M1244.588,720.02c1.369-.563,3.769,3.606,3.769,3.606a14.068,14.068,0,0,1-2.6-.146,14.9,14.9,0,0,0-2.42-1.793A2.126,2.126,0,0,1,1244.588,720.02Z" transform="translate(-1230.943 -719.324)"/><path class="ci" d="M1188.76,719.033s1.368-4.2,2.9-4.268C1193.322,714.7,1195.584,716.758,1188.76,719.033Zm2.765-4.014c-1.43.076-2.478,3.619-2.478,3.619C1195.459,716.5,1192.955,714.943,1191.525,715.019Z" transform="translate(-1170.338 -714.658)"/><path class="cl" d="M1168.349,713.745a1.034,1.034,0,0,0-.135,0l-2.842.1c.936-.034,2.191.664,1.482,1.73h0c-.454.682-1.722,1.65-4.386,2.538l2.315-.5C1171.884,715.985,1169.866,713.833,1168.349,713.745Z" transform="translate(-1144.045 -713.744)"/><path class="cm" d="M1168.349,713.745a1.034,1.034,0,0,0-.135,0l-2.842.1c.936-.034,2.191.664,1.482,1.73h0c-.454.682-1.722,1.65-4.386,2.538l2.315-.5C1171.884,715.985,1169.866,713.833,1168.349,713.745Z" transform="translate(-1144.045 -713.744)"/><path class="cm" d="M1193.56,717.21c-1.43.076-2.478,3.619-2.478,3.619a18.755,18.755,0,0,0,2.372-.947,14.08,14.08,0,0,1,1.739-1.978A1.845,1.845,0,0,0,1193.56,717.21Z" transform="translate(-1172.374 -716.849)"/><path class="cn" d="M1080.96,939.716l-.021.1,12.4-1.687.077-.294-3.559.478Z" transform="translate(-1059.208 -914.654)"/><path class="cn" d="M1217.047,953.319l-15.655-.314.115.314,15.519.1Z" transform="translate(-1195.294 -928.257)"/><path class="cm" d="M1151.314,913.668l-.891,4.2,4.495-.725.777-3.679Z" transform="translate(-1128.67 -892.802)"/><g transform="translate(4.547 20.286)"><path class="cm" d="M1074.232,910.061l3.709-.2-.756,2.893-3.559.478Z" transform="translate(-1047.519 -909.866)"/><path class="ch" d="M1210.872,912.442l-.891,4.2-15.655-.314-1.55-4.232Z" transform="translate(-1192.775 -911.862)"/></g><path class="cm" d="M1083.323,751.245l-1.181,6.481-1.049-.059-4.731,24.949h-4.555l5.311-25.171,1.022.057.956-7.883Z" transform="translate(-1048.167 -745.908)"/><path class="co" d="M1065.178,824.461l.126-.511-11.861-.664-.6.042-.114.487Z" transform="translate(-1028.175 -811.956)"/><path class="cp" d="M2.233,17.448l22.878-1.611-.072.5L3.173,20Z" transform="translate(-0.457 -4.476)"/></g><path class="l" d="M32.279,6.247a23.638,23.638,0,0,0-32.02,0A.808.808,0,0,0,.241,7.415L1.982,9.142a.826.826,0,0,0,1.139.019,19.505,19.505,0,0,1,26.3,0,.826.826,0,0,0,1.139-.019L32.3,7.415a.809.809,0,0,0-.018-1.168Zm-5.706,5.772a15.608,15.608,0,0,0-20.607,0A.8.8,0,0,0,5.936,13.2l1.751,1.728a.83.83,0,0,0,1.121.041,11.45,11.45,0,0,1,14.921,0,.829.829,0,0,0,1.121-.041L26.6,13.2A.8.8,0,0,0,26.572,12.019Z" transform="matrix(0.574, 0.819, -0.819, 0.574, 116.302, 62.419)"/></g></svg>