<svg xmlns="http://www.w3.org/2000/svg" width="22.98" height="22.98" viewBox="0 0 22.98 22.98"><defs><style>.a{fill:#fff;}</style></defs><path class="a" d="M13.948,2.25A11.238,11.238,0,0,0,2.667,13.444a11.079,11.079,0,0,0,1.619,5.78L2.25,25.23,8.5,23.246a11.3,11.3,0,0,0,16.734-9.8A11.238,11.238,0,0,0,13.948,2.25ZM19.558,17.7a2.914,2.914,0,0,1-2,1.286c-.529.028-.544.41-3.429-.843a11.771,11.771,0,0,1-4.756-4.5,5.532,5.532,0,0,1-1.064-3A3.2,3.2,0,0,1,9.412,8.3a1.1,1.1,0,0,1,.781-.329c.227,0,.374-.007.542,0s.42-.035.639.546.741,2.008.808,2.154a.523.523,0,0,1,.005.5,1.959,1.959,0,0,1-.306.466c-.151.161-.317.361-.451.485-.15.137-.306.286-.149.578a8.633,8.633,0,0,0,1.528,2.038,7.871,7.871,0,0,0,2.262,1.5c.283.154.452.137.627-.048s.751-.808.954-1.086.393-.224.654-.119,1.649.849,1.932,1,.472.232.539.354A2.369,2.369,0,0,1,19.558,17.7Z" transform="translate(-2.25 -2.25)"/></svg>