<svg xmlns="http://www.w3.org/2000/svg" width="48.341" height="14.085" viewBox="0 0 48.341 14.085"><defs><style>.a{fill:#fff;stroke:rgba(0,0,0,0);}</style></defs><path class="a" d="M-5525.981-5143.014l-1.624-1.608-1.332,1.373a2.965,2.965,0,0,1-2.3,1.048,2.843,2.843,0,0,1-2.864-2.836v-1.319l7.936-7.861a2.9,2.9,0,0,1,4.087,0,2.821,2.821,0,0,1,.861,2.026,2.862,2.862,0,0,1-.861,2.039l-1.442,1.464,1.624,1.608a2.863,2.863,0,0,1,.863,2.04,2.817,2.817,0,0,1-.863,2.026,2.847,2.847,0,0,1-2.029.84A2.941,2.941,0,0,1-5525.981-5143.014Zm23.647-1.951-.605-1.379h-3.612l-.626,1.421a.631.631,0,0,1-.605.411.6.6,0,0,1-.605-.6.64.64,0,0,1,.086-.293l2.761-6.1a.83.83,0,0,1,.786-.526h.063a.816.816,0,0,1,.776.526l2.762,6.1a.563.563,0,0,1,.075.272.611.611,0,0,1-.617.622A.675.675,0,0,1-5502.334-5144.965Zm-3.718-2.526h2.612l-1.306-2.978Zm-5.578,2.336v-4.419l-1.817,2.7a.639.639,0,0,1-.553.336.636.636,0,0,1-.543-.336l-1.8-2.683v4.408a.633.633,0,0,1-.648.632.622.622,0,0,1-.638-.632v-6.176a.65.65,0,0,1,.658-.651h.138a.692.692,0,0,1,.607.346l2.251,3.495,2.264-3.5a.656.656,0,0,1,.594-.336h.138a.652.652,0,0,1,.66.651v6.167a.644.644,0,0,1-.66.642A.653.653,0,0,1-5511.63-5145.156Zm20.259.589a.644.644,0,0,1-.658-.651v-6.125a.641.641,0,0,1,.658-.64.638.638,0,0,1,.647.64v5.6h3.369a.592.592,0,0,1,.595.589.591.591,0,0,1-.595.589Zm-7.107,0a.645.645,0,0,1-.66-.651v-6.125a.642.642,0,0,1,.66-.64.638.638,0,0,1,.647.64v5.6h3.368a.59.59,0,0,1,.595.589.59.59,0,0,1-.595.589Zm-35.623-7.627c0-3.452,5.218-3.794,5.765-.56l-5.765,5.728Z" transform="translate(5534.601 5155.76)"/></svg>