<svg xmlns="http://www.w3.org/2000/svg" width="53.42" height="13.177" viewBox="0 0 53.42 13.177"><defs><style>.a{fill:#fff;}</style></defs><path class="a" d="M-5283.38-4219.855a6.3,6.3,0,0,1-.779-.108,4.093,4.093,0,0,1-1.286-.423,2.378,2.378,0,0,1-.788-.706,1.974,1.974,0,0,1-.272-1.032v-5.427h2.185v5.417a.738.738,0,0,0,.466.695,3.277,3.277,0,0,0,1.367.228,3.154,3.154,0,0,0,1.35-.228.744.744,0,0,0,.482-.705v-5.406h1.96v5.427a2.1,2.1,0,0,1-.24,1.032,2.178,2.178,0,0,1-.723.706,3.89,3.89,0,0,1-1.207.423,8.306,8.306,0,0,1-1.638.14C-5282.814-4219.824-5283.106-4219.834-5283.38-4219.855Zm-13.109.032c-.354,0-.53-.133-.53-.4v-7.326h1.751l4.917,4.8v-4.8h1.93v7.067c0,.4-.237.608-.707.608h-.772l-5.175-5.222v3.843q0,1.433-1.109,1.432Zm20.976-.042q-1.848,0-1.848-1.25v-6.425H-5271c.279,0,.418.131.418.392q0,.845-.787.846h-3.809v1.921h3.809c.279,0,.418.135.418.4a.7.7,0,0,1-.787.792h-3.44v1.682c0,.269.194.4.579.4h3.6c.279,0,.418.129.418.39q0,.846-.787.847Zm-27.817,0q-1.848,0-1.848-1.25v-6.425h6.364c.278,0,.418.131.418.392q0,.845-.788.846h-3.81v1.921h3.81c.278,0,.418.135.418.4a.7.7,0,0,1-.788.792h-3.439v1.682c0,.269.194.4.579.4h3.6c.278,0,.418.129.418.39q0,.846-.788.847Zm-12.683,0-.851-1.727h-4.035l-.593,1.075a1.294,1.294,0,0,1-1.287.652H-5324l4.2-7.675h1.928l3.68,6.719q.5.954-.369.956Zm-4.388-2.8h3.1l-1.543-3.386Zm9.694,2.79a1.058,1.058,0,0,1-1.061-.75l-3.536-6.925h2.571l2.266,5.243,2.218-5.243h2.314l-3.841,7.675Zm31.015-9.71c-.152,0-.23-.057-.23-.173v-3.184h.862v2.74c0,.412-.171.617-.51.617Zm-13.869,0c-.158,0-.237-.057-.237-.173v-1.306h-1.511v.866q0,.614-.516.613h-.122c-.154,0-.23-.057-.23-.173v-3.184h.867v1.363h1.511v-1.363h.867v2.74c0,.412-.169.617-.51.617Zm21.183-.037a2.189,2.189,0,0,1-.433-.1,1.558,1.558,0,0,1-.637-.37,1.223,1.223,0,0,1-.345-.525,2.171,2.171,0,0,1-.108-.687,1.662,1.662,0,0,1,.121-.637,1.411,1.411,0,0,1,.351-.529,1.851,1.851,0,0,1,.638-.374,2.73,2.73,0,0,1,.924-.146c.085,0,.176,0,.275.009l.325.024a3.038,3.038,0,0,1,.657.139l-.3.474a1.4,1.4,0,0,0-.369-.062c-.153-.009-.3-.015-.434-.015a1.836,1.836,0,0,0-.6.094,1.022,1.022,0,0,0-.389.239,1.967,1.967,0,0,0-.223.379,1.045,1.045,0,0,0-.1.43,1.373,1.373,0,0,0,.011.162c.005.059.013.122.022.19a.878.878,0,0,0,.178.385,1.331,1.331,0,0,0,.15.159,1.6,1.6,0,0,0,.169.131,1.126,1.126,0,0,0,.58.112c.051,0,.1,0,.156,0s.107-.008.163-.015l.134-.016a.612.612,0,0,0,.076-.016v-.9h-.658v-.482h1.46v1.812a2.436,2.436,0,0,1-.548.141c-.1.012-.207.021-.329.025s-.256.008-.4.008A3.683,3.683,0,0,1-5272.378-4229.624Zm-18.06.033a2.349,2.349,0,0,1-.777-.112,1.481,1.481,0,0,1-.58-.37,1.2,1.2,0,0,1-.319-.562,2.473,2.473,0,0,1-.089-.66,2.657,2.657,0,0,1,.077-.623,1.239,1.239,0,0,1,.35-.594,1.349,1.349,0,0,1,.255-.211,1.932,1.932,0,0,1,.306-.155,2.35,2.35,0,0,1,.777-.122,1.809,1.809,0,0,1,1.333.488,1.138,1.138,0,0,1,.345.566,2.784,2.784,0,0,1,.076.65,2.638,2.638,0,0,1-.076.627,1.3,1.3,0,0,1-.333.6,1.671,1.671,0,0,1-.585.361,2.216,2.216,0,0,1-.732.122Zm-.676-2.6a1.436,1.436,0,0,0-.21.866,2.16,2.16,0,0,0,.013.25,1.915,1.915,0,0,0,.038.227,1.037,1.037,0,0,0,.154.361.589.589,0,0,0,.267.234.94.94,0,0,0,.409.08.765.765,0,0,0,.682-.309,1.531,1.531,0,0,0,.2-.843,1.482,1.482,0,0,0-.21-.843.764.764,0,0,0-.676-.3A.783.783,0,0,0-5291.113-4232.189Zm-16.7,2.6c-.158,0-.236-.059-.236-.174v-2.649h-1.148v-.534h2.992a.147.147,0,0,1,.166.168c0,.243-.1.366-.312.366h-.829v2.2c0,.412-.171.619-.51.619Zm-3.616,0c-.158,0-.236-.059-.236-.174v-2.649h-1.148v-.534h2.992a.147.147,0,0,1,.166.168c0,.243-.1.366-.312.366h-.83v2.2c0,.412-.17.619-.509.619Zm-3.724,0a2.346,2.346,0,0,1-.778-.112,1.494,1.494,0,0,1-.581-.37,1.2,1.2,0,0,1-.318-.562,2.4,2.4,0,0,1-.09-.66,2.707,2.707,0,0,1,.076-.623,1.231,1.231,0,0,1,.352-.594,1.282,1.282,0,0,1,.254-.211,1.942,1.942,0,0,1,.307-.155,2.343,2.343,0,0,1,.778-.122,1.808,1.808,0,0,1,1.332.488,1.138,1.138,0,0,1,.345.566,2.784,2.784,0,0,1,.076.65,2.638,2.638,0,0,1-.076.627,1.3,1.3,0,0,1-.332.6,1.675,1.675,0,0,1-.586.361,2.21,2.21,0,0,1-.731.122Zm-.676-2.6a1.429,1.429,0,0,0-.211.866c0,.087.005.171.013.25a1.915,1.915,0,0,0,.038.227,1.046,1.046,0,0,0,.153.361.608.608,0,0,0,.268.234.94.94,0,0,0,.409.08.768.768,0,0,0,.683-.309,1.539,1.539,0,0,0,.2-.843,1.482,1.482,0,0,0-.209-.843.764.764,0,0,0-.676-.3A.78.78,0,0,0-5315.83-4232.189Zm17.022,2.584q-.142-.01-.309-.028a2.667,2.667,0,0,1-.542-.112c-.136-.042-.167-.148-.095-.323s.187-.242.332-.211a5.3,5.3,0,0,0,.7.09h.166a.841.841,0,0,0,.134-.01,1.051,1.051,0,0,0,.37-.122.268.268,0,0,0,.159-.286.4.4,0,0,0-.044-.168.48.48,0,0,0-.229-.168,4.086,4.086,0,0,0-.593-.187,1.464,1.464,0,0,1-.637-.314.688.688,0,0,1-.23-.524.955.955,0,0,1,.089-.4.886.886,0,0,1,.242-.322,1.427,1.427,0,0,1,.42-.225,2.047,2.047,0,0,1,.644-.085c.072,0,.15,0,.234.009s.172.016.27.029.194.032.287.054a1.521,1.521,0,0,1,.268.082l-.223.463a1.744,1.744,0,0,0-.644-.1,1.076,1.076,0,0,0-.509.088.357.357,0,0,0-.236.329.227.227,0,0,0,.045.131.352.352,0,0,0,.12.108c.068.024.134.047.2.067l.191.059c.064.019.122.038.172.054l.147.049a2.828,2.828,0,0,1,.382.174,1.447,1.447,0,0,1,.363.28,1.079,1.079,0,0,1,.071.1.547.547,0,0,1,.051.108c.014.04.023.08.032.119a.617.617,0,0,1,.012.119.958.958,0,0,1-.114.488,1.077,1.077,0,0,1-.416.407,1.548,1.548,0,0,1-.566.174c-.192.009-.341.013-.448.013C-5298.623-4229.6-5298.711-4229.6-5298.807-4229.605Zm20.964-.013c-.139,0-.21-.059-.21-.174v-3.16h.695l1.952,2.068v-2.068h.764v3.048c0,.175-.093.262-.28.262h-.306l-2.054-2.252v1.658c0,.413-.146.619-.439.619Zm-5.873-.02q-.216,0-.216-.172V-4233h1.523c.226,0,.431.009.618.028a1.272,1.272,0,0,1,.5.159.9.9,0,0,1,.306.327,1.163,1.163,0,0,1,.122.52,1.011,1.011,0,0,1-.377.839,1.8,1.8,0,0,1-1.116.29h-.733v.58q0,.613-.509.613Zm.631-1.717h.619a1.132,1.132,0,0,0,.536-.089.414.414,0,0,0,.179-.215,1.055,1.055,0,0,0,.064-.3.481.481,0,0,0-.172-.449.883.883,0,0,0-.53-.136h-.695Zm-4.541,1.717q-.216,0-.216-.172V-4233h1.523c.226,0,.433.009.619.028a1.279,1.279,0,0,1,.5.159.926.926,0,0,1,.306.327,1.177,1.177,0,0,1,.12.52,1.014,1.014,0,0,1-.375.839,1.8,1.8,0,0,1-1.116.29h-.733v.58q0,.613-.51.613Zm.632-1.717h.619a1.132,1.132,0,0,0,.536-.089.411.411,0,0,0,.178-.215.966.966,0,0,0,.064-.3.478.478,0,0,0-.172-.449.878.878,0,0,0-.529-.136h-.695Zm-17.581,1.717q-.734,0-.733-.539v-2.771h2.525a.148.148,0,0,1,.166.168c0,.243-.1.366-.313.366h-1.511v.829h1.511c.111,0,.166.057.166.172,0,.229-.1.342-.313.342h-1.364v.726c0,.116.076.174.229.174h1.428a.148.148,0,0,1,.166.168q0,.365-.313.365Zm-14.968,0q-.733,0-.733-.539v-2.771h.867v2.6c0,.107.069.165.2.174h1.454a.147.147,0,0,1,.166.168q0,.365-.312.365Z" transform="translate(5324 4233)"/></svg>