<svg xmlns="http://www.w3.org/2000/svg" width="80.607" height="24.183" viewBox="0 0 80.607 24.183"><defs><style>.a{fill:#55585b;}.b{fill:#ec1c24;}</style></defs><g transform="translate(-33.086 -206.397)"><g transform="translate(36.166 210.425)"><rect class="a" width="3.058" height="15.842" transform="translate(39.446 0)"/><rect class="a" width="3.058" height="11.487" transform="translate(0 4.355)"/><path class="a" d="M109.235,247.942a7.167,7.167,0,0,1-2.44-1.227l1.078-2.56a7.138,7.138,0,0,0,2.1,1.112,7.4,7.4,0,0,0,2.43.419,3.666,3.666,0,0,0,2-.43,1.315,1.315,0,0,0,.647-1.143,1.126,1.126,0,0,0-.383-.87,2.84,2.84,0,0,0-.98-.556q-.6-.21-1.617-.462a21.237,21.237,0,0,1-2.568-.8,4.185,4.185,0,0,1-1.715-1.28,3.616,3.616,0,0,1-.716-2.35,4.3,4.3,0,0,1,.647-2.318,4.42,4.42,0,0,1,1.95-1.647,7.5,7.5,0,0,1,3.185-.609,9.9,9.9,0,0,1,2.568.336,7.326,7.326,0,0,1,2.2.965l-.98,2.581a7.279,7.279,0,0,0-3.8-1.154,3.377,3.377,0,0,0-1.97.462,1.433,1.433,0,0,0-.637,1.217,1.189,1.189,0,0,0,.735,1.122,10.924,10.924,0,0,0,2.244.724,21.357,21.357,0,0,1,2.568.8,4.255,4.255,0,0,1,1.715,1.259,3.53,3.53,0,0,1,.715,2.329,4.213,4.213,0,0,1-.656,2.3,4.477,4.477,0,0,1-1.97,1.647,7.567,7.567,0,0,1-3.195.608,10.533,10.533,0,0,1-3.146-.472" transform="translate(-101.685 -232.583)"/><path class="a" d="M185.091,251.626a3,3,0,0,1-1.107.551,5.1,5.1,0,0,1-1.382.184,3.872,3.872,0,0,1-2.91-1.058,4.287,4.287,0,0,1-1.029-3.109v-4.772h-1.627V240.83h1.627V238h3.058v2.829h2.627v2.591H181.72v4.729a1.688,1.688,0,0,0,.343,1.134,1.208,1.208,0,0,0,.97.4,1.845,1.845,0,0,0,1.235-.432Z" transform="translate(-159.813 -236.529)"/><path class="a" d="M240.693,254.572l-4.763,12.191a6.014,6.014,0,0,1-1.794,2.8,4.136,4.136,0,0,1-2.577.811,4.959,4.959,0,0,1-1.627-.277,3.512,3.512,0,0,1-1.313-.769l1.117-2.37a2.6,2.6,0,0,0,.814.534,2.348,2.348,0,0,0,.911.192,1.527,1.527,0,0,0,1.019-.331,2.83,2.83,0,0,0,.706-1.1l.039-.107-4.567-11.572h3.156l2.96,7.793,2.979-7.793Z" transform="translate(-202.501 -250.217)"/><path class="a" d="M335.949,259.055a2.4,2.4,0,0,1,.862-1.633,2.621,2.621,0,0,1,1.745-.6,2.572,2.572,0,0,1,1.725.612,2.384,2.384,0,0,1,.862,1.62Zm7.2,1.776h.022a.852.852,0,0,0,.85-.82s0-.008,0-.01a5.791,5.791,0,0,0-.716-2.917,4.891,4.891,0,0,0-1.97-1.928,6.2,6.2,0,0,0-5.674.029,5.17,5.17,0,0,0-2.019,1.958,5.476,5.476,0,0,0-.735,2.819v.009a.864.864,0,0,0,.864.86Z" transform="translate(-288.808 -250.143)"/><path class="b" d="M346.8,297.779H346.8a1.342,1.342,0,0,0-1.247.341,3.249,3.249,0,0,1-4.233,0,1.342,1.342,0,0,0-1.247-.341h-.006a1.538,1.538,0,0,0-.612,2.692A6.212,6.212,0,0,0,343.4,301.7v-.041h0v.041a6.1,6.1,0,0,0,3.982-1.229,1.532,1.532,0,0,0-.577-2.692" transform="translate(-293.747 -285.873)"/><path class="a" d="M406,304.322a1.353,1.353,0,0,1,.382,1,1.38,1.38,0,0,1-.382,1,1.313,1.313,0,0,1-.986.393,1.294,1.294,0,0,1-.97-.393,1.51,1.51,0,0,1-.008-2,1.3,1.3,0,0,1,.978-.385,1.326,1.326,0,0,1,.986.385" transform="translate(-347.361 -290.991)"/><g transform="translate(61.038 0.382)"><path class="a" d="M431.114,233.446A1.739,1.739,0,0,1,433,231.74a1.708,1.708,0,0,1,1.884,1.648,1.891,1.891,0,0,1-3.769.058Zm.369,3.176h3.031v10.55h-3.031Z" transform="translate(-431.114 -231.74)"/><path class="a" d="M472.1,236.814v14.549h-2.9v-1.216a4,4,0,0,1-3.264,1.372,5.435,5.435,0,0,1,0-10.862,4,4,0,0,1,3.129,1.274v-5.117Zm-2.973,9.275a2.682,2.682,0,1,0-2.661,2.921A2.662,2.662,0,0,0,469.125,246.089Z" transform="translate(-455.609 -235.931)"/></g></g><path class="b" d="M63.67,210.769l-2.517-2.9a.261.261,0,0,0-.389-.007l-1.392,1.493a.262.262,0,0,0,.03.385c2.312,1.82,3.713,3.1,4.241,3.6a.262.262,0,0,0,.407-.063,18.247,18.247,0,0,1,5.937-6.4.26.26,0,0,0,.1-.337l0-.006a.261.261,0,0,0-.337-.116,15.251,15.251,0,0,0-5.669,4.34.261.261,0,0,1-.4.01" transform="translate(-26.215 0)"/></g></svg>