<svg xmlns="http://www.w3.org/2000/svg" width="21.857" height="23.748" viewBox="0 0 21.857 23.748">
  <g id="Group_6455" data-name="Group 6455" transform="translate(14 1)">
    <path id="Path_1544" data-name="Path 1544" d="M212.357,935.065H192.5l.133-.936c.466-3.261,3.568-6.629,6.862-6.629h6.1c3.294,0,6.163,3.367,6.629,6.629Z" transform="translate(-205.5 -913.316)" fill="none" stroke="#707070" stroke-linecap="round" stroke-linejoin="round" stroke-width="2"/>
    <path id="Path_1545" data-name="Path 1545" d="M202.26,922.9h0a3.875,3.875,0,0,1-3.85-3.446l-.294-2.654a3.874,3.874,0,0,1,3.85-4.3h.59a3.874,3.874,0,0,1,3.849,4.3l-.294,2.654A3.875,3.875,0,0,1,202.26,922.9Z" transform="translate(-205.804 -912.5)" fill="none" stroke="#707070" stroke-linecap="round" stroke-linejoin="round" stroke-width="2"/>
  </g>
</svg>
