<svg xmlns="http://www.w3.org/2000/svg" width="20.583" height="23.749" viewBox="0 0 20.583 23.749">
  <g id="Group_6454" data-name="Group 6454" transform="translate(-107.997 -4093.501)">
    <path id="Path_4000" data-name="Path 4000" d="M5.424,11.25a2.119,2.119,0,0,0-1.977,2.063L2.239,23.856a4.206,4.206,0,0,0,.84,2.942,3.133,3.133,0,0,0,2.455,1.256H17.487A3.133,3.133,0,0,0,19.943,26.8a4.205,4.205,0,0,0,.839-2.942l-1.208-10.54A2.119,2.119,0,0,0,17.6,11.25H5.424Z" transform="translate(106.778 4088.196)" fill="#fff" stroke="#707070" stroke-width="2"/>
    <path id="Path_4001" data-name="Path 4001" d="M117.993,13866.446s.861-4.945,4.583-4.945,4.55,4.945,4.55,4.945" transform="translate(-4.263 -9767)" fill="none" stroke="#707070" stroke-linecap="round" stroke-width="2"/>
    <path id="Icon_awesome-smile" data-name="Icon awesome-smile" d="M17.569,23.825a4.993,4.993,0,0,1-4.169,2.7,4.993,4.993,0,0,1-4.169-2.7c-.494-.818.388-2.4.882-1.59.813,1.35,2.016,2.565,3.287,2.565s2.451-1.22,3.264-2.565C17.151,21.422,18.059,23.007,17.569,23.825Z" transform="translate(104.898 4083.412)" fill="#707070"/>
  </g>
</svg>
