<svg xmlns="http://www.w3.org/2000/svg" width="60.429" height="15.423" viewBox="0 0 60.429 15.423">
  <g id="Group_6651" data-name="Group 6651" transform="translate(-167.85 -29.288)">
    <path id="Path_4183" data-name="Path 4183" d="M-15.47-7.524l4.06,6.883,4.06-6.883.9,8.247h2.98L-5.55-14.7l-5.86,9.485L-17.27-14.7-19.35.723h2.98ZM.77-13.966V.723H3.65l.02-14.689Zm15.38,0L13.69-9.349l-2.4-4.616H7.79l4.22,7.114L7.29.723h3.5l2.88-5.267L16.45.723h3.5l-4.6-7.575,4.3-7.114Z" transform="translate(187.2 43.988)" fill="#707070"/>
    <path id="Path_4184" data-name="Path 4184" d="M-.59-14.73a4.739,4.739,0,0,1,1.71.285,3.926,3.926,0,0,1,1.25.75,3.446,3.446,0,0,1,.8,1.075,3.878,3.878,0,0,1,.36,1.25l-2,.4-.085.015a.531.531,0,0,1-.075.005.654.654,0,0,1-.62-.44,2.259,2.259,0,0,0-.535-.79,1.17,1.17,0,0,0-.805-.27,1.348,1.348,0,0,0-.61.13,1.335,1.335,0,0,0-.435.34,1.449,1.449,0,0,0-.265.49,1.884,1.884,0,0,0-.09.58,2.709,2.709,0,0,0,.045.5,2.313,2.313,0,0,0,.15.485,2.741,2.741,0,0,0,.29.505,4.959,4.959,0,0,0,.475.56l3.6,3.8A7.279,7.279,0,0,0,3-6.31a9.666,9.666,0,0,0,.23-1.35.653.653,0,0,1,.185-.44.6.6,0,0,1,.435-.16H5.81a9.2,9.2,0,0,1-.39,2.725A8.487,8.487,0,0,1,4.31-3.22L7.37,0H4.31A3.006,3.006,0,0,1,3.9-.025,1.5,1.5,0,0,1,3.565-.11a1.147,1.147,0,0,1-.3-.17,2.777,2.777,0,0,1-.3-.28l-.63-.66A7.759,7.759,0,0,1,.265-.2,7.812,7.812,0,0,1-2.13.16a5.007,5.007,0,0,1-1.705-.3A4.725,4.725,0,0,1-5.32-1,4.3,4.3,0,0,1-6.37-2.34a3.862,3.862,0,0,1-.4-1.77,3.781,3.781,0,0,1,.2-1.25A4.144,4.144,0,0,1-5.99-6.455a4.9,4.9,0,0,1,.885-.92A6.427,6.427,0,0,1-3.98-8.1a5.666,5.666,0,0,1-.68-1.43,4.723,4.723,0,0,1-.21-1.36,3.85,3.85,0,0,1,.285-1.475,3.544,3.544,0,0,1,.83-1.22,4,4,0,0,1,1.34-.835A5,5,0,0,1-.59-14.73ZM-3.61-4.36a2.481,2.481,0,0,0,.145.87,1.911,1.911,0,0,0,.415.67,1.884,1.884,0,0,0,.645.435,2.166,2.166,0,0,0,.835.155A4.257,4.257,0,0,0-.325-2.405,4.315,4.315,0,0,0,.75-2.9L-2.6-6.45a2.643,2.643,0,0,0-.78.98A2.759,2.759,0,0,0-3.61-4.36Z" transform="translate(220.91 44.552)" fill="#707070"/>
  </g>
</svg>
