<svg xmlns="http://www.w3.org/2000/svg" width="16" height="18" viewBox="0 0 16 18"><defs><style>.a{fill:#252525;}</style></defs><path class="a" d="M13.334,18H2.666A2.686,2.686,0,0,1,0,15.3V4.5A2.687,2.687,0,0,1,2.666,1.8h.889V.9A.889.889,0,1,1,5.334.9v.9h5.333V.9a.889.889,0,1,1,1.778,0v.9h.889A2.687,2.687,0,0,1,16,4.5V15.3A2.686,2.686,0,0,1,13.334,18ZM1.778,9.9v5.4a.9.9,0,0,0,.889.9H13.334a.9.9,0,0,0,.889-.9V9.9Zm.889-6.3a.9.9,0,0,0-.889.9V8.1H14.222V4.5a.9.9,0,0,0-.889-.9h-.889v.9a.889.889,0,1,1-1.778,0V3.6H5.334v.9a.889.889,0,1,1-1.778,0V3.6Zm8.889,9.9H8a.9.9,0,0,1,0-1.8h3.555a.9.9,0,0,1,0,1.8Zm-7.11,0a.9.9,0,1,1,.889-.9A.9.9,0,0,1,4.445,13.5Z"/></svg>