<svg xmlns="http://www.w3.org/2000/svg" width="24.337" height="23.322" viewBox="0 0 24.337 23.322">
  <g id="Icon_feather-shopping-cart" data-name="Icon feather-shopping-cart" transform="translate(1 1)">
    <path id="Path_3987" data-name="Path 3987" d="M14.031,31.015A1.015,1.015,0,1,1,13.015,30,1.015,1.015,0,0,1,14.031,31.015Z" transform="translate(-4.893 -10.709)" stroke="#000" stroke-linecap="round" stroke-linejoin="round" stroke-width="2"/>
    <path id="Path_3988" data-name="Path 3988" d="M30.531,31.015A1.015,1.015,0,1,1,29.515,30,1.015,1.015,0,0,1,30.531,31.015Z" transform="translate(-10.224 -10.709)" stroke="#000" stroke-linecap="round" stroke-linejoin="round" stroke-width="2"/>
    <path id="Path_3989" data-name="Path 3989" d="M1.5,1.5H5.561L8.282,15.1a2.031,2.031,0,0,0,2.031,1.635h9.869A2.031,2.031,0,0,0,22.213,15.1l1.625-8.519H6.577" transform="translate(-1.5 -1.5)" fill="none" stroke="#000" stroke-linecap="round" stroke-linejoin="round" stroke-width="2"/>
  </g>
</svg>
