<svg xmlns="http://www.w3.org/2000/svg" width="22.95" height="24.393" viewBox="0 0 22.95 24.393">
  <g id="Icon_ionic-ios-notifications-outline" data-name="Icon ionic-ios-notifications-outline" transform="translate(-5.737 -2.93)">
    <path id="Path_4141" data-name="Path 4141" d="M20.992,28.336A.988.988,0,0,0,20,29a1.534,1.534,0,0,1-.39.712,1.617,1.617,0,0,1-1.256.385,1.645,1.645,0,0,1-1.256-.385,1.534,1.534,0,0,1-.39-.712.988.988,0,0,0-.991-.666h0a.9.9,0,0,0-.991,1.038c.39,1.456,1.639,2.423,3.629,2.423s3.239-.96,3.629-2.423a.906.906,0,0,0-.991-1.038Z" transform="translate(-1.161 -4.473)" fill="#252525"/>
    <path id="Path_4142" data-name="Path 4142" d="M27.388,19.9C26.382,18.8,24.4,18.163,24.4,13.265c0-5.028-2.691-7.049-5.2-7.534-.235-.049-.4-.113-.4-.318V5.256A1.475,1.475,0,0,0,17.233,3.93h-.039a1.475,1.475,0,0,0-1.567,1.326v.156c0,.2-.17.269-.4.318-2.514.49-5.2,2.506-5.2,7.534,0,4.9-1.979,5.535-2.984,6.634-.647.706-.033,1.714,1.038,1.714H26.369C27.421,21.613,28.028,20.6,27.388,19.9Z" transform="translate(0 0)" fill="none" stroke="#252525" stroke-width="2"/>
  </g>
</svg>
