<svg xmlns="http://www.w3.org/2000/svg" width="28.52" height="28.52" viewBox="0 0 28.52 28.52"><defs><style>.a{fill:#0567a5;}.b{fill:#f9a51a;}.c{fill:#fff;}.d{fill:#0372c1;}.e{fill:#e13d51;}</style></defs><g transform="translate(0)"><path class="a" d="M27.336,1.519A3.523,3.523,0,0,0,24.479,0H4.041A3.526,3.526,0,0,0,1.184,1.519,5.789,5.789,0,0,0,0,5.185V23.333A5.785,5.785,0,0,0,1.184,27a3.525,3.525,0,0,0,2.857,1.52H24.479A3.522,3.522,0,0,0,27.336,27a5.785,5.785,0,0,0,1.184-3.667V5.185a5.789,5.789,0,0,0-1.184-3.667m-3.091.54a1.935,1.935,0,0,1,1.567.832,3.189,3.189,0,0,1,.649,2.016v18.7a3.179,3.179,0,0,1-.649,2.012,1.934,1.934,0,0,1-1.567.834H4.28a1.935,1.935,0,0,1-1.569-.834,3.173,3.173,0,0,1-.651-2.012V4.907a3.184,3.184,0,0,1,.651-2.016A1.937,1.937,0,0,1,4.28,2.059Z" transform="translate(0)"/><path class="b" d="M81.552,58.582a1.935,1.935,0,0,0-1.567-.832H60.019a1.937,1.937,0,0,0-1.569.832A3.184,3.184,0,0,0,57.8,60.6V79.3a3.173,3.173,0,0,0,.651,2.012,1.935,1.935,0,0,0,1.569.834H79.985a1.934,1.934,0,0,0,1.567-.834A3.179,3.179,0,0,0,82.2,79.3V60.6a3.189,3.189,0,0,0-.649-2.016m-2.5,5.1a11.287,11.287,0,0,1-1.337,14.08,12.238,12.238,0,0,1-.943.865,10.793,10.793,0,0,1-13.543,0,11.632,11.632,0,0,1-.945-.865,11.3,11.3,0,0,1-1.339-14.08,11.8,11.8,0,0,1,1.339-1.62,10.785,10.785,0,0,1,15.431,0A11.865,11.865,0,0,1,79.053,63.682Z" transform="translate(-55.739 -55.691)"/><path class="c" d="M115.775,98.651a10.782,10.782,0,0,0-1.861-6.232,11.865,11.865,0,0,0-1.337-1.62,10.785,10.785,0,0,0-15.431,0,11.8,11.8,0,0,0-1.339,1.62,11.3,11.3,0,0,0,1.339,14.08,11.635,11.635,0,0,0,.945.864,10.793,10.793,0,0,0,13.543,0,12.241,12.241,0,0,0,.943-.864,10.785,10.785,0,0,0,3.2-7.848m-1.927,1.012q.137.143.02.258l-.312.3q-.119.116-.257-.029l-.285-.3q-.335.474-.676.911-.258.328-.52.633a13.97,13.97,0,0,1-1.886,1.838,7.719,7.719,0,0,1-4.656,1.836,6.462,6.462,0,0,1-.743,0,8.289,8.289,0,0,1-5.6-2.672q-.173-.168-.344-.346a18.267,18.267,0,0,1-1.617-1.955q-.087-.119-.175-.244l-.285.3q-.137.144-.253.029l-.312-.3q-.118-.116.02-.258l1.125-1.2q.137-.144.255-.029l.31.3q.118.114-.02.258l-.225.241a16.8,16.8,0,0,0,1.52,1.863q.111.119.225.232a8.406,8.406,0,0,0,5.4,2.736,4.686,4.686,0,0,0,.708,0,7.973,7.973,0,0,0,4.672-2.061,13.519,13.519,0,0,0,1.376-1.374q.472-.544.93-1.171.08-.111.16-.225L112.174,99q-.137-.144-.018-.258l.312-.3q.118-.116.255.029l1.125,1.2m-8.766-5.011a.136.136,0,0,1,.153-.155h1.74a.136.136,0,0,1,.152.155v.483a.308.308,0,0,1,0,.034.131.131,0,0,1-.15.125h-.528v2.87q-.663-.034-.7-.786V95.295h-.515a.138.138,0,0,1-.153-.159v-.483m-2.467,0a.136.136,0,0,1,.153-.155h1.74a.137.137,0,0,1,.155.155v.483a.139.139,0,0,1-.155.159h-.524v2.87q-.665-.034-.7-.786V95.295h-.517a.138.138,0,0,1-.153-.159v-.483m4.716,1.209a1.75,1.75,0,0,1,.171-.463,1.868,1.868,0,0,1,.333-.451,1.866,1.866,0,0,1,2.661,0,1.939,1.939,0,0,1,0,2.708,1.857,1.857,0,0,1-2.661,0,1.983,1.983,0,0,1-.3-.38,1.856,1.856,0,0,1-.248-.8q-.007-.087-.007-.176a2.017,2.017,0,0,1,.046-.438m-6.745-1.472a1.8,1.8,0,0,1,1.332.558,1.939,1.939,0,0,1,0,2.708,1.857,1.857,0,0,1-2.661,0,1.939,1.939,0,0,1,0-2.708,1.8,1.8,0,0,1,1.33-.558m1.289,6.169v.645h-.458V99.3h.758a.893.893,0,0,1,.387.08.61.61,0,0,1,.26.228.627.627,0,0,1,.091.335.555.555,0,0,1-.2.446.831.831,0,0,1-.547.166h-.292m7.3-.9h-.57V101.2h-.458V99.657h-.561V99.3h1.59v.353m-2.239-.353h.456v1.9h-.455l-.674-1.184V101.2h-.458V99.3h.458l.672,1.182V99.3m-1.449,0v1.9h-.456V99.3h.456m-1.556-.027a.818.818,0,0,1,.431.114.782.782,0,0,1,.294.328,1.1,1.1,0,0,1,.107.487v.087a1.118,1.118,0,0,1-.1.492.768.768,0,0,1-.292.33.876.876,0,0,1-.865,0,.753.753,0,0,1-.292-.319,1.06,1.06,0,0,1-.111-.476v-.107a1.138,1.138,0,0,1,.1-.494.765.765,0,0,1,.294-.33.821.821,0,0,1,.435-.116m.365.936a.8.8,0,0,0-.094-.43.3.3,0,0,0-.271-.148q-.344,0-.364.517l0,.141a.821.821,0,0,0,.093.43.3.3,0,0,0,.276.15.3.3,0,0,0,.267-.148.813.813,0,0,0,.094-.424v-.087m-.08.356h-.545l.274-.859.271.859m-2.344-.913v.549h.3a.28.28,0,0,0,.2-.068.246.246,0,0,0,.07-.187.31.31,0,0,0-.071-.214.257.257,0,0,0-.2-.08Z" transform="translate(-90.601 -84.429)"/><path class="d" d="M156.852,287.343a.874.874,0,0,0-.866,0,.764.764,0,0,0-.294.33,1.138,1.138,0,0,0-.1.494v.107a1.06,1.06,0,0,0,.111.476.753.753,0,0,0,.292.319.876.876,0,0,0,.865,0,.768.768,0,0,0,.292-.33,1.117,1.117,0,0,0,.1-.492v-.087a1.1,1.1,0,0,0-.107-.487.782.782,0,0,0-.294-.328m-.16.392a.8.8,0,0,1,.094.43v.087a.813.813,0,0,1-.094.424.3.3,0,0,1-.267.148.3.3,0,0,1-.276-.15.821.821,0,0,1-.093-.43l0-.141q.02-.517.364-.517a.3.3,0,0,1,.271.148m1.285,1.421v-1.9h-.456v1.9h.456m1.905-1.9h-.456v1.182l-.672-1.182H158.3v1.9h.458v-1.184l.674,1.184h.455v-1.9m1.212.353h.57v-.353h-1.59v.353h.561v1.547h.458v-1.547m-6.732,1.547v-.645h.292a.831.831,0,0,0,.547-.166.555.555,0,0,0,.2-.446.627.627,0,0,0-.091-.335.609.609,0,0,0-.26-.228.893.893,0,0,0-.387-.08H153.9v1.9h.458m0-1v-.549h.3a.257.257,0,0,1,.2.08.31.31,0,0,1,.071.214.246.246,0,0,1-.07.187.28.28,0,0,1-.2.068h-.3m.893-5.708a.136.136,0,0,0-.153.155v.483a.138.138,0,0,0,.153.159h.517v2.084q.034.752.7.786v-2.87h.524a.139.139,0,0,0,.155-.159v-.483a.137.137,0,0,0-.155-.155h-1.74m2.467,0a.136.136,0,0,0-.153.155v.483a.138.138,0,0,0,.153.159h.515v2.084q.034.752.7.786v-2.87h.528a.131.131,0,0,0,.15-.125.313.313,0,0,0,0-.034v-.483a.136.136,0,0,0-.152-.155h-1.74m8.633,5.424q.118-.116-.02-.258l-1.125-1.2q-.137-.144-.255-.029l-.312.3q-.119.114.018.258l.225.241q-.08.114-.16.225-.458.627-.93,1.171a13.518,13.518,0,0,1-1.376,1.374,7.973,7.973,0,0,1-4.672,2.061,4.7,4.7,0,0,1-.708,0,8.407,8.407,0,0,1-5.4-2.736q-.114-.112-.225-.232a16.8,16.8,0,0,1-1.52-1.863l.225-.241q.137-.144.02-.258l-.31-.3q-.118-.116-.255.029l-1.125,1.2q-.137.143-.02.258l.312.3q.116.116.253-.029l.285-.3q.087.125.175.244a18.264,18.264,0,0,0,1.617,1.955q.171.178.344.346a8.29,8.29,0,0,0,5.6,2.672,6.479,6.479,0,0,0,.743,0,7.72,7.72,0,0,0,4.656-1.836,13.972,13.972,0,0,0,1.886-1.838q.262-.3.52-.633.34-.437.676-.911l.285.3q.137.144.257.029Z" transform="translate(-143.087 -272.381)"/><path class="e" d="M230.562,279.958a1.866,1.866,0,0,0-2.661,0,1.939,1.939,0,0,0,0,2.708,1.857,1.857,0,0,0,2.661,0,1.939,1.939,0,0,0,0-2.708m-1.33,3a1.55,1.55,0,0,1-1.141-.479,1.668,1.668,0,0,1,0-2.323,1.61,1.61,0,0,1,2.282,0,1.664,1.664,0,0,1,0,2.323,1.539,1.539,0,0,1-1.141.479m1.373-1.64a1.357,1.357,0,0,0-.4-.984,1.36,1.36,0,0,0-1.936,0,1.41,1.41,0,0,0,0,1.97,1.347,1.347,0,0,0,1.936,0,1.351,1.351,0,0,0,.4-.986m-.556-.823a1.131,1.131,0,0,1,.335.823,1.143,1.143,0,0,1-.335.827,1.136,1.136,0,0,1-1.626,0,1.14,1.14,0,0,1-.337-.827,1.128,1.128,0,0,1,.337-.823,1.128,1.128,0,0,1,1.626,0m.1.82a.905.905,0,0,0-.267-.658.873.873,0,0,0-.645-.269.882.882,0,0,0-.647.269.943.943,0,0,0,0,1.315.879.879,0,0,0,.647.271.87.87,0,0,0,.645-.271.905.905,0,0,0,.267-.658m-.408-.515a.741.741,0,0,1,0,1.03.683.683,0,0,1-.506.212.675.675,0,0,1-.5-.212.736.736,0,0,1,0-1.03.678.678,0,0,1,.5-.21.686.686,0,0,1,.506.21m6.41-.387a1.75,1.75,0,0,0-.171.463,2.015,2.015,0,0,0-.046.439q0,.089.007.176a1.856,1.856,0,0,0,.248.8,1.984,1.984,0,0,0,.3.38,1.858,1.858,0,0,0,2.661,0,1.939,1.939,0,0,0,0-2.708,1.866,1.866,0,0,0-2.661,0,1.87,1.87,0,0,0-.333.451m2.806-.257a1.664,1.664,0,0,1,0,2.323,1.6,1.6,0,0,1-2.282,0,1.668,1.668,0,0,1,0-2.323,1.609,1.609,0,0,1,2.282,0m.232,1.162a1.36,1.36,0,0,0-.4-.984,1.36,1.36,0,0,0-1.936,0,1.405,1.405,0,0,0,0,1.97,1.347,1.347,0,0,0,1.936,0,1.355,1.355,0,0,0,.4-.986m-.556-.823a1.131,1.131,0,0,1,.335.823,1.143,1.143,0,0,1-.335.827,1.136,1.136,0,0,1-1.626,0,1.143,1.143,0,0,1-.335-.827,1.131,1.131,0,0,1,.335-.823,1.128,1.128,0,0,1,1.626,0m.1.82a.908.908,0,0,0-.266-.658.912.912,0,0,0-1.294,0,.943.943,0,0,0,0,1.315.908.908,0,0,0,1.294,0,.908.908,0,0,0,.266-.658m-.408-.515a.741.741,0,0,1,0,1.03.706.706,0,0,1-1.009,0,.736.736,0,0,1,0-1.03.71.71,0,0,1,1.009,0Z" transform="translate(-219.245 -269.439)"/></g></svg>