<svg xmlns="http://www.w3.org/2000/svg" width="12.7" height="12.733" viewBox="0 0 12.7 12.733">
  <path id="Path_3996" data-name="Path 3996" d="M7.2-13794.98a1.332,1.332,0,0,1-.153-.744v-2.6a.656.656,0,0,0-.156-.517,1.013,1.013,0,0,0-.552-.157H4.946a1.185,1.185,0,0,0-.641.157.646.646,0,0,0-.156.517v2.6a1.354,1.354,0,0,1-.153.744.756.756,0,0,1-.6.191H.756a.784.784,0,0,1-.6-.191,1.262,1.262,0,0,1-.151-.726v-3.937a2.222,2.222,0,0,1,.238-.981c.24-.393.516-.747.516-.747l3.89-4.239a1.653,1.653,0,0,1,.9-.4h.1a1.642,1.642,0,0,1,.9.4l3.89,4.239a8.63,8.63,0,0,1,.516.747,2.222,2.222,0,0,1,.238.981v3.938a1.253,1.253,0,0,1-.149.726.791.791,0,0,1-.606.191H7.794a.645.645,0,0,1-.076,0A.676.676,0,0,1,7.2-13794.98Z" transform="translate(0.754 13806.765)" fill="#fff" stroke="#252525" stroke-linecap="round" stroke-width="1.5"/>
</svg>
