<svg xmlns="http://www.w3.org/2000/svg" xmlns:xlink="http://www.w3.org/1999/xlink" width="31" height="24" viewBox="0 0 31 24"><defs><style>.a{fill:url(#a);}.b{fill:#fff;}</style><linearGradient id="a" x1="1" y1="0.5" x2="0" y2="0.5" gradientUnits="objectBoundingBox"><stop offset="0" stop-color="#29c9b9"/><stop offset="1" stop-color="#11bab1"/></linearGradient></defs><g transform="translate(-233.626 -216.001)"><path class="a" d="M8.7,31H4a4,4,0,0,1-4-4V4A4,4,0,0,1,4,0H8.687a2.943,2.943,0,0,0-.018.325,3.093,3.093,0,0,0,3.154,3.022A3.093,3.093,0,0,0,14.975.325,2.942,2.942,0,0,0,14.957,0H20a4,4,0,0,1,4,4V27a4,4,0,0,1-4,4H14.943a2.933,2.933,0,0,0,.032-.432,3.093,3.093,0,0,0-3.153-3.022,3.094,3.094,0,0,0-3.154,3.022A2.932,2.932,0,0,0,8.7,31Z" transform="translate(233.626 240.001) rotate(-90)"/><g transform="translate(242.984 221.704)"><circle class="b" cx="1.737" cy="1.737" r="1.737" transform="translate(1.147)"/><circle class="b" cx="1.737" cy="1.737" r="1.737" transform="translate(7.661 9.119)"/><rect class="b" width="2.171" height="15.199" rx="1.086" transform="translate(10.747 0.155) rotate(45)"/></g></g></svg>