<svg xmlns="http://www.w3.org/2000/svg" width="58.521" height="43.891" viewBox="0 0 58.521 43.891"><defs><style>.a,.b{fill:#252525;}.a{fill-rule:evenodd;}</style></defs><path class="a" d="M54.864,41.076V19.13a3.658,3.658,0,0,0-3.658-3.658H46.919a10.973,10.973,0,0,1-7.754-3.215L36.13,9.229a3.658,3.658,0,0,0-2.58-1.071H24.974a3.658,3.658,0,0,0-2.586,1.071l-3.028,3.028A10.973,10.973,0,0,1,11.6,15.473H7.315A3.658,3.658,0,0,0,3.658,19.13V41.076a3.658,3.658,0,0,0,3.658,3.658H51.206A3.658,3.658,0,0,0,54.864,41.076ZM7.315,11.815A7.315,7.315,0,0,0,0,19.13V41.076a7.315,7.315,0,0,0,7.315,7.315H51.206a7.315,7.315,0,0,0,7.315-7.315V19.13a7.315,7.315,0,0,0-7.315-7.315H46.919a7.315,7.315,0,0,1-5.171-2.144L38.72,6.643A7.315,7.315,0,0,0,33.547,4.5H24.974A7.315,7.315,0,0,0,19.8,6.644L16.774,9.673A7.315,7.315,0,0,1,11.6,11.815Z" transform="translate(0 -4.5)"/><path class="a" d="M20.879,29.685A7.681,7.681,0,1,0,13.2,22,7.681,7.681,0,0,0,20.879,29.685Zm0,3.072A10.754,10.754,0,1,0,10.125,22,10.754,10.754,0,0,0,20.879,32.757Z" transform="translate(8.382 1.771)"/><path class="b" d="M8.158,15.329A1.829,1.829,0,1,1,6.329,13.5,1.829,1.829,0,0,1,8.158,15.329Z" transform="translate(2.815 1.13)"/></svg>