<svg xmlns="http://www.w3.org/2000/svg" width="24" height="24" viewBox="0 0 24 24"><defs><style>.a{fill:#1877f2;}.b{fill:#fff;}</style></defs><path class="a" d="M24,12A12,12,0,1,0,10.125,23.859V15.472H7.078V12h3.047V9.358c0-3.008,1.792-4.67,4.533-4.67a18.45,18.45,0,0,1,2.686.234V7.877H15.831a1.735,1.735,0,0,0-1.956,1.874V12H17.2l-.532,3.469h-2.8v8.387A12,12,0,0,0,24,12Z"/><path class="b" d="M311.292,210.443l.515-3.36h-3.224V204.9a1.68,1.68,0,0,1,1.894-1.815h1.466v-2.86a17.875,17.875,0,0,0-2.6-.227c-2.655,0-4.39,1.609-4.39,4.522v2.561H302v3.36h2.951v8.122a11.747,11.747,0,0,0,3.632,0v-8.122Z" transform="translate(-294.756 -194.706)"/></svg>