<svg xmlns="http://www.w3.org/2000/svg" width="24" height="19.501" viewBox="0 0 24 19.501"><defs><style>.a{fill:#1d9bf0;}</style></defs><path class="a" d="M22.552,6.355c.014.211.014.423.014.637A13.915,13.915,0,0,1,8.557,21v0A13.94,13.94,0,0,1,1.009,18.79a10.019,10.019,0,0,0,1.172.071A9.88,9.88,0,0,0,8.3,16.749a4.93,4.93,0,0,1-4.6-3.42,4.915,4.915,0,0,0,2.223-.084,4.926,4.926,0,0,1-3.95-4.827V8.355A4.887,4.887,0,0,0,4.2,8.972,4.928,4.928,0,0,1,2.679,2.4,13.98,13.98,0,0,0,12.828,7.543a4.929,4.929,0,0,1,8.391-4.491,9.869,9.869,0,0,0,3.127-1.2,4.941,4.941,0,0,1-2.165,2.724,9.827,9.827,0,0,0,2.828-.775A10.019,10.019,0,0,1,22.552,6.355Z" transform="translate(-1.009 -1.5)"/></svg>