<svg xmlns="http://www.w3.org/2000/svg" width="16" height="16" viewBox="0 0 16 16"><defs><style>.a{fill:#aaa;}</style></defs><path class="a" d="M9.5,12.685a.375.375,0,0,1,0,.53l-1.4,1.4A4.75,4.75,0,0,1,1.389,7.893l1.4-1.4a.375.375,0,0,1,.53,0L4.553,7.735a.375.375,0,0,1,0,.53l-1.4,1.4a2.25,2.25,0,0,0,3.182,3.182l1.4-1.4a.375.375,0,0,1,.53,0ZM7.735,4.553a.375.375,0,0,0,.53,0l1.4-1.4a2.25,2.25,0,1,1,3.182,3.182l-1.4,1.4a.375.375,0,0,0,0,.53L12.685,9.5a.375.375,0,0,0,.53,0l1.4-1.4A4.75,4.75,0,0,0,7.893,1.389l-1.4,1.4a.375.375,0,0,0,0,.53L7.735,4.553ZM15.073,15.78l.707-.707a.75.75,0,0,0,0-1.061L1.987.22A.75.75,0,0,0,.927.22L.22.927a.75.75,0,0,0,0,1.061L14.012,15.78a.75.75,0,0,0,1.061,0Z" transform="translate(0 0)"/></svg>