<svg xmlns="http://www.w3.org/2000/svg" width="122" height="44" viewBox="0 0 122 44"><defs><style>.a{fill:#fff;}.b{fill:#252525;}</style></defs><rect class="a" width="122" height="44"/><rect class="b" width="1" height="34" transform="translate(7 5)"/><rect class="b" width="1" height="34" transform="translate(9 5)"/><rect class="b" width="1" height="34" transform="translate(11 5)"/><rect class="b" height="34" transform="translate(15 5)"/><rect class="b" width="1" height="34" transform="translate(18 5)"/><rect class="b" width="2" height="34" transform="translate(19 5)"/><rect class="b" width="1" height="34" transform="translate(22 5)"/><rect class="b" width="1" height="34" transform="translate(24 5)"/><rect class="b" width="1" height="34" transform="translate(26 5)"/><rect class="b" height="34" transform="translate(30 5)"/><rect class="b" width="1" height="34" transform="translate(32 5)"/><rect class="b" width="3" height="34" transform="translate(34 5)"/><rect class="b" width="1" height="34" transform="translate(37 5)"/><rect class="b" height="34" transform="translate(41 5)"/><rect class="b" width="1" height="34" transform="translate(43 5)"/><rect class="b" width="1" height="34" transform="translate(45 5)"/><rect class="b" width="1" height="34" transform="translate(47 5)"/><rect class="b" width="1" height="34" transform="translate(50 5)"/><rect class="b" width="1" height="34" transform="translate(53 5)"/><rect class="b" height="34" transform="translate(57 5)"/><rect class="b" width="1" height="34" transform="translate(58 5)"/><rect class="b" width="1" height="34" transform="translate(60 5)"/><rect class="b" width="3" height="34" transform="translate(62 5)"/><rect class="b" width="1" height="34" transform="translate(66 5)"/><rect class="b" width="2" height="34" transform="translate(68 5)"/><rect class="b" width="2" height="34" transform="translate(71 5)"/><rect class="b" width="1" height="34" transform="translate(74 5)"/><rect class="b" width="1" height="34" transform="translate(75 5)"/><rect class="b" width="1" height="34" transform="translate(77 5)"/><rect class="b" width="1" height="34" transform="translate(81 5)"/><rect class="b" width="1" height="34" transform="translate(83 5)"/><rect class="b" width="2" height="34" transform="translate(84 5)"/><rect class="b" width="1" height="34" transform="translate(87 5)"/><rect class="b" width="1" height="34" transform="translate(90 5)"/><rect class="b" height="34" transform="translate(93 5)"/><rect class="b" width="2" height="34" transform="translate(95 5)"/><rect class="b" width="1" height="34" transform="translate(98 5)"/><rect class="b" width="1" height="34" transform="translate(100 5)"/><rect class="b" width="2" height="34" transform="translate(103 5)"/><rect class="b" width="1" height="34" transform="translate(106 5)"/><rect class="b" width="2" height="34" transform="translate(109 5)"/><rect class="b" width="1" height="34" transform="translate(112 5)"/><rect class="b" width="2" height="34" transform="translate(113 5)"/></svg>