<svg xmlns="http://www.w3.org/2000/svg" xmlns:xlink="http://www.w3.org/1999/xlink" width="335" height="97" viewBox="0 0 335 97"><defs><style>.a{fill:#fed000;}.b{clip-path:url(#a);}.c{fill:#ffe985;}.d{fill:#fff0ae;}.e{fill:#55585b;}.f{fill:#ec1c24;}</style><clipPath id="a"><rect class="a" width="335" height="97" rx="10" transform="translate(20 111)"/></clipPath></defs><g class="b" transform="translate(-20 -111)"><rect class="c" width="335" height="97" rx="10" transform="translate(20 111)"/><path class="d" d="M515.839,270.094l-.152-.038a31.4,31.4,0,0,0-29.009,7.856c-8.621,8.429-23.986,18.055-49.228,18.073-25.23-.018-40.594-9.643-49.223-18.073a31.4,31.4,0,0,0-29.01-7.856l-.15.038c-28.841,6.655-37.412,43.629-14.236,62.051,19.363,15.371,49.584,28.293,91.818,28.326v-.955h0v.955c44.728-.033,73.255-12.955,92.62-28.326,23.174-18.421,15.416-55.4-13.429-62.051" transform="translate(-343.86 -131.847)"/><g transform="translate(171.322 -152.58)"><g transform="translate(92 282.58)"><g transform="translate(7.16 3.286)"><rect class="e" width="2.517" height="12.922" transform="translate(34.323)"/><rect class="e" width="2.517" height="9.369" transform="translate(0 3.553)"/><path class="e" d="M134.634,225.939a5.922,5.922,0,0,1-2.008-1l.887-2.088a5.894,5.894,0,0,0,1.726.907,6.143,6.143,0,0,0,2,.342,3.041,3.041,0,0,0,1.646-.351,1.071,1.071,0,0,0,.533-.933.915.915,0,0,0-.315-.71,2.345,2.345,0,0,0-.806-.454q-.492-.171-1.331-.377a17.584,17.584,0,0,1-2.113-.65,3.442,3.442,0,0,1-1.412-1.044,2.931,2.931,0,0,1-.589-1.917,3.482,3.482,0,0,1,.533-1.891,3.63,3.63,0,0,1,1.605-1.344,6.222,6.222,0,0,1,2.621-.5,8.22,8.22,0,0,1,2.114.274,6.065,6.065,0,0,1,1.807.787l-.806,2.105a6.032,6.032,0,0,0-3.13-.941,2.8,2.8,0,0,0-1.621.376,1.166,1.166,0,0,0-.524.993.97.97,0,0,0,.605.915,9.053,9.053,0,0,0,1.847.591,17.7,17.7,0,0,1,2.114.65,3.5,3.5,0,0,1,1.412,1.027,2.863,2.863,0,0,1,.589,1.9,3.414,3.414,0,0,1-.54,1.874,3.677,3.677,0,0,1-1.621,1.343,6.277,6.277,0,0,1-2.63.5,8.747,8.747,0,0,1-2.59-.385" transform="translate(-128.42 -213.411)"/><path class="e" d="M199.452,229.141a2.479,2.479,0,0,1-.911.449,4.242,4.242,0,0,1-1.138.15,3.2,3.2,0,0,1-2.4-.863,3.476,3.476,0,0,1-.847-2.536v-3.892h-1.339v-2.113h1.339v-2.308h2.517v2.308h2.162v2.113h-2.162v3.857a1.369,1.369,0,0,0,.282.925,1,1,0,0,0,.8.326,1.527,1.527,0,0,0,1.016-.352Z" transform="translate(-177.777 -216.827)"/><path class="e" d="M246.966,232.229l-3.92,9.944a4.9,4.9,0,0,1-1.476,2.281,3.425,3.425,0,0,1-2.121.662,4.115,4.115,0,0,1-1.339-.226,2.9,2.9,0,0,1-1.081-.627l.92-1.933a2.133,2.133,0,0,0,.67.435,1.946,1.946,0,0,0,.75.157,1.265,1.265,0,0,0,.839-.27,2.308,2.308,0,0,0,.581-.9l.032-.087-3.759-9.439h2.6l2.436,6.356,2.452-6.356Z" transform="translate(-214.133 -228.676)"/><path class="e" d="M328.906,235.881a1.95,1.95,0,0,1,.71-1.332,2.169,2.169,0,0,1,1.436-.489,2.128,2.128,0,0,1,1.42.5,1.94,1.94,0,0,1,.71,1.322Zm5.929,1.448h.018a.7.7,0,0,0,.7-.669s0-.006,0-.008a4.688,4.688,0,0,0-.589-2.379,4.008,4.008,0,0,0-1.621-1.573,5.144,5.144,0,0,0-4.671.024,4.238,4.238,0,0,0-1.662,1.6,4.435,4.435,0,0,0-.6,2.3v.007a.708.708,0,0,0,.711.7Z" transform="translate(-287.778 -228.612)"/><path class="f" d="M338.042,269.254h-.005a1.111,1.111,0,0,0-1.027.278,2.692,2.692,0,0,1-3.484,0,1.111,1.111,0,0,0-1.027-.278h-.005a1.25,1.25,0,0,0-.5,2.2,5.144,5.144,0,0,0,3.25,1v-.034h0v.034a5.047,5.047,0,0,0,3.278-1,1.246,1.246,0,0,0-.475-2.2" transform="translate(-292.061 -259.543)"/><path class="e" d="M388.964,274.847a1.1,1.1,0,0,1,.314.812,1.12,1.12,0,0,1-.314.818,1.087,1.087,0,0,1-.811.321,1.071,1.071,0,0,1-.8-.321,1.224,1.224,0,0,1-.007-1.63,1.076,1.076,0,0,1,.805-.314,1.1,1.1,0,0,1,.811.314" transform="translate(-338.06 -263.973)"/><g transform="translate(53.742 0.312)"><path class="e" d="M410.564,214.053a1.426,1.426,0,0,1,1.551-1.392,1.4,1.4,0,0,1,1.551,1.344,1.558,1.558,0,0,1-3.1.048Zm.3,2.591h2.5v8.605h-2.5Z" transform="translate(-410.564 -212.661)"/><path class="e" d="M445.3,217.009v11.867h-2.383v-.992A3.309,3.309,0,0,1,440.231,229a4.432,4.432,0,0,1,0-8.86,3.309,3.309,0,0,1,2.576,1.039v-4.174Zm-2.447,7.565a2.206,2.206,0,1,0-2.19,2.383A2.18,2.18,0,0,0,442.854,224.574Z" transform="translate(-431.729 -216.289)"/></g></g><path class="e" d="M103.348,303.75c-27.57,0-38.362-6.635-38.808-6.918a1.091,1.091,0,0,1-.32-1.6,1.319,1.319,0,0,1,1.734-.3h0c.1.065,10.725,6.515,37.394,6.515,26.8,0,40.357-6.513,40.491-6.579a1.306,1.306,0,0,1,1.69.469,1.1,1.1,0,0,1-.508,1.553C144.455,297.178,130.844,303.75,103.348,303.75Z" transform="translate(-64 -276.374)"/><path class="f" d="M95.52,194.509l-2.072-2.364a.216.216,0,0,0-.32-.006l-1.146,1.218a.212.212,0,0,0,.025.314c1.9,1.485,3.056,2.527,3.491,2.933a.217.217,0,0,0,.335-.052,14.942,14.942,0,0,1,4.887-5.218.211.211,0,0,0,.078-.275l0,0a.216.216,0,0,0-.277-.094,12.535,12.535,0,0,0-4.666,3.54.216.216,0,0,1-.332.008" transform="translate(-87.299 -190.943)"/></g></g></g></svg>