<svg xmlns="http://www.w3.org/2000/svg" width="15" height="15" viewBox="0 0 15 15"><g transform="translate(-3.375 -3.375)"><path d="M18.466,12.872l-.66-.625a.148.148,0,0,0-.1-.041h0a.142.142,0,0,0-.1.041L13.022,16.49l-1.665-1.532a.154.154,0,0,0-.21,0l-.667.614a.13.13,0,0,0,0,.2l2.1,1.933a.689.689,0,0,0,.439.2.72.72,0,0,0,.435-.19h0l5.013-4.639A.139.139,0,0,0,18.466,12.872Z" transform="translate(-3.594 -4.175)"/><path d="M10.875,4.385a6.488,6.488,0,1,1-4.59,1.9,6.447,6.447,0,0,1,4.59-1.9m0-1.01a7.5,7.5,0,1,0,7.5,7.5,7.5,7.5,0,0,0-7.5-7.5Z"/></g></svg>